<?xml version="1.0" standalone="no"?>
<!DOCTYPE svg PUBLIC "-//W3C//DTD SVG 1.1//EN" "http://www.w3.org/Graphics/SVG/1.1/DTD/svg11.dtd" >
<svg xmlns="http://www.w3.org/2000/svg" xmlns:xlink="http://www.w3.org/1999/xlink" version="1.1">
<metadata>
Created by FontForge 20190801 at Sun Sep  8 11:59:01 2019
 By Unknown
Copyright (c) 2018 by . All rights reserved.
</metadata>
<defs>
<font id="ALSGorizont-RegularExpanded" horiz-adv-x="1228" >
  <font-face 
    font-family="ALS Gorizont Expanded"
    font-weight="400"
    font-stretch="expanded"
    units-per-em="2048"
    panose-1="2 0 5 3 0 0 0 2 0 4"
    ascent="1536"
    descent="-512"
    x-height="1083"
    cap-height="1430"
    bbox="-1079 -647 3086 1931"
    underline-thickness="102"
    underline-position="-612"
    unicode-range="U+0020-25FC"
  />
<missing-glyph horiz-adv-x="1024" 
 />
    <glyph glyph-name=".notdef" horiz-adv-x="1024" 
 />
    <glyph glyph-name=".null" horiz-adv-x="0" 
 />
    <glyph glyph-name="nonmarkingreturn" horiz-adv-x="682" 
 />
    <glyph glyph-name="space" unicode=" " horiz-adv-x="595" 
 />
    <glyph glyph-name="exclam" unicode="!" horiz-adv-x="653" 
d="M166 117q0 135 160 135q155 0 155 -135t-155 -135q-160 0 -160 135zM201 1430h241l-6 -746q0 -134 -47 -305h-129q-45 161 -45 303z" />
    <glyph glyph-name="quotedbl" unicode="&#x22;" horiz-adv-x="825" 
d="M152 1430l47 -535h106l47 535h-200zM473 1430l47 -535h107l47 535h-201z" />
    <glyph glyph-name="numbersign" unicode="#" horiz-adv-x="1294" 
d="M66 369v151h225l33 289h-213v152h229l27 245h153l-26 -245h383l26 245h154l-27 -245h205v-152h-221l-31 -289h207v-151h-225l-27 -254h-154l27 254h-383l-29 -254h-153l28 254h-208zM444 520h385l31 289h-383z" />
    <glyph glyph-name="dollar" unicode="$" horiz-adv-x="1404" 
d="M53 449l238 -3q36 -110 104 -168.5t199 -76.5l35 450q-130 6 -221.5 26t-160 60t-101.5 107t-33 164q0 134 78 231.5t207 145t292 47.5l10 122l158 2l-10 -133q210 -24 335 -120.5t171 -282.5h-236q-35 97 -103 150.5t-181 72.5l-31 -399q143 -9 240.5 -33t165 -71.5
t98 -120.5t30.5 -179q0 -110 -44.5 -194t-126 -135.5t-189.5 -77.5t-242 -27l-10 -141h-158l13 147q-220 21 -348.5 123t-178.5 314zM336 1028q0 -95 70 -130t239 -46l31 401q-165 -3 -252.5 -62.5t-87.5 -162.5zM752 193q187 4 272.5 63.5t85.5 177.5q0 58 -17.5 96
t-59 61.5t-99.5 35.5t-148 18z" />
    <glyph glyph-name="percent" unicode="%" horiz-adv-x="2177" 
d="M45 993q0 233 104.5 341t331.5 108q229 0 334 -108t105 -341q0 -232 -105 -339t-334 -107q-227 0 -331.5 107t-104.5 339zM248 993q0 -168 53.5 -231.5t179.5 -63.5q128 0 182 64.5t54 230.5t-54 230.5t-182 64.5q-126 0 -179.5 -63.5t-53.5 -231.5zM616 0l658 1430h178
l-657 -1430h-179zM1221 426q0 233 105.5 340.5t332.5 107.5t332.5 -107.5t105.5 -340.5q0 -231 -105.5 -338.5t-332.5 -107.5q-228 0 -333 107.5t-105 338.5zM1425 426q0 -168 53 -230.5t181 -62.5q126 0 179.5 63.5t53.5 229.5q0 168 -53.5 231.5t-179.5 63.5
q-128 0 -181 -63.5t-53 -231.5z" />
    <glyph glyph-name="ampersand" unicode="&#x26;" horiz-adv-x="1773" 
d="M137 354q0 113 50.5 193t138.5 125q50 26 131 43q-72 51 -115.5 94.5t-71.5 106t-28 139.5q0 103 40 180t112.5 122t166 67t209.5 22q122 0 214 -21t165 -68.5t118 -128.5t62 -196h-225q-23 127 -107 183.5t-229 56.5q-299 0 -299 -213q0 -48 14.5 -84.5t59 -82.5
t103 -90.5t169.5 -121.5q36 -25 120 -82.5t168.5 -116l162.5 -112.5q22 87 22 256h191q0 -247 -43 -377l348 -248h-303l-131 96q-75 -76 -207 -105.5t-359 -31.5q-245 0 -384.5 39t-201 124t-61.5 232zM371 383q0 -129 97 -184.5t304 -55.5q161 0 255.5 16t148.5 56
q-106 74 -308.5 213t-285.5 197q-105 -38 -158 -100t-53 -142z" />
    <glyph glyph-name="quotesingle" unicode="'" horiz-adv-x="505" 
d="M152 1430l47 -535h106l47 535h-200z" />
    <glyph glyph-name="parenleft" unicode="(" horiz-adv-x="737" 
d="M172 516v363q0 123 9.5 213.5t33 166.5t61.5 127t97 89.5t137 60t184 31.5v-168q-42 -6 -77 -15t-62.5 -23.5t-49 -29.5t-37.5 -39t-27.5 -45t-19 -55.5t-12 -63t-7 -74t-3 -82t-0.5 -93.5v-363q0 -72 1 -116.5t5 -98.5t12.5 -85.5t23 -68t36 -57.5t52 -41.5t71.5 -32.5
t94 -20v-168q-106 10 -184 31.5t-137 60t-97 89.5t-61.5 127t-33 166.5t-9.5 213.5z" />
    <glyph glyph-name="parenright" unicode=")" horiz-adv-x="737" 
d="M43 -4q53 8 94 20t72 32.5t52.5 42t36 57.5t23 68t13 85t5.5 98t1 117v363q0 71 -1 115.5t-5.5 97.5t-13 85.5t-23 68.5t-36 57.5t-52.5 42.5t-72 33t-94 20v168q106 -10 184.5 -31.5t138 -60t97.5 -89.5t61.5 -127t33 -166.5t9.5 -213.5v-363q0 -123 -9.5 -213.5
t-33 -166.5t-61.5 -127t-97.5 -89.5t-138 -60t-184.5 -31.5v168z" />
    <glyph glyph-name="asterisk" unicode="*" horiz-adv-x="894" 
d="M145 1180l60 178q64 -27 254 -119q-27 150 -37 274h188q-10 -83 -39 -274q153 79 250 119l58 -178q-114 -26 -271 -50q11 -11 41 -40t47.5 -47t46.5 -49.5t56 -65.5l-152 -109q-50 85 -131 246q-70 -140 -131 -246l-152 111q82 97 189 200q-155 23 -277 50z" />
    <glyph glyph-name="plus" unicode="+" 
d="M170 569v179h356v319h179v-319h354v-179h-354v-331h-179v331h-356z" />
    <glyph glyph-name="comma" unicode="," horiz-adv-x="536" 
d="M49 -338q159 189 211 295q12 25 -2 25q-58 3 -86 18q-63 28 -63 115q0 64 42.5 100.5t118.5 36.5q172 0 172 -180q0 -56 -19.5 -113.5t-55 -112t-69.5 -96.5t-79 -90z" />
    <glyph glyph-name="hyphen" unicode="-" horiz-adv-x="1206" 
d="M178 494v196h850v-196h-850z" />
    <glyph glyph-name="period" unicode="." horiz-adv-x="501" 
d="M92 117q0 135 160 135q156 0 156 -135t-156 -135q-160 0 -160 135z" />
    <glyph glyph-name="slash" unicode="/" horiz-adv-x="692" 
d="M-72 0l658 1430h178l-658 -1430h-178z" />
    <glyph glyph-name="zero" unicode="0" horiz-adv-x="1462" 
d="M92 711q0 390 151 565.5t488 175.5q338 0 488.5 -175t150.5 -566t-151 -568.5t-488 -177.5q-336 0 -487.5 177.5t-151.5 568.5zM330 711q0 -164 23.5 -271.5t75 -169t123 -86t179.5 -24.5q107 0 179 24.5t124 86.5t75.5 169.5t23.5 270.5t-23.5 270.5t-75.5 168.5
t-123.5 85.5t-179.5 24.5q-86 0 -147.5 -15t-111.5 -51.5t-80 -99t-46 -157t-16 -226.5z" />
    <glyph glyph-name="one" unicode="1" horiz-adv-x="1058" 
d="M100 1008v194l613 221h168v-1423h-232v1208z" />
    <glyph glyph-name="two" unicode="2" horiz-adv-x="1425" 
d="M94 993q43 221 207.5 336t441.5 115q303 0 450.5 -116t147.5 -349q0 -101 -30 -180.5t-65.5 -128t-117.5 -96.5t-133 -69.5t-163 -63.5q-44 -17 -66 -25q-337 -122 -410 -213l6 -21q238 25 433 25h510v-207h-1203q-4 40 -4 117q0 67 37.5 129t80 102t134.5 89.5t136.5 69
t150.5 62.5q28 12 41 17q28 12 69 28.5t66 26.5t59.5 25t55.5 27t47.5 30t42 35t32.5 40.5t26 49.5t14.5 58.5t5.5 70.5q0 142 -87.5 207t-267.5 65q-177 0 -272 -60.5t-129 -195.5h-246z" />
    <glyph glyph-name="three" unicode="3" horiz-adv-x="1503" 
d="M86 436h250q23 -145 130 -208.5t300 -63.5q169 0 258.5 66.5t89.5 195.5q0 130 -72 178.5t-221 48.5h-266l45 172h223q275 0 275 213q0 230 -324 230q-179 0 -281.5 -56t-136.5 -182h-243q100 424 661 424q267 0 414 -103t147 -302q0 -95 -49.5 -166t-140.5 -113v-20
q110 -38 162.5 -125.5t52.5 -208.5q0 -209 -156 -329t-438 -120q-157 0 -263 24.5t-190 76.5q-189 113 -227 368z" />
    <glyph glyph-name="four" unicode="4" horiz-adv-x="1462" 
d="M6 375v123l694 932h414v-881h272l-55 -174h-217v-375h-227v375h-881zM276 549h611v743l-53 2z" />
    <glyph glyph-name="five" unicode="5" horiz-adv-x="1503" 
d="M113 436h249q15 -112 91 -180q106 -90 323 -90q188 3 276.5 72t88.5 211q0 145 -82.5 209.5t-265.5 64.5q-127 0 -227.5 -36.5t-155.5 -100.5l-209 123l200 721h998l-53 -203h-781l-127 -436l19 -11q156 131 417 131q260 0 383 -114.5t123 -345.5q0 -82 -15 -148.5
t-56 -131t-107 -108t-174.5 -70t-251.5 -26.5q-256 0 -414 88q-215 122 -249 381z" />
    <glyph glyph-name="six" unicode="6" horiz-adv-x="1425" 
d="M100 635q0 186 41 334.5t122.5 257t211 167t299.5 58.5q241 0 379 -90t180 -295h-239q-28 102 -104 149.5t-212 47.5q-117 0 -202 -39t-136.5 -113.5t-78.5 -169.5t-35 -219l20 -4q85 106 203 150t291 44q503 0 503 -464q0 -239 -148.5 -360.5t-461.5 -121.5
q-337 0 -485 160t-148 508zM356 449q0 -141 96 -212t281 -71q193 0 281 71.5t88 211.5q0 153 -80.5 214.5t-288.5 61.5q-189 0 -283 -72.5t-94 -203.5z" />
    <glyph glyph-name="seven" unicode="7" horiz-adv-x="1247" 
d="M84 1233h766l-649 -1233h254l743 1425l-1114 5v-197z" />
    <glyph glyph-name="eight" unicode="8" horiz-adv-x="1464" 
d="M98 379q0 273 258 371v16q-106 40 -161.5 120.5t-55.5 182.5q0 404 594 404q596 0 596 -404q0 -103 -55.5 -183t-163.5 -120v-16q258 -97 258 -371q0 -111 -50.5 -193.5t-140.5 -130.5t-201 -71t-243 -23q-104 0 -195.5 14t-173 45.5t-140 79t-92.5 119t-34 160.5z
M344 399q0 -116 94 -180.5t295 -64.5q391 0 391 245q0 131 -89.5 199t-301.5 68q-108 0 -184 -18.5t-120.5 -54t-64.5 -83t-20 -111.5zM373 1053q0 -236 360 -236q361 0 361 236q0 52 -16.5 91.5t-55.5 72.5t-112 50t-177 17t-176.5 -17t-111.5 -50t-55.5 -72.5t-16.5 -91.5
z" />
    <glyph glyph-name="nine" unicode="9" horiz-adv-x="1445" 
d="M100 973q0 238 148 358.5t461 120.5q339 0 486.5 -153.5t147.5 -499.5q0 -201 -37 -352t-116.5 -260t-209.5 -164.5t-310 -55.5q-250 0 -386 96t-173 291h241q22 -106 101.5 -151t216.5 -45q97 0 172.5 27.5t125 75.5t82.5 118t48 148.5t18 174.5h-18q-87 -108 -199 -151
t-270 -43q-266 0 -397.5 114.5t-131.5 350.5zM340 973q0 -154 81.5 -216.5t287.5 -62.5q180 0 278 74.5t98 204.5q0 140 -96 211t-280 71q-200 0 -284.5 -70.5t-84.5 -211.5z" />
    <glyph glyph-name="colon" unicode=":" horiz-adv-x="532" 
d="M92 117q0 135 160 135q156 0 156 -135t-156 -135q-160 0 -160 135zM92 915q0 136 160 136q156 0 156 -136q0 -135 -156 -135q-160 0 -160 135z" />
    <glyph glyph-name="semicolon" unicode=";" horiz-adv-x="563" 
d="M76 -338q164 199 211 295q6 12 4 18.5t-8 6.5q-58 4 -86 18q-64 28 -64 115q0 63 44 100t120 37q86 0 129 -46.5t43 -133.5q0 -105 -63 -206.5t-162 -205.5zM76 915q0 136 160 136q155 0 155 -136q0 -135 -155 -135q-160 0 -160 135z" />
    <glyph glyph-name="less" unicode="&#x3c;" 
d="M211 625v69l764 461l82 -178l-535 -315l535 -318l-82 -180z" />
    <glyph glyph-name="equal" unicode="=" 
d="M168 784v179h891v-179h-891zM172 354v178h889v-178h-889z" />
    <glyph glyph-name="greater" unicode="&#x3e;" 
d="M258 344l535 318l-535 315l82 178l762 -461v-69l-762 -461z" />
    <glyph glyph-name="question" unicode="?" horiz-adv-x="1226" 
d="M27 1051q114 395 606 395q255 0 393.5 -101t138.5 -311q0 -192 -102 -284q-63 -57 -232 -123q-93 -40 -127 -80t-34 -111v-51h-219v92q0 53 8.5 90.5t22 63.5t45.5 49.5t61.5 39.5t87.5 42q14 6 46 20.5t44.5 20t35 17t34 19t25.5 18.5t24 22q41 49 41 147
q0 234 -291 234q-150 0 -238 -47.5t-131 -163.5zM414 117q0 135 159 135q156 0 156 -135t-156 -135q-159 0 -159 135z" />
    <glyph glyph-name="at" unicode="@" horiz-adv-x="2220" 
d="M127 676q0 450 241.5 669.5t737.5 219.5q498 0 733.5 -218t235.5 -671q0 -265 -108 -385.5t-314 -122.5q-234 -3 -258 190q-62 -65 -145.5 -98t-205.5 -33q-216 0 -332 114t-116 335q0 209 118.5 324.5t329.5 117.5q216 3 330 -117v113h189v-602q0 -114 20.5 -154.5
t89.5 -40.5q30 1 57 10t55 34t48 64t32.5 103.5t12.5 147.5q0 199 -44.5 337t-140.5 224.5t-239 125t-348 38.5q-206 0 -350 -38.5t-240.5 -125t-141 -224.5t-44.5 -337t45 -337.5t141.5 -225.5t240.5 -126.5t349 -39.5q246 0 471 45v-162q-193 -47 -471 -47
q-496 0 -737.5 220.5t-241.5 672.5zM786 676q0 -147 71 -218t224 -71q150 0 223.5 74t73.5 211q0 141 -72 212.5t-225 71.5q-154 0 -224.5 -68.5t-70.5 -211.5z" />
    <glyph glyph-name="A" unicode="A" horiz-adv-x="1513" 
d="M12 0l533 1430h424l532 -1430h-256l-112 315h-752l-113 -315h-256zM451 508h614l-129 362q-104 289 -145 420h-68q-8 -27 -143 -420z" />
    <glyph glyph-name="B" unicode="B" horiz-adv-x="1540" 
d="M178 0v1430h762q249 0 362 -83.5t113 -269.5q0 -107 -52.5 -189.5t-150.5 -115.5v-12q113 -33 173.5 -122.5t60.5 -215.5q0 -79 -14.5 -140.5t-50.5 -115.5t-95.5 -89.5t-152.5 -56t-218 -20.5h-737zM416 197h549q135 0 187 61.5t52 171.5q0 112 -55 170.5t-188 58.5
h-545v-462zM416 842h551q114 0 162.5 48t48.5 148q0 101 -48.5 150t-162.5 49h-551v-395z" />
    <glyph glyph-name="C" unicode="C" horiz-adv-x="1789" 
d="M86 711q0 741 813 741q168 0 303.5 -31.5t241 -96t171.5 -168.5t87 -243h-254q-39 174 -172 251t-377 77q-159 0 -268.5 -35t-172.5 -105.5t-90.5 -165t-27.5 -224.5q0 -131 27.5 -226t90.5 -166t172.5 -106t268.5 -35q243 0 378 79.5t171 252.5h254q-20 -140 -86 -244.5
t-171 -169t-241 -96t-305 -31.5q-813 0 -813 742z" />
    <glyph glyph-name="D" unicode="D" horiz-adv-x="1693" 
d="M178 0v1430h629q208 0 355 -38t248.5 -122.5t149.5 -221t48 -333.5q0 -373 -192.5 -544t-606.5 -171h-631zM416 199h395q295 0 423 121.5t128 394.5q0 276 -127.5 396t-423.5 120h-395v-1032z" />
    <glyph glyph-name="E" unicode="E" horiz-adv-x="1359" 
d="M178 0v1430h1061v-211h-823v-392h807v-200h-807v-416h823v-211h-1061z" />
    <glyph glyph-name="F" unicode="F" horiz-adv-x="1366" 
d="M178 0v1430h1090v-211h-852v-418h837v-201h-837v-600h-238z" />
    <glyph glyph-name="G" unicode="G" horiz-adv-x="1796" 
d="M86 707q0 371 207.5 555t611.5 184q686 0 795 -531h-256q-56 171 -181 246.5t-358 75.5q-289 0 -426 -133.5t-137 -396.5q0 -261 137 -393t426 -132q249 0 390 94t169 279h-575l59 162h760q0 -9 1 -26t1 -23q0 -58 -6 -112.5t-27 -127t-55 -134t-95.5 -123.5t-143.5 -105
t-205 -70t-273 -27q-819 0 -819 738z" />
    <glyph glyph-name="H" unicode="H" horiz-adv-x="1642" 
d="M178 0v1430h238v-599h813v599h235v-1430h-235v627h-813v-627h-238z" />
    <glyph glyph-name="I" unicode="I" horiz-adv-x="593" 
d="M178 0v1430h238v-1430h-238z" />
    <glyph glyph-name="J" unicode="J" horiz-adv-x="1280" 
d="M14 401h244q28 -233 311 -233q174 0 243 77.5t69 258.5v926h231v-900q0 -156 -32.5 -262.5t-102 -170.5t-168 -92t-240.5 -28q-241 0 -383 100t-172 324z" />
    <glyph glyph-name="K" unicode="K" horiz-adv-x="1402" 
d="M178 0v1430h238v-707q41 45 92.5 100t108.5 114t75 79l381 414h275l-588 -619l637 -811h-279l-518 645l-184 -194v-451h-238z" />
    <glyph glyph-name="L" unicode="L" horiz-adv-x="1277" 
d="M178 0v1430h238v-1219h827v-211h-1065z" />
    <glyph glyph-name="M" unicode="M" horiz-adv-x="1837" 
d="M178 0v1430h461q203 -1020 256 -1289h51q120 613 258 1289h455v-1430h-227v1290h-52q-162 -778 -272 -1290h-379q-110 512 -272 1290h-51v-1290h-228z" />
    <glyph glyph-name="N" unicode="N" horiz-adv-x="1607" 
d="M178 0v1430h449q239 -599 381 -943q42 -101 141 -354h47l8 1297h226v-1430h-457q-58 142 -186 459t-197 485q-27 66 -77 194.5t-62 157.5h-48v-1296h-225z" />
    <glyph glyph-name="O" unicode="O" horiz-adv-x="1804" 
d="M86 711q0 382 207.5 561.5t607.5 179.5q403 0 610 -179t207 -562t-207 -561.5t-610 -178.5q-401 0 -608 179t-207 561zM340 711q0 -130 27.5 -224.5t90.5 -165.5t173.5 -106t269.5 -35q162 0 273 35t174 106t89.5 165t26.5 225q0 132 -26.5 226t-89.5 165t-174 106
t-273 35q-159 0 -269.5 -35t-173.5 -106t-90.5 -165.5t-27.5 -225.5z" />
    <glyph glyph-name="P" unicode="P" horiz-adv-x="1536" 
d="M178 0v1430h797q508 0 508 -455q0 -245 -136.5 -350t-408.5 -105h-522v-520h-238zM416 719h542q157 0 220 64t63 192t-63.5 193t-219.5 65h-542v-514z" />
    <glyph glyph-name="Q" unicode="Q" horiz-adv-x="1804" 
d="M86 711q0 382 207.5 561.5t607.5 179.5q403 0 610 -179t207 -562q0 -518 -391 -672l309 -291h-301l-258 234q-76 -11 -176 -11q-401 0 -608 179t-207 561zM340 711q0 -130 27.5 -224.5t90.5 -165.5t173.5 -106t269.5 -35q162 0 273 35t174 106t89.5 165t26.5 225
q0 132 -26.5 226t-89.5 165t-174 106t-273 35q-159 0 -269.5 -35t-173.5 -106t-90.5 -165.5t-27.5 -225.5z" />
    <glyph glyph-name="R" unicode="R" horiz-adv-x="1589" 
d="M178 0v1430h795q508 0 508 -455q0 -189 -90.5 -292.5t-260.5 -137.5l371 -545h-274l-355 528h-456v-528h-238zM416 719h532q163 0 228 63.5t65 192.5q0 128 -63.5 193t-219.5 65h-542v-514z" />
    <glyph glyph-name="S" unicode="S" horiz-adv-x="1480" 
d="M66 416h266q50 -232 448 -232q86 0 156.5 13t127 40t87.5 74.5t31 112.5q0 46 -11 80t-35.5 57t-53.5 37.5t-74 22.5t-88.5 10.5t-104.5 3.5h-141q-99 0 -175 8t-151 32t-124 65t-79 109.5t-30 162.5q0 110 55 195t147 135t201.5 75t229.5 25q587 0 679 -424h-249
q-50 127 -157 179t-273 52q-113 0 -200 -22t-143.5 -74.5t-56.5 -130.5q0 -41 12.5 -71.5t40 -50t58.5 -31.5t82 -18t96 -7.5t113 -1.5h100q106 0 188.5 -11t157.5 -39t123.5 -74t77 -119t28.5 -171q0 -94 -35 -170.5t-95.5 -128.5t-143.5 -87t-176.5 -51t-196.5 -16
q-114 0 -209 13.5t-181.5 45.5t-150 81.5t-108 125.5t-63.5 175z" />
    <glyph glyph-name="T" unicode="T" horiz-adv-x="1318" 
d="M41 1219v211h1237v-211h-500v-1219h-237v1219h-500z" />
    <glyph glyph-name="U" unicode="U" horiz-adv-x="1597" 
d="M158 553v877h237v-857q0 -101 18 -172.5t62.5 -127.5t126 -83.5t201.5 -27.5q97 0 168 19t115.5 52.5t71 87t36.5 114.5t10 143v852h236v-877q0 -310 -157 -448t-484 -138q-330 0 -485.5 138.5t-155.5 447.5z" />
    <glyph glyph-name="V" unicode="V" horiz-adv-x="1474" 
d="M-8 1430h258l299 -844q36 -104 92.5 -257.5t69.5 -189.5h55q20 63 76 214.5t84 232.5l301 844h256l-533 -1430h-424z" />
    <glyph glyph-name="W" unicode="W" horiz-adv-x="1867" 
d="M70 1430h237q110 -801 164 -1291h43q28 150 119.5 653.5t116.5 637.5h370q99 -503 236 -1291h43q76 635 166 1291h235l-207 -1430h-399l-233 1290h-50l-233 -1290h-402z" />
    <glyph glyph-name="X" unicode="X" horiz-adv-x="1404" 
d="M12 0l555 719l-540 711h278l406 -539l403 539h270l-550 -701l559 -729h-279l-418 551l-420 -551h-264z" />
    <glyph glyph-name="Y" unicode="Y" horiz-adv-x="1347" 
d="M-8 1430h256q214 -331 411 -654h29q53 87 412 654h256l-565 -875v-555h-234v555z" />
    <glyph glyph-name="Z" unicode="Z" horiz-adv-x="1456" 
d="M117 1223v207h1226v-175l-684 -774q-113 -131 -251 -266l6 -18q152 10 483 10h471v-207h-1247v178l663 746q139 159 281 290l-10 21q-204 -12 -500 -12h-438z" />
    <glyph glyph-name="bracketleft" unicode="[" horiz-adv-x="651" 
d="M164 -172h428v170l-213 2v1399h213v170h-428v-1741z" />
    <glyph glyph-name="backslash" unicode="\" horiz-adv-x="692" 
d="M-72 1430h178l658 -1430h-178z" />
    <glyph glyph-name="bracketright" unicode="]" horiz-adv-x="665" 
d="M59 -2v-170h428v1741h-428v-170h211v-1399z" />
    <glyph glyph-name="asciicircum" unicode="^" 
d="M76 680l465 770h145l465 -770h-221l-316 534l-317 -534h-221z" />
    <glyph glyph-name="underscore" unicode="_" horiz-adv-x="1191" 
d="M0 -442h1192v-185h-1192v185z" />
    <glyph glyph-name="grave" unicode="`" 
d="M164 1808h246l307 -301h-168z" />
    <glyph glyph-name="a" unicode="a" horiz-adv-x="1472" 
d="M113 336q0 85 30.5 149t79 101.5t120.5 60t143 30t159 7.5h432q-5 142 -86.5 205.5t-265.5 64.5h-19q-142 0 -234 -43q-100 -46 -126 -129h-227q47 170 203.5 259t400.5 89q283 0 427 -110.5t144 -364.5v-655h-184l-23 184q-64 -106 -198.5 -164.5t-294.5 -58.5
q-229 0 -355 94t-126 281zM336 340q0 -207 293 -207q83 0 156 16t139.5 51t107 101t43.5 156v80h-366q-56 0 -94.5 -2t-85.5 -8t-78.5 -19.5t-59.5 -34.5t-41.5 -54.5t-13.5 -78.5z" />
    <glyph glyph-name="b" unicode="b" horiz-adv-x="1583" 
d="M178 -2v1505h225v-540q168 178 467 178q313 0 463 -147.5t150 -442.5q0 -294 -150.5 -441t-462.5 -147q-329 0 -491 201l-10 -166h-191zM395 551q0 -189 117 -294t311 -105q223 0 327.5 94.5t104.5 304.5q0 211 -104 305t-328 94q-194 0 -311 -105t-117 -294z" />
    <glyph glyph-name="c" unicode="c" horiz-adv-x="1533" 
d="M100 551q0 303 170.5 447.5t503.5 144.5q296 0 463 -111t205 -342h-234q-29 134 -134 198t-300 64q-238 0 -342 -97.5t-104 -303.5q0 -204 104 -301.5t342 -97.5q195 0 300 64t134 198h234q-38 -232 -204.5 -342.5t-463.5 -110.5q-674 0 -674 590z" />
    <glyph glyph-name="d" unicode="d" horiz-adv-x="1583" 
d="M100 553q0 285 158 436.5t449 151.5q326 0 473 -172v547h225v-1516h-205l-4 158q-147 -197 -489 -197q-294 0 -450.5 152t-156.5 440zM330 551q0 -116 29.5 -195.5t88 -123.5t132.5 -62t176 -18q209 0 318.5 107.5t109.5 295.5v14v6q-6 177 -115.5 276t-312.5 99
q-102 0 -176 -18t-132.5 -62t-88 -123.5t-29.5 -195.5z" />
    <glyph glyph-name="e" unicode="e" horiz-adv-x="1523" 
d="M100 551q0 293 174.5 439.5t495.5 146.5q336 0 500 -158q162 -155 162 -475v-12h-1104q6 -181 119.5 -261.5t326.5 -80.5q173 0 276 37.5t146 136.5h221q-38 -176 -203.5 -267.5t-443.5 -91.5q-161 0 -282 32t-209 101t-133.5 182.5t-45.5 270.5zM330 643h872
q-21 170 -128.5 247t-305.5 77q-205 0 -313 -77.5t-125 -246.5z" />
    <glyph glyph-name="f" unicode="f" horiz-adv-x="1118" 
d="M59 901v184h283q9 108 39 184.5t79.5 127t129 79.5t175 40.5t228.5 11.5h111v-197h-174q-88 0 -151.5 -10.5t-104.5 -30t-65 -51t-33 -68t-9 -86.5h531v-184h-533v-901h-225v901h-281z" />
    <glyph glyph-name="g" unicode="g" horiz-adv-x="1607" 
d="M129 569q0 283 158 426.5t456 143.5q326 0 476 -170l4 116h207v-946q0 -310 -152.5 -456t-489.5 -146q-294 0 -444 86t-205 287h236q40 -103 138 -150t271 -47q214 0 314 87t102 270v77q-152 -155 -457 -155q-299 0 -456.5 146t-157.5 431zM358 569q0 -111 29 -188
t86 -121.5t133 -64t180 -19.5q209 0 316.5 106t107.5 289q0 181 -107.5 282t-316.5 101q-104 0 -179.5 -18.5t-133.5 -61.5t-86.5 -119t-28.5 -186z" />
    <glyph glyph-name="h" unicode="h" horiz-adv-x="1550" 
d="M178 0v1516h225v-568q147 187 453 187q96 0 172 -15.5t142 -52t109.5 -95t68 -148t24.5 -206.5v-618h-225v594q0 179 -90.5 260.5t-274.5 81.5q-379 0 -379 -340v-596h-225z" />
    <glyph glyph-name="i" unicode="i" horiz-adv-x="598" 
d="M150 1354q0 66 38.5 101.5t110.5 35.5t111 -35.5t39 -101.5q0 -67 -39 -103.5t-111 -36.5t-110.5 36t-38.5 104zM193 0v1085h225v-1085h-225z" />
    <glyph glyph-name="j" unicode="j" horiz-adv-x="567" 
d="M-160 -213h23q71 0 116.5 4t80 18t52.5 31.5t28.5 53.5t13 74t2.5 104v1013h225v-1022q0 -112 -14.5 -188t-45 -129t-86 -82.5t-129 -42t-182.5 -12.5h-84v178zM115 1352q0 67 39.5 104t111.5 37q73 0 112.5 -36.5t39.5 -104.5q0 -66 -39.5 -103t-112.5 -37
q-72 0 -111.5 37t-39.5 103z" />
    <glyph glyph-name="k" unicode="k" horiz-adv-x="1288" 
d="M178 0v1516h225v-1010l265 246l354 331h266l-516 -483l531 -600h-269l-418 457l-213 -201v-256h-225z" />
    <glyph glyph-name="l" unicode="l" horiz-adv-x="581" 
d="M178 0v1516h225v-1516h-225z" />
    <glyph glyph-name="m" unicode="m" horiz-adv-x="2240" 
d="M178 0v1085h207l4 -135q130 180 404 180q303 0 395 -204q132 204 440 204q103 0 180 -22.5t135.5 -73.5t88.5 -139t30 -213v-682h-225v625q0 172 -66.5 242.5t-224.5 70.5q-162 0 -236.5 -76.5t-76.5 -238.5v-623h-225v625q0 172 -66.5 242.5t-224.5 70.5t-236 -76
t-78 -239v-623h-225z" />
    <glyph glyph-name="n" unicode="n" horiz-adv-x="1550" 
d="M178 0v1085h209l4 -139q133 184 465 184q256 0 386 -116.5t130 -372.5v-641h-225v598q0 182 -87 261t-276 79q-193 0 -287 -83t-94 -261v-594h-225z" />
    <glyph glyph-name="o" unicode="o" horiz-adv-x="1548" 
d="M100 551q0 303 170 446.5t504 143.5q337 0 506.5 -143.5t169.5 -446.5q0 -301 -171 -445.5t-505 -144.5t-504 144.5t-170 445.5zM328 551q0 -204 104 -301.5t342 -97.5t342.5 97.5t104.5 301.5q0 205 -104 302t-343 97q-238 0 -342 -97t-104 -302z" />
    <glyph glyph-name="p" unicode="p" horiz-adv-x="1570" 
d="M178 -410v1502h209l2 -131q162 180 471 180q312 0 461 -149t149 -441t-149 -440t-461 -148q-296 0 -457 154v-527h-225zM383 551q0 -189 117 -294t311 -105q221 0 325.5 94.5t104.5 304.5q0 211 -104.5 305t-325.5 94q-194 0 -311 -105t-117 -294z" />
    <glyph glyph-name="q" unicode="q" horiz-adv-x="1581" 
d="M100 553q0 285 158 435.5t449 150.5q334 0 481 -166l6 114h209v-1472h-227v510q-150 -162 -469 -162q-294 0 -450.5 151.5t-156.5 438.5zM330 551q0 -116 29.5 -195.5t88 -123.5t132.5 -62t176 -18q208 0 317 108t109 295q0 186 -108.5 290.5t-317.5 104.5
q-102 0 -176 -18t-132.5 -62t-88 -123.5t-29.5 -195.5z" />
    <glyph glyph-name="r" unicode="r" horiz-adv-x="985" 
d="M178 0v1085h207l2 -159q72 121 187 160.5t352 39.5h37v-213h-109q-86 0 -148.5 -6.5t-122.5 -26.5t-97.5 -54t-60 -92t-22.5 -138v-596h-225z" />
    <glyph glyph-name="s" unicode="s" horiz-adv-x="1421" 
d="M76 344h235q36 -106 138 -154.5t278 -48.5q172 0 270.5 47.5t98.5 133.5q0 90 -69.5 119.5t-270.5 29.5h-88q-264 0 -392.5 72t-128.5 245q0 156 152 254.5t408 98.5q265 0 419 -84.5t209 -278.5h-227q-39 103 -136 147t-265 44q-156 0 -250.5 -44t-94.5 -128
q0 -86 80.5 -116t290.5 -30h94q258 0 374 -75.5t116 -251.5q0 -178 -158 -270.5t-432 -92.5q-290 0 -443.5 89t-207.5 294z" />
    <glyph glyph-name="t" unicode="t" horiz-adv-x="1179" 
d="M49 895v190h119q38 0 68.5 4t54 10t42 20t31 26t22 35.5t15 41.5t10 51.5t6.5 58t5 67.5h170v-314h522v-190h-530v-393q0 -69 5 -113.5t21.5 -80.5t41 -55t70 -31.5t100.5 -16.5t141 -4h151v-201h-203q-113 0 -191.5 8t-143.5 29.5t-104 56t-66 92t-37.5 133.5t-10.5 183
v393h-309z" />
    <glyph glyph-name="u" unicode="u" horiz-adv-x="1542" 
d="M178 465v618h223v-591q0 -180 89 -260t272 -80q374 0 377 329v602h225v-1083h-203l-6 164q-137 -211 -463 -211q-119 0 -209 25t-160.5 82t-107.5 159t-37 246z" />
    <glyph glyph-name="v" unicode="v" horiz-adv-x="1398" 
d="M37 1085h260q69 -165 191 -476t182 -455h61q68 161 192 477t181 454h256l-467 -1085h-387z" />
    <glyph glyph-name="w" unicode="w" horiz-adv-x="1691" 
d="M68 1085h229q107 -640 154 -954h51q13 76 46.5 279t62 367.5t55.5 307.5h358q28 -143 56 -302.5t64.5 -377.5t45.5 -274h49q30 199 156 954h229l-199 -1085h-387l-166 954h-55l-162 -954h-391z" />
    <glyph glyph-name="x" unicode="x" horiz-adv-x="1327" 
d="M20 0l512 541l-507 544h276l369 -397l358 397h270l-499 -536l508 -549h-279l-369 401l-370 -401h-269z" />
    <glyph glyph-name="y" unicode="y" horiz-adv-x="1357" 
d="M35 1085h260q61 -144 124 -298.5t140.5 -347.5t112.5 -279h84l360 925h252l-414 -1005q-46 -114 -77 -181.5t-69.5 -127t-70.5 -87.5t-83.5 -49t-106.5 -26.5t-141 -5.5h-187v190h180q100 0 154 19.5t82.5 59.5t60.5 128h-188z" />
    <glyph glyph-name="z" unicode="z" horiz-adv-x="1382" 
d="M96 889v196h1149v-170l-414 -399q-133 -128 -348 -307l4 -23q155 11 328 11h471v-197h-1171v123l432 401q90 84 210 189t187 159l-4 25q-136 -8 -309 -8h-535z" />
    <glyph glyph-name="braceleft" unicode="{" horiz-adv-x="806" 
d="M100 586v223q75 0 108.5 39.5t33.5 155.5v178q0 86 21 149t69.5 113.5t133.5 81t208 41.5v-156q-130 -28 -179 -82t-49 -170v-178q0 -217 -155 -243q-5 -1 -37 -5v-71q2 0 17 -2t22 -3.5t23.5 -6t26.5 -10t25 -15.5t24.5 -22.5t21 -31t17.5 -40.5t10.5 -52t4.5 -65v-181
q0 -115 50 -168t182 -81v-156q-124 11 -209.5 41.5t-135 81t-70.5 114t-21 148.5v176q0 81 -17.5 125t-46 58t-78.5 14z" />
    <glyph glyph-name="bar" unicode="|" horiz-adv-x="569" 
d="M178 0v1430h213v-1430h-213z" />
    <glyph glyph-name="braceright" unicode="}" horiz-adv-x="739" 
d="M41 -16q131 28 181 81t50 168v181q0 39 4.5 71.5t14.5 56t19.5 41.5t26 30.5t27 20.5t29.5 13.5t26.5 7.5t25 4.5t18.5 2.5v71q-64 8 -93 23q-98 51 -98 225v178q0 116 -48.5 170t-178.5 82l-2 156q124 -11 209 -41.5t134 -81t70 -113.5t21 -149v-178q0 -116 33 -155.5
t108 -39.5v-223q-75 0 -108 -39.5t-33 -157.5v-176q0 -85 -21.5 -148.5t-71 -114t-135 -81t-208.5 -41.5v156z" />
    <glyph glyph-name="asciitilde" unicode="~" 
d="M217 565q0 121 60 184.5t176 63.5q54 0 99.5 -12t76.5 -29.5t57.5 -35t54 -29.5t54.5 -11q96 0 96 109q0 29 -4 45h176q6 -46 6 -88q0 -248 -233 -248q-56 0 -101.5 12.5t-75 30t-54.5 35t-54.5 30t-61.5 11.5q-50 -2 -72 -27t-22 -80q0 -29 2 -47h-174q-6 47 -6 86z" />
    <glyph glyph-name="uni00A0" unicode="&#xa0;" horiz-adv-x="552" 
 />
    <glyph glyph-name="exclamdown" unicode="&#xa1;" horiz-adv-x="653" 
d="M166 1012q0 135 160 135q155 0 155 -135t-155 -135q-160 0 -160 135zM201 -301l14 747q0 143 45 304h129q47 -171 47 -306l6 -745h-241z" />
    <glyph glyph-name="cent" unicode="&#xa2;" horiz-adv-x="1525" 
d="M94 551q0 557 590 588v133h158v-133q257 -14 401.5 -124.5t179.5 -326.5h-229q-28 121 -113 184.5t-239 75.5v-794q155 12 240.5 75.5t113.5 184.5h227q-35 -216 -179.5 -326.5t-401.5 -124.5v-131h-158v131q-590 31 -590 588zM319 551q0 -187 86 -283.5t279 -113.5v794
q-193 -15 -279 -112t-86 -285z" />
    <glyph glyph-name="sterling" unicode="&#xa3;" horiz-adv-x="1435" 
d="M53 678v147h230v88q0 57 2 97t8.5 88.5t18.5 82.5t33 71.5t50.5 63t73 49.5t99 38t128.5 22.5t162 8.5h205v-193h-209q-57 0 -93.5 -2t-74.5 -8t-60.5 -17t-45 -31t-34 -47.5t-21 -68.5t-12.5 -91.5t-3 -119.5v-31h526v-147h-524l2 -203q3 -221 -135 -289v-10h512
q59 0 102.5 10t86.5 37t70.5 83t37.5 140h180q-11 -112 -41.5 -193t-73.5 -129.5t-109 -76.5t-133.5 -37.5t-160.5 -9.5h-774v178h55q158 0 158 283v217h-236z" />
    <glyph glyph-name="currency" unicode="&#xa4;" 
d="M70 254l190 192q-76 98 -76 252t76 252l-190 193l129 121l204 -207q88 39 218 39q138 0 231 -43l209 211l129 -121l-201 -203q68 -95 68 -242q0 -146 -68 -241l201 -203l-129 -121l-209 213q-91 -45 -231 -45q-130 0 -218 39l-204 -207zM362 698q0 -119 61 -189.5
t198 -70.5q258 0 258 260t-258 260q-137 0 -198 -70.5t-61 -189.5z" />
    <glyph glyph-name="yen" unicode="&#xa5;" horiz-adv-x="1507" 
d="M76 1430h254q227 -358 405 -658h33q130 222 406 658h253l-423 -658h325v-145h-420l-41 -64v-61h461v-146h-461v-356h-233v356h-461v146h461v61l-41 64h-420v145h326z" />
    <glyph glyph-name="brokenbar" unicode="&#xa6;" horiz-adv-x="569" 
d="M178 0v623h213v-623h-213zM178 788v642h213v-642h-213z" />
    <glyph glyph-name="section" unicode="&#xa7;" horiz-adv-x="1384" 
d="M117 88h219q64 -166 332 -166q124 0 202 43.5t78 132.5q0 69 -60.5 105.5t-199.5 60.5q-92 16 -141 26t-125 30t-117 44t-84.5 59.5t-62.5 85t-19 112.5q0 173 228 249q-100 36 -149.5 95t-49.5 163q0 109 66.5 188t173 116.5t239.5 37.5q230 0 368 -76.5t189 -250.5
h-221q-64 168 -332 168q-123 0 -200.5 -44.5t-77.5 -133.5q0 -69 60 -104t198 -60q90 -16 139.5 -26t125 -30.5t117 -44.5t85.5 -59.5t63 -85.5t19 -113q0 -169 -226 -250q98 -34 148.5 -94t50.5 -164q0 -108 -66.5 -187t-174 -117t-240.5 -38q-230 0 -368 77t-187 251z
M352 643q0 -91 70 -137t219 -76l137 -24q82 19 135.5 65.5t53.5 116.5q0 93 -69 138.5t-218 74.5q-10 2 -141 26q-82 -21 -134.5 -67.5t-52.5 -116.5z" />
    <glyph glyph-name="dieresis" unicode="&#xa8;" 
d="M137 1642q0 64 39 98t113 34q72 0 111.5 -34t39.5 -98q0 -63 -39.5 -96t-111.5 -33q-74 0 -113 33t-39 96zM700 1642q0 64 39 98t113 34q73 0 112.5 -34t39.5 -98q0 -63 -39.5 -96t-112.5 -33q-74 0 -113 33t-39 96z" />
    <glyph glyph-name="copyright" unicode="&#xa9;" horiz-adv-x="2289" 
d="M152 668q0 458 236.5 677.5t744.5 219.5t744.5 -219.5t236.5 -677.5t-236.5 -678.5t-744.5 -220.5t-744.5 220.5t-236.5 678.5zM354 668q0 -200 45 -339t142 -227t241.5 -128t350.5 -40t350.5 40t241 128t141.5 227t45 339q0 201 -44.5 340t-141.5 227t-241 127t-351 39
q-206 0 -350.5 -39t-241.5 -126.5t-142 -227t-45 -340.5zM567 678q0 257 142.5 379.5t423.5 122.5q494 0 557 -379h-187q-28 114 -116.5 168.5t-253.5 54.5q-202 0 -291.5 -85.5t-89.5 -260.5t89.5 -261.5t291.5 -86.5q165 0 253.5 55.5t116.5 169.5h187q-59 -379 -557 -379
q-281 0 -423.5 122.5t-142.5 379.5z" />
    <glyph glyph-name="guillemotleft" unicode="&#xab;" horiz-adv-x="997" 
d="M49 596l326 -453h215l-342 453l342 453h-215zM373 596l327 -453h215l-342 453l342 453h-215z" />
    <glyph glyph-name="logicalnot" unicode="&#xac;" 
d="M174 571v179h889v-560h-172v381h-717z" />
    <glyph glyph-name="uni00AD" unicode="&#xad;" horiz-adv-x="1206" 
d="M178 494v196h850v-196h-850z" />
    <glyph glyph-name="registered" unicode="&#xae;" horiz-adv-x="1484" 
d="M104 961q0 575 639 575q637 0 637 -575q0 -578 -637 -578q-639 0 -639 578zM246 961q0 -249 117.5 -355t379.5 -106q260 0 378 106t118 355q0 248 -119 353t-377 105q-263 0 -380 -104.5t-117 -353.5zM473 682v588h363q213 0 213 -191q0 -86 -41 -128.5t-121 -53.5
l157 -215h-137l-155 209h-160v-209h-119zM592 977h229q59 0 84 25t25 77q0 50 -25 74.5t-84 24.5h-229v-201z" />
    <glyph glyph-name="macron" unicode="&#xaf;" 
d="M246 1563v155h688v-155h-688z" />
    <glyph glyph-name="degree" unicode="&#xb0;" 
d="M121 1020q0 192 123.5 305t328.5 113t328 -113t123 -305q0 -194 -123 -307t-328 -113t-328.5 113t-123.5 307zM313 1020q0 -119 68 -188.5t192 -69.5q123 0 190.5 69.5t67.5 188.5t-67.5 187.5t-190.5 68.5q-124 0 -192 -68.5t-68 -187.5z" />
    <glyph glyph-name="plusminus" unicode="&#xb1;" 
d="M170 193v178h889v-178h-889zM170 664v178h356v311h179v-311h354v-178h-354v-177h-179v177h-356z" />
    <glyph glyph-name="uni00B2" unicode="&#xb2;" horiz-adv-x="1009" 
d="M76 1157q29 136 143.5 207.5t304.5 71.5q410 0 410 -291q0 -59 -19 -104.5t-47 -75t-78 -55.5t-93 -41.5t-112 -37.5l-9 -3t-8 -2.5t-9 -2.5q-204 -66 -262 -106l4 -15q149 23 322 23h282v-156h-823q-4 36 -4 80q0 45 26.5 85t56.5 65t94 55t95 41.5t103 35.5q4 1 5.5 2
t4.5 2t5.5 1.5t4.5 1.5q20 7 50.5 17t48 16t42.5 15.5t39 18.5t30 22.5t24.5 29t14 37t5.5 47.5q0 75 -51.5 108t-153.5 33q-103 0 -160 -29.5t-75 -95.5h-211z" />
    <glyph glyph-name="uni00B3" unicode="&#xb3;" horiz-adv-x="1009" 
d="M70 836h213q24 -129 254 -129q98 0 151 32.5t53 94.5q0 66 -48 89t-140 23h-164l37 129h139q162 0 162 109q0 116 -188 116q-203 0 -242 -118h-207q64 260 451 260q188 0 288.5 -63.5t100.5 -180.5q0 -112 -133 -166v-12q151 -49 151 -201q0 -126 -108 -198t-303 -72
q-198 0 -301 53q-138 71 -166 234z" />
    <glyph glyph-name="acute" unicode="&#xb4;" 
d="M336 1507l305 299h246l-383 -299h-168z" />
    <glyph glyph-name="paragraph" unicode="&#xb6;" 
d="M78 1012q0 220 117.5 319t382.5 99h546v-1430h-170v1268h-141v-1268h-170v596l-65 -2q-264 -6 -382 93.5t-118 324.5zM287 1012q0 -136 59 -197t209 -61h88v518l-88 -2q-150 -1 -209 -61t-59 -197z" />
    <glyph glyph-name="periodcentered" unicode="&#xb7;" horiz-adv-x="577" 
d="M131 561q0 133 160 133q155 0 155 -133q0 -137 -155 -137q-160 0 -160 137z" />
    <glyph glyph-name="cedilla" unicode="&#xb8;" 
d="M516 -354q92 -25 201 -25q74 0 104.5 21t30.5 75q0 43 -25 63.5t-90 20.5q-76 0 -133 -2l123 250h133l-84 -149q12 2 37 2q104 0 151.5 -43t47.5 -142q0 -223 -291 -223q-127 0 -205 31v121z" />
    <glyph glyph-name="uni00B9" unicode="&#xb9;" horiz-adv-x="829" 
d="M80 1176v137l405 117h160v-861h-194v715z" />
    <glyph glyph-name="guillemotright" unicode="&#xbb;" horiz-adv-x="999" 
d="M90 143h215l328 453l-328 453h-215l342 -453zM416 143h215l325 453l-325 453h-215l342 -453z" />
    <glyph glyph-name="onequarter" unicode="&#xbc;" horiz-adv-x="2236" 
d="M80 1176v137l405 117h160v-861h-194v715zM434 0l1014 1430h174l-1016 -1430h-172zM1249 217v90l445 551h325v-512h181l-39 -129h-142v-217h-194v217h-576zM1464 346h361v416h-23z" />
    <glyph glyph-name="onehalf" unicode="&#xbd;" horiz-adv-x="2236" 
d="M80 1176v137l405 117h160v-861h-194v715zM434 0l1014 1430h174l-1016 -1430h-172zM1303 588q29 135 143.5 206.5t304.5 71.5q410 0 410 -291q0 -58 -20 -104t-44.5 -74.5t-79 -56t-91 -40.5t-112.5 -37q-18 -6 -28 -9q-201 -65 -262 -107l4 -14q150 23 321 23h283v-156
h-823q-4 36 -4 80q0 45 26.5 85t56.5 65t94 55t95 41.5t103 35.5q14 5 20 7q20 7 50.5 17t48.5 15.5t42 15.5t38.5 18.5t30.5 22.5t24.5 29t14 36.5t5.5 47.5q0 76 -51.5 109t-153.5 33q-103 0 -160.5 -29.5t-75.5 -95.5h-210z" />
    <glyph glyph-name="threequarters" unicode="&#xbe;" horiz-adv-x="2416" 
d="M70 836h213q24 -129 254 -129q98 0 151 32.5t53 94.5q0 66 -48 89t-140 23h-164l37 129h139q162 0 162 109q0 116 -188 116q-203 0 -242 -118h-207q64 260 451 260q188 0 288.5 -63.5t100.5 -180.5q0 -112 -133 -166v-12q151 -49 151 -201q0 -126 -108 -198t-303 -72
q-198 0 -301 53q-138 71 -166 234zM614 0l1014 1430h174l-1016 -1430h-172zM1430 217v90l444 551h326v-512h180l-39 -129h-141v-217h-195v217h-575zM1645 346h360v416h-23z" />
    <glyph glyph-name="questiondown" unicode="&#xbf;" horiz-adv-x="1226" 
d="M25 92q0 194 102 285q61 55 231 123q94 40 128 79t34 111v51h221v-92q0 -44 -4.5 -76.5t-18.5 -59t-28 -44.5t-44.5 -37t-56 -32t-73.5 -35q-13 -6 -54 -24t-53.5 -24t-37.5 -19.5t-39 -24.5t-25 -25q-43 -52 -43 -148q0 -233 291 -233q152 0 240 47.5t129 163.5l239 -2
q-111 -395 -606 -395q-255 0 -393.5 101t-138.5 310zM463 1010q0 135 155 135q160 0 160 -135q0 -136 -160 -136q-155 0 -155 136z" />
    <glyph glyph-name="Agrave" unicode="&#xc0;" horiz-adv-x="1513" 
d="M12 0l533 1430h424l532 -1430h-256l-112 315h-752l-113 -315h-256zM391 1808h246l307 -301h-168zM451 508h614l-129 362q-104 289 -145 420h-68q-8 -27 -143 -420z" />
    <glyph glyph-name="Aacute" unicode="&#xc1;" horiz-adv-x="1513" 
d="M12 0l533 1430h424l532 -1430h-256l-112 315h-752l-113 -315h-256zM451 508h614l-129 362q-104 289 -145 420h-68q-8 -27 -143 -420zM575 1507l306 299h245l-383 -299h-168z" />
    <glyph glyph-name="Acircumflex" unicode="&#xc2;" horiz-adv-x="1513" 
d="M12 0l533 1430h424l532 -1430h-256l-112 315h-752l-113 -315h-256zM350 1501l301 334h201l301 -334h-176l-225 223l-226 -223h-176zM451 508h614l-129 362q-104 289 -145 420h-68q-8 -27 -143 -420z" />
    <glyph glyph-name="Atilde" unicode="&#xc3;" horiz-adv-x="1513" 
d="M12 0l533 1430h424l532 -1430h-256l-112 315h-752l-113 -315h-256zM350 1501q-3 121 60.5 189.5t189.5 68.5q68 0 115 -15.5t82.5 -30.5t76.5 -15q46 0 70 26t27 86h147q3 -124 -60 -193t-194 -69q-63 0 -110 15t-83 30t-71 15q-53 0 -75 -27t-25 -80h-150zM451 508h614
l-129 362q-104 289 -145 420h-68q-8 -27 -143 -420z" />
    <glyph glyph-name="Adieresis" unicode="&#xc4;" horiz-adv-x="1513" 
d="M12 0l533 1430h424l532 -1430h-256l-112 315h-752l-113 -315h-256zM324 1642q0 64 38.5 98t112.5 34q73 0 112.5 -34t39.5 -98q0 -63 -39.5 -96t-112.5 -33q-74 0 -112.5 33t-38.5 96zM451 508h614l-129 362q-104 289 -145 420h-68q-8 -27 -143 -420zM887 1642
q0 64 38.5 98t112.5 34q73 0 112.5 -34t39.5 -98q0 -63 -39.5 -96t-112.5 -33q-74 0 -112.5 33t-38.5 96z" />
    <glyph glyph-name="Aring" unicode="&#xc5;" horiz-adv-x="1513" 
d="M12 0l533 1430h424l532 -1430h-256l-112 315h-752l-113 -315h-256zM451 508h614l-129 362q-104 289 -145 420h-68q-8 -27 -143 -420zM489 1712q0 211 269 211q270 0 270 -211t-270 -211q-135 0 -202 51t-67 160zM616 1712q0 -59 31.5 -89t110.5 -30q78 0 109.5 30
t31.5 89t-31.5 88t-109.5 29q-79 0 -110.5 -29t-31.5 -88z" />
    <glyph glyph-name="AE" unicode="&#xc6;" horiz-adv-x="2211" 
d="M12 0l748 1430h1331v-211h-825v-392h809v-200h-809v-416h825v-211h-1061v358h-577l-183 -358h-258zM545 545h485v733h-123q-180 -372 -362 -733z" />
    <glyph glyph-name="Ccedilla" unicode="&#xc7;" horiz-adv-x="1789" 
d="M86 711q0 741 813 741q168 0 303.5 -31.5t241 -96t171.5 -168.5t87 -243h-254q-39 174 -172 251t-377 77q-159 0 -268.5 -35t-172.5 -105.5t-90.5 -165t-27.5 -224.5q0 -131 27.5 -226t90.5 -166t172.5 -106t268.5 -35q243 0 378 79.5t171 252.5h254
q-39 -265 -233.5 -397.5t-516.5 -143.5l-30 -55q12 2 36 2q104 0 151.5 -42.5t47.5 -141.5q0 -224 -291 -224q-126 0 -204 31v121q92 -25 200 -25q73 0 104 21t31 76q0 44 -24.5 64t-89.5 20q-76 0 -133 -2l77 157q-741 31 -741 740z" />
    <glyph glyph-name="Egrave" unicode="&#xc8;" horiz-adv-x="1359" 
d="M178 0v1430h1061v-211h-823v-392h807v-200h-807v-416h823v-211h-1061zM360 1808h246l307 -301h-168z" />
    <glyph glyph-name="Eacute" unicode="&#xc9;" horiz-adv-x="1359" 
d="M178 0v1430h1061v-211h-823v-392h807v-200h-807v-416h823v-211h-1061zM545 1507l305 299h246l-383 -299h-168z" />
    <glyph glyph-name="Ecircumflex" unicode="&#xca;" horiz-adv-x="1359" 
d="M178 0v1430h1061v-211h-823v-392h807v-200h-807v-416h823v-211h-1061zM319 1501l302 334h200l301 -334h-176l-225 223l-225 -223h-177z" />
    <glyph glyph-name="Edieresis" unicode="&#xcb;" horiz-adv-x="1359" 
d="M178 0v1430h1061v-211h-823v-392h807v-200h-807v-416h823v-211h-1061zM293 1642q0 64 38.5 98t112.5 34q73 0 112.5 -34t39.5 -98q0 -63 -39.5 -96t-112.5 -33q-74 0 -112.5 33t-38.5 96zM856 1642q0 64 39 98t113 34q72 0 111.5 -34t39.5 -98q0 -63 -39.5 -96
t-111.5 -33q-74 0 -113 33t-39 96z" />
    <glyph glyph-name="Igrave" unicode="&#xcc;" horiz-adv-x="593" 
d="M-70 1808h246l307 -301h-168zM178 0v1430h238v-1430h-238z" />
    <glyph glyph-name="Iacute" unicode="&#xcd;" horiz-adv-x="593" 
d="M115 1507l305 299h246l-383 -299h-168zM178 0v1430h238v-1430h-238z" />
    <glyph glyph-name="Icircumflex" unicode="&#xce;" horiz-adv-x="593" 
d="M-111 1501l301 334h201l301 -334h-176l-225 223l-225 -223h-177zM178 0v1430h238v-1430h-238z" />
    <glyph glyph-name="Idieresis" unicode="&#xcf;" horiz-adv-x="593" 
d="M-137 1642q0 64 38.5 98t112.5 34q73 0 112.5 -34t39.5 -98q0 -63 -39.5 -96t-112.5 -33q-74 0 -112.5 33t-38.5 96zM178 0v1430h238v-1430h-238zM426 1642q0 64 39 98t113 34q72 0 111.5 -34t39.5 -98q0 -63 -39.5 -96t-111.5 -33q-74 0 -113 33t-39 96z" />
    <glyph glyph-name="Eth" unicode="&#xd0;" horiz-adv-x="1693" 
d="M41 625v166h137v639h629q208 0 355 -38t248.5 -122.5t149.5 -221t48 -333.5q0 -373 -192.5 -544t-606.5 -171h-631v625h-137zM416 199h395q295 0 423 121.5t128 394.5q0 276 -127.5 396t-423.5 120h-395v-440h639v-166h-639v-426z" />
    <glyph glyph-name="Ntilde" unicode="&#xd1;" horiz-adv-x="1607" 
d="M178 0v1430h449q239 -599 381 -943q42 -101 141 -354h47l8 1297h226v-1430h-457q-58 142 -186 459t-197 485q-27 66 -77 194.5t-62 157.5h-48v-1296h-225zM410 1501q-3 121 60 189.5t189 68.5q68 0 115 -15.5t83 -30.5t77 -15q46 0 69.5 26t26.5 86h148q3 -124 -60 -193
t-194 -69q-63 0 -110.5 15t-83.5 30t-71 15q-53 0 -75 -27t-25 -80h-149z" />
    <glyph glyph-name="Ograve" unicode="&#xd2;" horiz-adv-x="1804" 
d="M86 711q0 382 207.5 561.5t607.5 179.5q403 0 610 -179t207 -562t-207 -561.5t-610 -178.5q-401 0 -608 179t-207 561zM340 711q0 -130 27.5 -224.5t90.5 -165.5t173.5 -106t269.5 -35q162 0 273 35t174 106t89.5 165t26.5 225q0 132 -26.5 226t-89.5 165t-174 106
t-273 35q-159 0 -269.5 -35t-173.5 -106t-90.5 -165.5t-27.5 -225.5zM537 1831h245l308 -301h-168z" />
    <glyph glyph-name="Oacute" unicode="&#xd3;" horiz-adv-x="1804" 
d="M86 711q0 382 207.5 561.5t607.5 179.5q403 0 610 -179t207 -562t-207 -561.5t-610 -178.5q-401 0 -608 179t-207 561zM340 711q0 -130 27.5 -224.5t90.5 -165.5t173.5 -106t269.5 -35q162 0 273 35t174 106t89.5 165t26.5 225q0 132 -26.5 226t-89.5 165t-174 106
t-273 35q-159 0 -269.5 -35t-173.5 -106t-90.5 -165.5t-27.5 -225.5zM721 1530l305 299h246l-383 -299h-168z" />
    <glyph glyph-name="Ocircumflex" unicode="&#xd4;" horiz-adv-x="1804" 
d="M86 711q0 382 207.5 561.5t607.5 179.5q403 0 610 -179t207 -562t-207 -561.5t-610 -178.5q-401 0 -608 179t-207 561zM340 711q0 -130 27.5 -224.5t90.5 -165.5t173.5 -106t269.5 -35q162 0 273 35t174 106t89.5 165t26.5 225q0 132 -26.5 226t-89.5 165t-174 106
t-273 35q-159 0 -269.5 -35t-173.5 -106t-90.5 -165.5t-27.5 -225.5zM496 1524l301 334h200l301 -334h-176l-225 223l-225 -223h-176z" />
    <glyph glyph-name="Otilde" unicode="&#xd5;" horiz-adv-x="1804" 
d="M86 711q0 382 207.5 561.5t607.5 179.5q403 0 610 -179t207 -562t-207 -561.5t-610 -178.5q-401 0 -608 179t-207 561zM340 711q0 -130 27.5 -224.5t90.5 -165.5t173.5 -106t269.5 -35q162 0 273 35t174 106t89.5 165t26.5 225q0 132 -26.5 226t-89.5 165t-174 106
t-273 35q-159 0 -269.5 -35t-173.5 -106t-90.5 -165.5t-27.5 -225.5zM496 1524q-3 121 60 189.5t189 68.5q68 0 115 -15.5t83 -31t77 -15.5q46 0 69.5 26.5t26.5 86.5h148q3 -124 -60 -193t-194 -69q-63 0 -110.5 14.5t-83.5 29.5t-71 15q-53 0 -75 -26.5t-25 -79.5h-149z
" />
    <glyph glyph-name="Odieresis" unicode="&#xd6;" horiz-adv-x="1804" 
d="M86 711q0 382 207.5 561.5t607.5 179.5q403 0 610 -179t207 -562t-207 -561.5t-610 -178.5q-401 0 -608 179t-207 561zM340 711q0 -130 27.5 -224.5t90.5 -165.5t173.5 -106t269.5 -35q162 0 273 35t174 106t89.5 165t26.5 225q0 132 -26.5 226t-89.5 165t-174 106
t-273 35q-159 0 -269.5 -35t-173.5 -106t-90.5 -165.5t-27.5 -225.5zM469 1665q0 64 39 97.5t113 33.5q73 0 112 -33.5t39 -97.5q0 -63 -39.5 -96t-111.5 -33q-74 0 -113 33t-39 96zM1032 1665q0 64 39 97.5t113 33.5q73 0 112 -33.5t39 -97.5q0 -63 -39.5 -96t-111.5 -33
q-74 0 -113 33t-39 96z" />
    <glyph glyph-name="multiply" unicode="&#xd7;" 
d="M258 426l231 229l-231 230l127 127l231 -230l230 230l127 -127l-232 -230l232 -229l-127 -125l-230 229l-231 -229z" />
    <glyph glyph-name="Oslash" unicode="&#xd8;" horiz-adv-x="1804" 
d="M86 711q0 382 207.5 561.5t607.5 179.5q285 0 471 -88l68 82h194l-133 -164q217 -183 217 -571q0 -383 -207 -561.5t-610 -178.5q-248 0 -420 66l-75 -92h-195l135 164q-260 179 -260 602zM340 711q0 -299 154 -422l733 899q-119 55 -326 55q-159 0 -269.5 -35
t-173.5 -106t-90.5 -165.5t-27.5 -225.5zM629 217q110 -37 272 -37t273 35t174 106t89.5 165t26.5 225q0 263 -112 389z" />
    <glyph glyph-name="Ugrave" unicode="&#xd9;" horiz-adv-x="1597" 
d="M158 553v877h237v-857q0 -101 18 -172.5t62.5 -127.5t126 -83.5t201.5 -27.5q97 0 168 19t115.5 52.5t71 87t36.5 114.5t10 143v852h236v-877q0 -310 -157 -448t-484 -138q-330 0 -485.5 138.5t-155.5 447.5zM434 1808h246l307 -301h-168z" />
    <glyph glyph-name="Uacute" unicode="&#xda;" horiz-adv-x="1597" 
d="M158 553v877h237v-857q0 -101 18 -172.5t62.5 -127.5t126 -83.5t201.5 -27.5q97 0 168 19t115.5 52.5t71 87t36.5 114.5t10 143v852h236v-877q0 -310 -157 -448t-484 -138q-330 0 -485.5 138.5t-155.5 447.5zM618 1507l306 299h245l-383 -299h-168z" />
    <glyph glyph-name="Ucircumflex" unicode="&#xdb;" horiz-adv-x="1597" 
d="M158 553v877h237v-857q0 -101 18 -172.5t62.5 -127.5t126 -83.5t201.5 -27.5q97 0 168 19t115.5 52.5t71 87t36.5 114.5t10 143v852h236v-877q0 -310 -157 -448t-484 -138q-330 0 -485.5 138.5t-155.5 447.5zM395 1501l301 334h201l301 -334h-176l-225 223l-226 -223
h-176z" />
    <glyph glyph-name="Udieresis" unicode="&#xdc;" horiz-adv-x="1597" 
d="M158 553v877h237v-857q0 -101 18 -172.5t62.5 -127.5t126 -83.5t201.5 -27.5q97 0 168 19t115.5 52.5t71 87t36.5 114.5t10 143v852h236v-877q0 -310 -157 -448t-484 -138q-330 0 -485.5 138.5t-155.5 447.5zM369 1642q0 64 38.5 98t112.5 34q73 0 112.5 -34t39.5 -98
q0 -63 -39.5 -96t-112.5 -33q-74 0 -112.5 33t-38.5 96zM932 1642q0 64 38.5 98t112.5 34q73 0 112.5 -34t39.5 -98q0 -63 -39.5 -96t-112.5 -33q-74 0 -112.5 33t-38.5 96z" />
    <glyph glyph-name="Yacute" unicode="&#xdd;" horiz-adv-x="1347" 
d="M-8 1430h256q214 -331 411 -654h29q53 87 412 654h256l-565 -875v-555h-234v555zM494 1507l305 299h245l-382 -299h-168z" />
    <glyph glyph-name="Thorn" unicode="&#xde;" horiz-adv-x="1538" 
d="M178 0v1430h238v-187h561q508 0 508 -455q0 -245 -136.5 -349.5t-408.5 -104.5h-524v-334h-238zM416 532h545q156 0 219 64t63 192t-63 193.5t-219 65.5h-545v-515z" />
    <glyph glyph-name="germandbls" unicode="&#xdf;" horiz-adv-x="1447" 
d="M178 0v1042q0 252 144.5 369t461.5 117q549 0 549 -438q0 -258 -254 -330q143 -38 213 -124t70 -243q0 -206 -136.5 -311t-379.5 -105q-204 0 -352 52l47 186q140 -55 293 -55q307 0 307 243q0 129 -74.5 188.5t-251.5 59.5h-158v174h101q82 0 143.5 12.5t109.5 41
t72.5 79t24.5 121.5q0 137 -80.5 195.5t-251.5 58.5q-204 0 -288.5 -60t-84.5 -214v-1059h-225z" />
    <glyph glyph-name="agrave" unicode="&#xe0;" horiz-adv-x="1472" 
d="M113 336q0 85 30.5 149t79 101.5t120.5 60t143 30t159 7.5h432q-5 142 -86.5 205.5t-265.5 64.5q-153 3 -252.5 -43t-126.5 -129h-227q47 170 203.5 259t400.5 89q283 0 427 -110.5t144 -364.5v-655h-184l-23 184q-64 -106 -198.5 -164.5t-294.5 -58.5q-229 0 -355 94
t-126 281zM227 1542h269l333 -328h-182zM336 340q0 -207 293 -207q83 0 156 16t139.5 51t107 101t43.5 156v80h-366q-56 0 -94.5 -2t-85.5 -8t-78.5 -19.5t-59.5 -34.5t-41.5 -54.5t-13.5 -78.5z" />
    <glyph glyph-name="aacute" unicode="&#xe1;" horiz-adv-x="1472" 
d="M113 336q0 85 30.5 149t79 101.5t120.5 60t143 30t159 7.5h432q-5 142 -86.5 205.5t-265.5 64.5q-153 3 -252.5 -43t-126.5 -129h-227q47 170 203.5 259t400.5 89q283 0 427 -110.5t144 -364.5v-655h-184l-23 184q-64 -106 -198.5 -164.5t-294.5 -58.5q-229 0 -355 94
t-126 281zM336 340q0 -207 293 -207q83 0 156 16t139.5 51t107 101t43.5 156v80h-366q-56 0 -94.5 -2t-85.5 -8t-78.5 -19.5t-59.5 -34.5t-41.5 -54.5t-13.5 -78.5zM500 1214l336 328h268l-420 -328h-184z" />
    <glyph glyph-name="acircumflex" unicode="&#xe2;" horiz-adv-x="1472" 
d="M113 336q0 85 30.5 149t79 101.5t120.5 60t143 30t159 7.5h432q-5 142 -86.5 205.5t-265.5 64.5q-153 3 -252.5 -43t-126.5 -129h-227q47 170 203.5 259t400.5 89q283 0 427 -110.5t144 -364.5v-655h-184l-23 184q-64 -106 -198.5 -164.5t-294.5 -58.5q-229 0 -355 94
t-126 281zM322 1214l301 334h200l301 -334h-176l-225 224l-225 -224h-176zM336 340q0 -207 293 -207q83 0 156 16t139.5 51t107 101t43.5 156v80h-366q-56 0 -94.5 -2t-85.5 -8t-78.5 -19.5t-59.5 -34.5t-41.5 -54.5t-13.5 -78.5z" />
    <glyph glyph-name="atilde" unicode="&#xe3;" horiz-adv-x="1472" 
d="M113 336q0 85 30.5 149t79 101.5t120.5 60t143 30t159 7.5h432q-5 142 -86.5 205.5t-265.5 64.5q-153 3 -252.5 -43t-126.5 -129h-227q47 170 203.5 259t400.5 89q283 0 427 -110.5t144 -364.5v-655h-184l-23 184q-64 -106 -198.5 -164.5t-294.5 -58.5q-229 0 -355 94
t-126 281zM336 340q0 -207 293 -207q83 0 156 16t139.5 51t107 101t43.5 156v80h-366q-56 0 -94.5 -2t-85.5 -8t-78.5 -19.5t-59.5 -34.5t-41.5 -54.5t-13.5 -78.5zM338 1264q-3 121 60 188.5t190 67.5q68 0 115 -15.5t82.5 -31t76.5 -15.5q90 0 96 113h148
q3 -123 -60 -191.5t-194 -68.5q-63 0 -110 14.5t-83 29.5t-71 15q-53 0 -75.5 -27t-27.5 -79h-147z" />
    <glyph glyph-name="adieresis" unicode="&#xe4;" horiz-adv-x="1472" 
d="M113 336q0 85 30.5 149t79 101.5t120.5 60t143 30t159 7.5h432q-5 142 -86.5 205.5t-265.5 64.5q-153 3 -252.5 -43t-126.5 -129h-227q47 170 203.5 259t400.5 89q283 0 427 -110.5t144 -364.5v-655h-184l-23 184q-64 -106 -198.5 -164.5t-294.5 -58.5q-229 0 -355 94
t-126 281zM289 1368q0 68 39 103.5t112 35.5q72 0 112 -36t40 -103q0 -66 -40 -101.5t-112 -35.5q-73 0 -112 35.5t-39 101.5zM336 340q0 -207 293 -207q83 0 156 16t139.5 51t107 101t43.5 156v80h-366q-56 0 -94.5 -2t-85.5 -8t-78.5 -19.5t-59.5 -34.5t-41.5 -54.5
t-13.5 -78.5zM852 1368q0 67 39 103t113 36q72 0 111.5 -36t39.5 -103q0 -66 -39.5 -101.5t-111.5 -35.5q-73 0 -112.5 35.5t-39.5 101.5z" />
    <glyph glyph-name="aring" unicode="&#xe5;" horiz-adv-x="1472" 
d="M113 336q0 85 30.5 149t79 101.5t120.5 60t143 30t159 7.5h432q-5 142 -86.5 205.5t-265.5 64.5q-153 3 -252.5 -43t-126.5 -129h-227q47 170 203.5 259t400.5 89q283 0 427 -110.5t144 -364.5v-655h-184l-23 184q-64 -106 -198.5 -164.5t-294.5 -58.5q-229 0 -355 94
t-126 281zM336 340q0 -207 293 -207q83 0 156 16t139.5 51t107 101t43.5 156v80h-366q-56 0 -94.5 -2t-85.5 -8t-78.5 -19.5t-59.5 -34.5t-41.5 -54.5t-13.5 -78.5zM446 1452q0 240 277 240q137 0 204.5 -58.5t67.5 -181.5t-67.5 -181.5t-204.5 -58.5q-277 0 -277 240z
M580 1452q0 -67 31 -100t112 -33q79 0 111 33t32 100q0 68 -31.5 100.5t-111.5 32.5q-81 0 -112 -32.5t-31 -100.5z" />
    <glyph glyph-name="ae" unicode="&#xe6;" horiz-adv-x="2498" 
d="M113 338q0 77 29.5 134.5t77.5 92t120.5 56t147.5 29t169 7.5h418v27q-3 140 -86.5 203.5t-267.5 64.5q-151 3 -250 -44t-127 -130h-229q49 172 205.5 261t400.5 89q350 0 483 -188q164 197 533 197q669 0 669 -631h-1120q5 -356 463 -356q78 0 137 7t115.5 25t97.5 53.5
t66 88.5h223q-42 -180 -210 -269.5t-441 -89.5q-434 0 -584 271q-56 -121 -210 -197t-349 -76q-227 0 -354 94.5t-127 280.5zM334 340q0 -207 293 -207q81 0 156 18t142 54.5t107.5 102.5t40.5 153v51h-371q-54 0 -81 -0.5t-73 -3.5t-70.5 -9.5t-56.5 -19t-48 -30.5
t-27.5 -45.5t-11.5 -63.5zM1292 657h883q-23 154 -135 232t-305 78q-200 0 -310 -74t-133 -236z" />
    <glyph glyph-name="ccedilla" unicode="&#xe7;" horiz-adv-x="1533" 
d="M100 551q0 303 170.5 447.5t503.5 144.5q296 0 463 -111t205 -342h-234q-29 134 -134 198t-300 64q-238 0 -342 -97.5t-104 -303.5q0 -204 104 -301.5t342 -97.5q195 0 300 64t134 198h234q-36 -222 -189.5 -333t-425.5 -120l-30 -53q12 2 37 2q104 0 151 -42.5
t47 -141.5q0 -224 -291 -224q-127 0 -204 31v121q93 -25 200 -25q73 0 104 21t31 76q0 44 -24.5 64t-89.5 20q-48 0 -133 -3l75 156q-297 15 -448.5 159.5t-151.5 428.5z" />
    <glyph glyph-name="egrave" unicode="&#xe8;" horiz-adv-x="1523" 
d="M100 551q0 293 174.5 439.5t495.5 146.5q336 0 500.5 -158t161.5 -487h-1104q6 -181 119.5 -261.5t326.5 -80.5q173 0 276 37.5t146 136.5h221q-38 -176 -203.5 -267.5t-443.5 -91.5q-161 0 -282 32t-209 101t-133.5 182.5t-45.5 270.5zM276 1542h269l334 -328h-183z
M330 643h872q-21 170 -128.5 247t-305.5 77q-205 0 -313 -77.5t-125 -246.5z" />
    <glyph glyph-name="eacute" unicode="&#xe9;" horiz-adv-x="1523" 
d="M100 551q0 293 174.5 439.5t495.5 146.5q336 0 500.5 -158t161.5 -487h-1104q6 -181 119.5 -261.5t326.5 -80.5q173 0 276 37.5t146 136.5h221q-38 -176 -203.5 -267.5t-443.5 -91.5q-161 0 -282 32t-209 101t-133.5 182.5t-45.5 270.5zM330 643h872q-21 170 -128.5 247
t-305.5 77q-205 0 -313 -77.5t-125 -246.5zM551 1214l336 328h268l-420 -328h-184z" />
    <glyph glyph-name="ecircumflex" unicode="&#xea;" horiz-adv-x="1523" 
d="M100 551q0 293 174.5 439.5t495.5 146.5q336 0 500.5 -158t161.5 -487h-1104q6 -181 119.5 -261.5t326.5 -80.5q173 0 276 37.5t146 136.5h221q-38 -176 -203.5 -267.5t-443.5 -91.5q-161 0 -282 32t-209 101t-133.5 182.5t-45.5 270.5zM330 643h872q-21 170 -128.5 247
t-305.5 77q-205 0 -313 -77.5t-125 -246.5zM373 1214l301 334h200l302 -334h-177l-225 224l-225 -224h-176z" />
    <glyph glyph-name="edieresis" unicode="&#xeb;" horiz-adv-x="1523" 
d="M100 551q0 293 174.5 439.5t495.5 146.5q336 0 500.5 -158t161.5 -487h-1104q6 -181 119.5 -261.5t326.5 -80.5q173 0 276 37.5t146 136.5h221q-38 -176 -203.5 -267.5t-443.5 -91.5q-161 0 -282 32t-209 101t-133.5 182.5t-45.5 270.5zM330 643h872q-21 170 -128.5 247
t-305.5 77q-205 0 -313 -77.5t-125 -246.5zM340 1368q0 67 39 103t113 36q72 0 111.5 -36t39.5 -103q0 -66 -39.5 -101.5t-111.5 -35.5q-73 0 -112.5 35.5t-39.5 101.5zM903 1368q0 67 39 103t113 36q72 0 111.5 -36t39.5 -103q0 -66 -39.5 -101.5t-111.5 -35.5
q-73 0 -112.5 35.5t-39.5 101.5z" />
    <glyph glyph-name="igrave" unicode="&#xec;" horiz-adv-x="581" 
d="M-205 1542h268l334 -328h-182zM178 0v1085h225v-1085h-225z" />
    <glyph glyph-name="iacute" unicode="&#xed;" horiz-adv-x="581" 
d="M68 1214l335 328h269l-420 -328h-184zM178 0v1085h225v-1085h-225z" />
    <glyph glyph-name="icircumflex" unicode="&#xee;" horiz-adv-x="581" 
d="M-111 1214l301 334h201l301 -334h-176l-225 224l-225 -224h-177zM178 0v1085h225v-1085h-225z" />
    <glyph glyph-name="idieresis" unicode="&#xef;" horiz-adv-x="581" 
d="M-92 1354q0 68 39 103.5t112 35.5q72 0 112 -36t40 -103q0 -66 -40 -101.5t-112 -35.5q-73 0 -112 35.5t-39 101.5zM178 0v1085h225v-1085h-225zM371 1354q0 67 39.5 103t113.5 36q72 0 111 -36t39 -103q0 -66 -39 -101.5t-111 -35.5q-74 0 -113.5 35.5t-39.5 101.5z" />
    <glyph glyph-name="eth" unicode="&#xf0;" horiz-adv-x="1540" 
d="M100 555q0 285 167.5 423t461.5 138q161 0 260.5 -43.5t175.5 -154.5l17 10q-79 139 -320 327l-579 -55v143l403 39q-109 74 -209 134h324l149 -107l371 35v-144l-213 -20q75 -67 131.5 -135.5t103.5 -154t72 -190t25 -222.5q0 -106 -21.5 -194t-58.5 -150.5t-90 -110.5
t-111 -78t-126.5 -49t-132 -26t-132.5 -7q-60 0 -101.5 1.5t-117.5 13.5t-129.5 33t-118.5 65t-105 105t-68 157t-28 217zM328 553q0 -219 111 -310t329 -91q221 0 333.5 101t112.5 300q0 184 -114 285.5t-332 101.5q-104 0 -180.5 -18t-137 -60.5t-91.5 -120t-31 -188.5z
" />
    <glyph glyph-name="ntilde" unicode="&#xf1;" horiz-adv-x="1550" 
d="M178 0v1085h209l4 -139q133 184 465 184q256 0 386 -116.5t130 -372.5v-641h-225v598q0 182 -87 261t-276 79q-193 0 -287 -83t-94 -261v-594h-225zM397 1264q-3 121 60 188.5t190 67.5q68 0 115 -15.5t83 -31t77 -15.5q90 0 96 113h147q3 -123 -60 -191.5t-194 -68.5
q-63 0 -110 14.5t-83 29.5t-71 15q-53 0 -75 -26.5t-27 -79.5h-148z" />
    <glyph glyph-name="ograve" unicode="&#xf2;" horiz-adv-x="1548" 
d="M100 551q0 303 170 446.5t504 143.5q337 0 506.5 -143.5t169.5 -446.5q0 -301 -171 -445.5t-505 -144.5t-504 144.5t-170 445.5zM276 1542h269l334 -328h-183zM328 551q0 -204 104 -301.5t342 -97.5t342.5 97.5t104.5 301.5q0 205 -104 302t-343 97q-238 0 -342 -97
t-104 -302z" />
    <glyph glyph-name="oacute" unicode="&#xf3;" horiz-adv-x="1548" 
d="M100 551q0 303 170 446.5t504 143.5q337 0 506.5 -143.5t169.5 -446.5q0 -301 -171 -445.5t-505 -144.5t-504 144.5t-170 445.5zM328 551q0 -204 104 -301.5t342 -97.5t342.5 97.5t104.5 301.5q0 205 -104 302t-343 97q-238 0 -342 -97t-104 -302zM549 1214l336 328h268
l-420 -328h-184z" />
    <glyph glyph-name="ocircumflex" unicode="&#xf4;" horiz-adv-x="1548" 
d="M100 551q0 303 170 446.5t504 143.5q337 0 506.5 -143.5t169.5 -446.5q0 -301 -171 -445.5t-505 -144.5t-504 144.5t-170 445.5zM328 551q0 -204 104 -301.5t342 -97.5t342.5 97.5t104.5 301.5q0 205 -104 302t-343 97q-238 0 -342 -97t-104 -302zM371 1214l301 334h200
l302 -334h-177l-225 224l-225 -224h-176z" />
    <glyph glyph-name="otilde" unicode="&#xf5;" horiz-adv-x="1548" 
d="M100 551q0 303 170 446.5t504 143.5q337 0 506.5 -143.5t169.5 -446.5q0 -301 -171 -445.5t-505 -144.5t-504 144.5t-170 445.5zM328 551q0 -204 104 -301.5t342 -97.5t342.5 97.5t104.5 301.5q0 205 -104 302t-343 97q-238 0 -342 -97t-104 -302zM389 1264
q-3 121 60 188.5t190 67.5q68 0 115 -15.5t82.5 -31t76.5 -15.5q91 0 97 113h147q3 -123 -60 -191.5t-194 -68.5q-63 0 -110 14.5t-83 29.5t-71 15q-53 0 -75 -26.5t-27 -79.5h-148z" />
    <glyph glyph-name="odieresis" unicode="&#xf6;" horiz-adv-x="1548" 
d="M100 551q0 303 170 446.5t504 143.5q337 0 506.5 -143.5t169.5 -446.5q0 -301 -171 -445.5t-505 -144.5t-504 144.5t-170 445.5zM328 551q0 -204 104 -301.5t342 -97.5t342.5 97.5t104.5 301.5q0 205 -104 302t-343 97q-238 0 -342 -97t-104 -302zM340 1368q0 67 39 103
t113 36q72 0 111.5 -36t39.5 -103q0 -66 -39.5 -101.5t-111.5 -35.5q-73 0 -112.5 35.5t-39.5 101.5zM903 1368q0 67 39 103t113 36q72 0 111.5 -36t39.5 -103q0 -66 -39.5 -101.5t-111.5 -35.5q-73 0 -112.5 35.5t-39.5 101.5z" />
    <glyph glyph-name="divide" unicode="&#xf7;" 
d="M170 569v179h889v-179h-889zM463 264q0 127 153 127q152 0 152 -127q0 -133 -152 -133q-153 0 -153 133zM463 1057q0 129 153 129q73 0 112.5 -32.5t39.5 -96.5q0 -131 -152 -131q-153 0 -153 131z" />
    <glyph glyph-name="oslash" unicode="&#xf8;" horiz-adv-x="1581" 
d="M100 551q0 303 170 446.5t504 143.5q234 0 381 -66l53 64h185l-115 -140q172 -144 172 -448q0 -301 -171 -445.5t-505 -144.5q-185 0 -315 43l-49 -59h-185l99 121q-224 143 -224 485zM328 551q0 -230 131 -324l563 684q-95 39 -248 39q-238 0 -342 -97t-104 -302z
M594 170q76 -18 180 -18q238 0 342.5 97.5t104.5 301.5q0 183 -82 278z" />
    <glyph glyph-name="ugrave" unicode="&#xf9;" horiz-adv-x="1542" 
d="M178 465v618h223v-591q0 -180 89 -260t272 -80q374 0 377 329v602h225v-1083h-203l-6 164q-137 -211 -463 -211q-119 0 -209 25t-160.5 82t-107.5 159t-37 246zM276 1542h269l334 -328h-183z" />
    <glyph glyph-name="uacute" unicode="&#xfa;" horiz-adv-x="1542" 
d="M178 465v618h223v-591q0 -180 89 -260t272 -80q374 0 377 329v602h225v-1083h-203l-6 164q-137 -211 -463 -211q-119 0 -209 25t-160.5 82t-107.5 159t-37 246zM549 1214l336 328h268l-420 -328h-184z" />
    <glyph glyph-name="ucircumflex" unicode="&#xfb;" horiz-adv-x="1542" 
d="M178 465v618h223v-591q0 -180 89 -260t272 -80q374 0 377 329v602h225v-1083h-203l-6 164q-137 -211 -463 -211q-119 0 -209 25t-160.5 82t-107.5 159t-37 246zM371 1214l301 334h200l302 -334h-177l-225 224l-225 -224h-176z" />
    <glyph glyph-name="udieresis" unicode="&#xfc;" horiz-adv-x="1542" 
d="M178 465v618h223v-591q0 -180 89 -260t272 -80q374 0 377 329v602h225v-1083h-203l-6 164q-137 -211 -463 -211q-119 0 -209 25t-160.5 82t-107.5 159t-37 246zM340 1368q0 67 39 103t113 36q72 0 111.5 -36t39.5 -103q0 -66 -39.5 -101.5t-111.5 -35.5
q-73 0 -112.5 35.5t-39.5 101.5zM903 1368q0 67 39 103t113 36q72 0 111.5 -36t39.5 -103q0 -66 -39.5 -101.5t-111.5 -35.5q-73 0 -112.5 35.5t-39.5 101.5z" />
    <glyph glyph-name="yacute" unicode="&#xfd;" horiz-adv-x="1357" 
d="M35 1085h260q61 -144 124 -298.5t140.5 -347.5t112.5 -279h84l360 925h252l-414 -1005q-46 -114 -77 -181.5t-69.5 -127t-70.5 -87.5t-83.5 -49t-106.5 -26.5t-141 -5.5h-187v190h180q100 0 154 19.5t82.5 59.5t60.5 128h-188zM461 1214l336 328h268l-420 -328h-184z" />
    <glyph glyph-name="thorn" unicode="&#xfe;" horiz-adv-x="1574" 
d="M182 -410v1946h226v-561q163 166 456 166q312 0 461.5 -149t149.5 -441t-149.5 -440t-461.5 -148q-295 0 -456 154v-527h-226zM387 551q0 -189 117 -294t311 -105q222 0 327 94.5t105 304.5q0 211 -105 305t-327 94q-194 0 -311 -105t-117 -294z" />
    <glyph glyph-name="ydieresis" unicode="&#xff;" horiz-adv-x="1357" 
d="M35 1085h260q61 -144 124 -298.5t140.5 -347.5t112.5 -279h84l360 925h252l-414 -1005q-46 -114 -77 -181.5t-69.5 -127t-70.5 -87.5t-83.5 -49t-106.5 -26.5t-141 -5.5h-187v190h180q100 0 154 19.5t82.5 59.5t60.5 128h-188zM252 1368q0 68 39 103.5t112 35.5
q72 0 112 -36t40 -103q0 -66 -40 -101.5t-112 -35.5q-73 0 -112 35.5t-39 101.5zM815 1368q0 67 39 103t113 36q72 0 111.5 -36t39.5 -103q0 -66 -39.5 -101.5t-111.5 -35.5q-73 0 -112.5 35.5t-39.5 101.5z" />
    <glyph glyph-name="Amacron" unicode="&#x100;" horiz-adv-x="1513" 
d="M12 0l533 1430h424l532 -1430h-256l-112 315h-752l-113 -315h-256zM412 1563v155h688v-155h-688zM451 508h614l-129 362q-104 289 -145 420h-68q-8 -27 -143 -420z" />
    <glyph glyph-name="amacron" unicode="&#x101;" horiz-adv-x="1472" 
d="M113 336q0 85 30.5 149t79 101.5t120.5 60t143 30t159 7.5h432q-5 142 -86.5 205.5t-265.5 64.5q-153 3 -252.5 -43t-126.5 -129h-227q47 170 203.5 259t400.5 89q283 0 427 -110.5t144 -364.5v-655h-184l-23 184q-64 -106 -198.5 -164.5t-294.5 -58.5q-229 0 -355 94
t-126 281zM336 340q0 -207 293 -207q83 0 156 16t139.5 51t107 101t43.5 156v80h-366q-56 0 -94.5 -2t-85.5 -8t-78.5 -19.5t-59.5 -34.5t-41.5 -54.5t-13.5 -78.5zM379 1251v148h690v-148h-690z" />
    <glyph glyph-name="Abreve" unicode="&#x102;" horiz-adv-x="1513" 
d="M12 0l533 1430h424l532 -1430h-256l-112 315h-752l-113 -315h-256zM418 1796h155q0 -80 42.5 -115.5t132.5 -35.5q89 0 131.5 35.5t42.5 115.5h157q-2 -65 -18 -114t-52 -89.5t-101.5 -62t-159.5 -21.5t-159.5 21.5t-102 62t-52 89.5t-16.5 114zM451 508h614l-129 362
q-104 289 -145 420h-68q-8 -27 -143 -420z" />
    <glyph glyph-name="abreve" unicode="&#x103;" horiz-adv-x="1472" 
d="M113 336q0 85 30.5 149t79 101.5t120.5 60t143 30t159 7.5h432q-5 142 -86.5 205.5t-265.5 64.5q-153 3 -252.5 -43t-126.5 -129h-227q47 170 203.5 259t400.5 89q283 0 427 -110.5t144 -364.5v-655h-184l-23 184q-64 -106 -198.5 -164.5t-294.5 -58.5q-229 0 -355 94
t-126 281zM336 340q0 -207 293 -207q83 0 156 16t139.5 51t107 101t43.5 156v80h-366q-56 0 -94.5 -2t-85.5 -8t-78.5 -19.5t-59.5 -34.5t-41.5 -54.5t-13.5 -78.5zM383 1499h166q0 -79 42 -116t132 -37q89 0 130.5 37t41.5 116h166q-1 -66 -17.5 -116t-54 -89t-104.5 -59.5
t-162 -20.5q-184 0 -260.5 74t-79.5 211z" />
    <glyph glyph-name="Aogonek" unicode="&#x104;" horiz-adv-x="1513" 
d="M12 0l533 1430h424l532 -1430q-112 -41 -172.5 -92t-60.5 -121q0 -66 29 -92.5t104 -26.5q78 0 190 23v-137q-105 -27 -233 -27q-148 0 -208 48t-60 163q0 172 245 262h-90l-112 315h-752l-113 -315h-256zM451 508h614l-129 362q-104 289 -145 420h-68q-8 -27 -143 -420z
" />
    <glyph glyph-name="aogonek" unicode="&#x105;" horiz-adv-x="1472" 
d="M113 336q0 85 30.5 149t79 101.5t120.5 60t143 30t159 7.5h432q-5 142 -86.5 205.5t-265.5 64.5q-153 3 -252.5 -43t-126.5 -129h-227q47 170 203.5 259t400.5 89q283 0 427 -110.5t144 -364.5v-655q-112 -41 -172.5 -92t-60.5 -121q0 -66 29 -92.5t104 -26.5
q78 0 190 23v-137q-105 -27 -233 -27q-148 0 -208 48t-60 163q0 172 245 262h-18l-23 184q-64 -106 -198.5 -164.5t-294.5 -58.5q-229 0 -355 94t-126 281zM336 340q0 -207 293 -207q83 0 156 16t139.5 51t107 101t43.5 156v80h-366q-56 0 -94.5 -2t-85.5 -8t-78.5 -19.5
t-59.5 -34.5t-41.5 -54.5t-13.5 -78.5z" />
    <glyph glyph-name="Cacute" unicode="&#x106;" horiz-adv-x="1789" 
d="M86 711q0 741 813 741q168 0 303.5 -31.5t241 -96t171.5 -168.5t87 -243h-254q-39 174 -172 251t-377 77q-159 0 -268.5 -35t-172.5 -105.5t-90.5 -165t-27.5 -224.5q0 -131 27.5 -226t90.5 -166t172.5 -106t268.5 -35q243 0 378 79.5t171 252.5h254q-20 -140 -86 -244.5
t-171 -169t-241 -96t-305 -31.5q-813 0 -813 742zM717 1513l305 299h246l-383 -299h-168z" />
    <glyph glyph-name="cacute" unicode="&#x107;" horiz-adv-x="1533" 
d="M100 551q0 303 170.5 447.5t503.5 144.5q296 0 463 -111t205 -342h-234q-29 134 -134 198t-300 64q-238 0 -342 -97.5t-104 -303.5q0 -204 104 -301.5t342 -97.5q195 0 300 64t134 198h234q-38 -232 -204.5 -342.5t-463.5 -110.5q-674 0 -674 590zM551 1214l336 328h268
l-420 -328h-184z" />
    <glyph glyph-name="Cdotaccent" unicode="&#x10a;" horiz-adv-x="1789" 
d="M86 711q0 741 813 741q168 0 303.5 -31.5t241 -96t171.5 -168.5t87 -243h-254q-39 174 -172 251t-377 77q-159 0 -268.5 -35t-172.5 -105.5t-90.5 -165t-27.5 -224.5q0 -131 27.5 -226t90.5 -166t172.5 -106t268.5 -35q243 0 378 79.5t171 252.5h254q-20 -140 -86 -244.5
t-171 -169t-241 -96t-305 -31.5q-813 0 -813 742zM750 1638q0 61 38.5 94t110.5 33t111 -33t39 -94q0 -63 -39 -96t-111 -33t-110.5 33t-38.5 96z" />
    <glyph glyph-name="cdotaccent" unicode="&#x10b;" horiz-adv-x="1533" 
d="M100 551q0 303 170.5 447.5t503.5 144.5q296 0 463 -111t205 -342h-234q-29 134 -134 198t-300 64q-238 0 -342 -97.5t-104 -303.5q0 -204 104 -301.5t342 -97.5q195 0 300 64t134 198h234q-38 -232 -204.5 -342.5t-463.5 -110.5q-674 0 -674 590zM625 1354
q0 66 38.5 101.5t110.5 35.5t111 -35.5t39 -101.5q0 -67 -39 -103.5t-111 -36.5t-110.5 36t-38.5 104z" />
    <glyph glyph-name="Ccaron" unicode="&#x10c;" horiz-adv-x="1789" 
d="M86 711q0 741 813 741q168 0 303.5 -31.5t241 -96t171.5 -168.5t87 -243h-254q-39 174 -172 251t-377 77q-159 0 -268.5 -35t-172.5 -105.5t-90.5 -165t-27.5 -224.5q0 -131 27.5 -226t90.5 -166t172.5 -106t268.5 -35q243 0 378 79.5t171 252.5h254q-20 -140 -86 -244.5
t-171 -169t-241 -96t-305 -31.5q-813 0 -813 742zM504 1837h176l225 -217l225 217h177l-301 -319h-201z" />
    <glyph glyph-name="ccaron" unicode="&#x10d;" horiz-adv-x="1533" 
d="M100 551q0 303 170.5 447.5t503.5 144.5q296 0 463 -111t205 -342h-234q-29 134 -134 198t-300 64q-238 0 -342 -97.5t-104 -303.5q0 -204 104 -301.5t342 -97.5q195 0 300 64t134 198h234q-38 -232 -204.5 -342.5t-463.5 -110.5q-674 0 -674 590zM373 1550h176l225 -225
l225 225h177l-302 -336h-200z" />
    <glyph glyph-name="Dcaron" unicode="&#x10e;" horiz-adv-x="1693" 
d="M178 0v1430h629q208 0 355 -38t248.5 -122.5t149.5 -221t48 -333.5q0 -373 -192.5 -544t-606.5 -171h-631zM381 1827h176l225 -217l226 217h176l-301 -320h-201zM416 199h395q295 0 423 121.5t128 394.5q0 276 -127.5 396t-423.5 120h-395v-1032z" />
    <glyph glyph-name="dcaron" unicode="&#x10f;" horiz-adv-x="1955" 
d="M100 553q0 285 158 436.5t449 151.5q326 0 473 -172v547h225v-1516h-205l-4 158q-147 -197 -489 -197q-294 0 -450.5 152t-156.5 440zM330 551q0 -116 29.5 -195.5t88 -123.5t132.5 -62t176 -18q209 0 318.5 107.5t109.5 295.5v14v6q-6 177 -115.5 276t-312.5 99
q-102 0 -176 -18t-132.5 -62t-88 -123.5t-29.5 -195.5zM1548 989q146 152 193 244q9 24 -4 24q-68 0 -106 30.5t-38 90.5q0 62 41 94.5t115 32.5q83 0 124.5 -40.5t41.5 -127.5q0 -163 -209 -348h-158z" />
    <glyph glyph-name="Dcroat" unicode="&#x110;" horiz-adv-x="1693" 
d="M41 625v166h137v639h629q208 0 355 -38t248.5 -122.5t149.5 -221t48 -333.5q0 -373 -192.5 -544t-606.5 -171h-631v625h-137zM416 199h395q295 0 423 121.5t128 394.5q0 276 -127.5 396t-423.5 120h-395v-440h639v-166h-639v-426z" />
    <glyph glyph-name="dcroat" unicode="&#x111;" horiz-adv-x="1587" 
d="M100 553q0 285 158 436.5t449 151.5q326 0 473 -172v305h-723v147h723v95h225v-95h154v-147h-154v-1274h-205l-4 158q-147 -197 -489 -197q-294 0 -450.5 152t-156.5 440zM330 551q0 -116 29.5 -195.5t88 -123.5t132.5 -62t176 -18q209 0 318.5 107.5t109.5 295.5v14v6
q-6 177 -115.5 276t-312.5 99q-102 0 -176 -18t-132.5 -62t-88 -123.5t-29.5 -195.5z" />
    <glyph glyph-name="Emacron" unicode="&#x112;" horiz-adv-x="1359" 
d="M178 0v1430h1061v-211h-823v-392h807v-200h-807v-416h823v-211h-1061zM383 1563v155h688v-155h-688z" />
    <glyph glyph-name="emacron" unicode="&#x113;" horiz-adv-x="1523" 
d="M100 551q0 293 174.5 439.5t495.5 146.5q336 0 500.5 -158t161.5 -487h-1104q6 -181 119.5 -261.5t326.5 -80.5q173 0 276 37.5t146 136.5h221q-38 -176 -203.5 -267.5t-443.5 -91.5q-161 0 -282 32t-209 101t-133.5 182.5t-45.5 270.5zM330 643h872q-21 170 -128.5 247
t-305.5 77q-205 0 -313 -77.5t-125 -246.5zM430 1251v148h690v-148h-690z" />
    <glyph glyph-name="Edotaccent" unicode="&#x116;" horiz-adv-x="1359" 
d="M178 0v1430h1061v-211h-823v-392h807v-200h-807v-416h823v-211h-1061zM578 1632q0 61 38.5 94t110.5 33t111 -33t39 -94q0 -63 -39 -96t-111 -33t-110.5 33t-38.5 96z" />
    <glyph glyph-name="edotaccent" unicode="&#x117;" horiz-adv-x="1523" 
d="M100 551q0 293 174.5 439.5t495.5 146.5q336 0 500.5 -158t161.5 -487h-1104q6 -181 119.5 -261.5t326.5 -80.5q173 0 276 37.5t146 136.5h221q-38 -176 -203.5 -267.5t-443.5 -91.5q-161 0 -282 32t-209 101t-133.5 182.5t-45.5 270.5zM330 643h872q-21 170 -128.5 247
t-305.5 77q-205 0 -313 -77.5t-125 -246.5zM623 1354q0 66 38.5 101.5t110.5 35.5t111 -35.5t39 -101.5q0 -67 -39 -103.5t-111 -36.5t-110.5 36t-38.5 104z" />
    <glyph glyph-name="Eogonek" unicode="&#x118;" horiz-adv-x="1359" 
d="M178 0v1430h1061v-211h-823v-392h807v-200h-807v-416h823v-213q-112 -41 -172.5 -92t-60.5 -121q0 -66 29 -92.5t104 -26.5q78 0 190 23v-138q-101 -26 -233 -26q-148 0 -208.5 48t-60.5 163q0 174 252 264h-901z" />
    <glyph glyph-name="eogonek" unicode="&#x119;" horiz-adv-x="1523" 
d="M100 551q0 293 174.5 439.5t495.5 146.5q336 0 500.5 -158t161.5 -487h-1104q6 -181 119.5 -261.5t326.5 -80.5q173 0 276 37.5t146 136.5h221q-53 -238 -325 -318q-207 -81 -207 -203q0 -66 29 -92t104 -26q83 0 190 22v-137q-105 -27 -233 -27q-148 0 -208 48t-60 163
q0 131 139 213q-25 -2 -76 -2q-161 0 -282 32t-209 101t-133.5 182.5t-45.5 270.5zM330 643h872q-21 170 -128.5 247t-305.5 77q-205 0 -313 -77.5t-125 -246.5z" />
    <glyph glyph-name="Ecaron" unicode="&#x11a;" horiz-adv-x="1359" 
d="M178 0v1430h1061v-211h-823v-392h807v-200h-807v-416h823v-211h-1061zM332 1831h176l225 -217l225 217h177l-301 -320h-201z" />
    <glyph glyph-name="ecaron" unicode="&#x11b;" horiz-adv-x="1523" 
d="M100 551q0 293 174.5 439.5t495.5 146.5q336 0 500.5 -158t161.5 -487h-1104q6 -181 119.5 -261.5t326.5 -80.5q173 0 276 37.5t146 136.5h221q-38 -176 -203.5 -267.5t-443.5 -91.5q-161 0 -282 32t-209 101t-133.5 182.5t-45.5 270.5zM330 643h872q-21 170 -128.5 247
t-305.5 77q-205 0 -313 -77.5t-125 -246.5zM373 1550h176l225 -225l225 225h177l-302 -336h-200z" />
    <glyph glyph-name="Gbreve" unicode="&#x11e;" horiz-adv-x="1796" 
d="M86 707q0 371 207.5 555t611.5 184q686 0 795 -531h-256q-56 171 -181 246.5t-358 75.5q-289 0 -426 -133.5t-137 -396.5q0 -261 137 -393t426 -132q249 0 390 94t169 279h-575l59 162h760q0 -9 1 -26t1 -23q0 -58 -6 -112.5t-27 -127t-55 -134t-95.5 -123.5t-143.5 -105
t-205 -70t-273 -27q-819 0 -819 738zM557 1796h156q0 -80 42.5 -115.5t131.5 -35.5t131.5 35.5t42.5 115.5h158q-2 -65 -18 -114t-52 -89.5t-102 -62t-160 -21.5t-159.5 21.5t-102 62t-52 89.5t-16.5 114z" />
    <glyph glyph-name="gbreve" unicode="&#x11f;" horiz-adv-x="1607" 
d="M129 569q0 283 158 426.5t456 143.5q326 0 476 -170l4 116h207v-946q0 -310 -152.5 -456t-489.5 -146q-294 0 -444 86t-205 287h236q40 -103 138 -150t271 -47q214 0 314 87t102 270v77q-152 -155 -457 -155q-299 0 -456.5 146t-157.5 431zM358 569q0 -111 29 -188
t86 -121.5t133 -64t180 -19.5q209 0 316.5 106t107.5 289q0 181 -107.5 282t-316.5 101q-104 0 -179.5 -18.5t-133.5 -61.5t-86.5 -119t-28.5 -186zM403 1499h166q0 -79 42 -116t132 -37q89 0 130.5 37t41.5 116h166q-1 -66 -17.5 -116t-54 -89t-104.5 -59.5t-162 -20.5
q-184 0 -260.5 74t-79.5 211z" />
    <glyph glyph-name="Gdotaccent" unicode="&#x120;" horiz-adv-x="1796" 
d="M86 707q0 371 207.5 555t611.5 184q686 0 795 -531h-256q-56 171 -181 246.5t-358 75.5q-289 0 -426 -133.5t-137 -396.5q0 -261 137 -393t426 -132q249 0 390 94t169 279h-575l59 162h760q0 -9 1 -26t1 -23q0 -58 -6 -112.5t-27 -127t-55 -134t-95.5 -123.5t-143.5 -105
t-205 -70t-273 -27q-819 0 -819 738zM745 1632q0 61 39 94t111 33t110.5 -33t38.5 -94q0 -63 -38.5 -96t-110.5 -33t-111 33t-39 96z" />
    <glyph glyph-name="gdotaccent" unicode="&#x121;" horiz-adv-x="1607" 
d="M129 569q0 283 158 426.5t456 143.5q326 0 476 -170l4 116h207v-946q0 -310 -152.5 -456t-489.5 -146q-294 0 -444 86t-205 287h236q40 -103 138 -150t271 -47q214 0 314 87t102 270v77q-152 -155 -457 -155q-299 0 -456.5 146t-157.5 431zM358 569q0 -111 29 -188
t86 -121.5t133 -64t180 -19.5q209 0 316.5 106t107.5 289q0 181 -107.5 282t-316.5 101q-104 0 -179.5 -18.5t-133.5 -61.5t-86.5 -119t-28.5 -186zM594 1354q0 66 38.5 101.5t110.5 35.5t111 -35.5t39 -101.5q0 -67 -39 -103.5t-111 -36.5t-110.5 36t-38.5 104z" />
    <glyph glyph-name="uni0122" unicode="&#x122;" horiz-adv-x="1796" 
d="M86 707q0 371 207.5 555t611.5 184q686 0 795 -531h-256q-56 171 -181 246.5t-358 75.5q-289 0 -426 -133.5t-137 -396.5q0 -261 137 -393t426 -132q249 0 390 94t169 279h-575l59 162h760q0 -9 1 -26t1 -23q0 -58 -6 -112.5t-27 -127t-55 -134t-95.5 -123.5t-143.5 -105
t-205 -70t-273 -27q-819 0 -819 738zM698 -645q149 138 187 205q8 24 -4 24q-142 0 -142 119q0 58 40 91.5t114 33.5q166 0 166 -160q0 -164 -203 -313h-158z" />
    <glyph glyph-name="uni0123" unicode="&#x123;" horiz-adv-x="1607" 
d="M129 569q0 283 158 426.5t456 143.5q326 0 476 -170l4 116h207v-946q0 -310 -152.5 -456t-489.5 -146q-294 0 -444 86t-205 287h236q40 -103 138 -150t271 -47q214 0 314 87t102 270v77q-152 -155 -457 -155q-299 0 -456.5 146t-157.5 431zM358 569q0 -111 29 -188
t86 -121.5t133 -64t180 -19.5q209 0 316.5 106t107.5 289q0 181 -107.5 282t-316.5 101q-104 0 -179.5 -18.5t-133.5 -61.5t-86.5 -119t-28.5 -186zM580 1407q0 165 202 313h158q-148 -137 -186 -204q-8 -25 4 -25q141 0 141 -119q0 -58 -40 -91.5t-114 -33.5
q-165 0 -165 160z" />
    <glyph glyph-name="Hbar" unicode="&#x126;" horiz-adv-x="1640" 
d="M35 1094v166h143v170h238v-170h813v170h235v-170h142v-166h-142v-1094h-235v627h-813v-627h-238v1094h-143zM416 831h813v263h-813v-263z" />
    <glyph glyph-name="hbar" unicode="&#x127;" horiz-adv-x="1550" 
d="M33 1268v153h145v95h225v-95h773v-153h-773v-320q147 187 453 187q96 0 172 -15.5t142 -52t109.5 -95t68 -148t24.5 -206.5v-618h-225v594q0 179 -90.5 260.5t-274.5 81.5q-379 0 -379 -340v-596h-225v1268h-145z" />
    <glyph glyph-name="Imacron" unicode="&#x12a;" horiz-adv-x="593" 
d="M-47 1563v155h688v-155h-688zM178 0v1430h238v-1430h-238z" />
    <glyph glyph-name="imacron" unicode="&#x12b;" horiz-adv-x="581" 
d="M-53 1251v148h690v-148h-690zM178 0v1085h225v-1085h-225z" />
    <glyph glyph-name="Iogonek" unicode="&#x12e;" horiz-adv-x="593" 
d="M6 -268q0 90 68 158t194 110h-90v1430h238v-1430l2 -6q-113 -41 -173.5 -92t-60.5 -121q0 -66 29 -92.5t104 -26.5q79 0 191 23v-138q-101 -26 -234 -26q-148 0 -208 48t-60 163z" />
    <glyph glyph-name="iogonek" unicode="&#x12f;" horiz-adv-x="581" 
d="M-8 -262q0 172 246 262h-60v1085h225v-1085q-112 -41 -172.5 -92t-60.5 -121q0 -66 29 -92.5t104 -26.5q79 0 191 23v-137q-105 -27 -234 -27q-148 0 -208 48t-60 163zM141 1354q0 66 39 101.5t111 35.5t110.5 -35.5t38.5 -101.5q0 -68 -38.5 -104t-110.5 -36t-111 36.5
t-39 103.5z" />
    <glyph glyph-name="Idotaccent" unicode="&#x130;" horiz-adv-x="593" 
d="M147 1632q0 61 39 94t111 33t110.5 -33t38.5 -94q0 -63 -38.5 -96t-110.5 -33t-111 33t-39 96zM178 0v1430h238v-1430h-238z" />
    <glyph glyph-name="dotlessi" unicode="&#x131;" horiz-adv-x="581" 
d="M178 0v1085h225v-1085h-225z" />
    <glyph glyph-name="uni0136" unicode="&#x136;" horiz-adv-x="1402" 
d="M178 0v1430h238v-707q41 45 92.5 100t108.5 114t75 79l381 414h275l-588 -619l637 -811h-279l-518 645l-184 -194v-451h-238zM578 -637q147 136 186 205q8 24 -4 24q-142 0 -142 119q0 58 40 91.5t114 33.5q166 0 166 -160q0 -164 -203 -313h-157z" />
    <glyph glyph-name="uni0137" unicode="&#x137;" horiz-adv-x="1288" 
d="M178 0v1516h225v-1010l265 246l354 331h266l-516 -483l531 -600h-269l-418 457l-213 -201v-256h-225zM528 -637q149 138 187 205q8 24 -4 24q-142 0 -142 119q0 58 40 91.5t114 33.5q166 0 166 -160q0 -164 -203 -313h-158z" />
    <glyph glyph-name="Lacute" unicode="&#x139;" horiz-adv-x="1277" 
d="M178 0v1430h238v-1219h827v-211h-1065zM178 1507l305 299h246l-383 -299h-168z" />
    <glyph glyph-name="lacute" unicode="&#x13a;" horiz-adv-x="581" 
d="M143 1585l336 328h269l-420 -328h-185zM178 0v1516h225v-1516h-225z" />
    <glyph glyph-name="uni013B" unicode="&#x13b;" horiz-adv-x="1277" 
d="M178 0v1430h238v-1219h827v-211h-1065zM539 -606q147 136 186 205q8 24 -4 24q-141 0 -141 119q0 58 39.5 91.5t113.5 33.5q166 0 166 -160q0 -164 -203 -313h-157z" />
    <glyph glyph-name="uni013C" unicode="&#x13c;" horiz-adv-x="581" 
d="M96 -637q149 138 187 205q8 24 -4 24q-142 0 -142 119q0 58 40 91.5t114 33.5q166 0 166 -160q0 -164 -203 -313h-158zM178 0v1516h225v-1516h-225z" />
    <glyph glyph-name="Lcaron" unicode="&#x13d;" horiz-adv-x="1306" 
d="M178 0v1430h238v-1219h827v-211h-1065zM846 924q144 150 190 243q12 23 -4 23q-66 0 -103.5 31t-37.5 92q0 59 40.5 93t112.5 34q168 0 168 -168q0 -169 -208 -348h-158z" />
    <glyph glyph-name="lcaron" unicode="&#x13e;" horiz-adv-x="962" 
d="M178 0v1516h225v-1516h-225zM555 989q146 152 193 244q9 24 -5 24q-68 0 -105.5 30.5t-37.5 90.5q0 62 41 94.5t115 32.5q83 0 124.5 -40.5t41.5 -127.5q0 -163 -209 -348h-158z" />
    <glyph glyph-name="Lslash" unicode="&#x141;" horiz-adv-x="1277" 
d="M37 627v166l141 16v621h238v-594l653 75v-166l-653 -75v-459h827v-211h-1065v643z" />
    <glyph glyph-name="lslash" unicode="&#x142;" horiz-adv-x="622" 
d="M10 555v145l168 52v764h225v-695l211 64v-146l-211 -63v-676h-225v606z" />
    <glyph glyph-name="Nacute" unicode="&#x143;" horiz-adv-x="1607" 
d="M178 0v1430h449q239 -599 381 -943q42 -101 141 -354h47l8 1297h226v-1430h-457q-58 142 -186 459t-197 485q-27 66 -77 194.5t-62 157.5h-48v-1296h-225zM635 1507l305 299h246l-383 -299h-168z" />
    <glyph glyph-name="nacute" unicode="&#x144;" horiz-adv-x="1550" 
d="M178 0v1085h209l4 -139q133 184 465 184q256 0 386 -116.5t130 -372.5v-641h-225v598q0 182 -87 261t-276 79q-193 0 -287 -83t-94 -261v-594h-225zM559 1214l336 328h268l-420 -328h-184z" />
    <glyph glyph-name="uni0145" unicode="&#x145;" horiz-adv-x="1607" 
d="M178 0v1430h449q239 -599 381 -943q42 -101 141 -354h47l8 1297h226v-1430h-457q-58 142 -186 459t-197 485q-27 66 -77 194.5t-62 157.5h-48v-1296h-225zM680 -637q147 136 186 205q8 24 -4 24q-141 0 -141 119q0 58 39.5 91.5t113.5 33.5q166 0 166 -160
q0 -165 -202 -313h-158z" />
    <glyph glyph-name="uni0146" unicode="&#x146;" horiz-adv-x="1550" 
d="M178 0v1085h209l4 -139q133 184 465 184q256 0 386 -116.5t130 -372.5v-641h-225v598q0 182 -87 261t-276 79q-193 0 -287 -83t-94 -261v-594h-225zM578 -637q147 136 186 205q8 24 -4 24q-142 0 -142 119q0 58 40 91.5t114 33.5q166 0 166 -160q0 -164 -203 -313h-157z
" />
    <glyph glyph-name="Ncaron" unicode="&#x147;" horiz-adv-x="1607" 
d="M178 0v1430h449q239 -599 381 -943q42 -101 141 -354h47l8 1297h226v-1430h-457q-58 142 -186 459t-197 485q-27 66 -77 194.5t-62 157.5h-48v-1296h-225zM420 1831h176l225 -217l226 217h176l-301 -320h-201z" />
    <glyph glyph-name="ncaron" unicode="&#x148;" horiz-adv-x="1550" 
d="M178 0v1085h209l4 -139q133 184 465 184q256 0 386 -116.5t130 -372.5v-641h-225v598q0 182 -87 261t-276 79q-193 0 -287 -83t-94 -261v-594h-225zM381 1550h176l225 -225l226 225h176l-301 -336h-201z" />
    <glyph glyph-name="Omacron" unicode="&#x14c;" horiz-adv-x="1804" 
d="M86 711q0 382 207.5 561.5t607.5 179.5q403 0 610 -179t207 -562t-207 -561.5t-610 -178.5q-401 0 -608 179t-207 561zM340 711q0 -130 27.5 -224.5t90.5 -165.5t173.5 -106t269.5 -35q162 0 273 35t174 106t89.5 165t26.5 225q0 132 -26.5 226t-89.5 165t-174 106
t-273 35q-159 0 -269.5 -35t-173.5 -106t-90.5 -165.5t-27.5 -225.5zM557 1585v156h688v-156h-688z" />
    <glyph glyph-name="omacron" unicode="&#x14d;" horiz-adv-x="1548" 
d="M100 551q0 303 170 446.5t504 143.5q337 0 506.5 -143.5t169.5 -446.5q0 -301 -171 -445.5t-505 -144.5t-504 144.5t-170 445.5zM328 551q0 -204 104 -301.5t342 -97.5t342.5 97.5t104.5 301.5q0 205 -104 302t-343 97q-238 0 -342 -97t-104 -302zM430 1251v148h690v-148
h-690z" />
    <glyph glyph-name="Ohungarumlaut" unicode="&#x150;" horiz-adv-x="1804" 
d="M86 711q0 382 207.5 561.5t607.5 179.5q403 0 610 -179t207 -562t-207 -561.5t-610 -178.5q-401 0 -608 179t-207 561zM340 711q0 -130 27.5 -224.5t90.5 -165.5t173.5 -106t269.5 -35q162 0 273 35t174 106t89.5 165t26.5 225q0 132 -26.5 226t-89.5 165t-174 106
t-273 35q-159 0 -269.5 -35t-173.5 -106t-90.5 -165.5t-27.5 -225.5zM680 1532l233 305h228l-312 -305h-149zM971 1532l295 305h256l-394 -305h-157z" />
    <glyph glyph-name="ohungarumlaut" unicode="&#x151;" horiz-adv-x="1548" 
d="M100 551q0 303 170 446.5t504 143.5q337 0 506.5 -143.5t169.5 -446.5q0 -301 -171 -445.5t-505 -144.5t-504 144.5t-170 445.5zM328 551q0 -204 104 -301.5t342 -97.5t342.5 97.5t104.5 301.5q0 205 -104 302t-343 97q-238 0 -342 -97t-104 -302zM539 1235l231 319h242
l-316 -319h-157zM844 1235l303 319h270l-405 -319h-168z" />
    <glyph glyph-name="OE" unicode="&#x152;" horiz-adv-x="2281" 
d="M86 717q0 378 206.5 556.5t604.5 178.5q174 0 281 -22h983v-211h-801v-402h788v-199h-788v-407h801v-211h-1010q-102 -18 -254 -18q-399 0 -605 177.5t-206 557.5zM338 717q0 -129 27.5 -223t90.5 -164.5t173 -106t268 -35.5q125 0 227 29v1000q-91 26 -227 26
q-159 0 -268.5 -34.5t-172.5 -104t-90.5 -163.5t-27.5 -224z" />
    <glyph glyph-name="oe" unicode="&#x153;" horiz-adv-x="2646" 
d="M100 551q0 303 170 446.5t504 143.5q414 0 565 -219q163 215 551 215q339 0 502.5 -159.5t161.5 -485.5h-1106q7 -182 124 -262t331 -80q76 0 134 7t113.5 25t96 53.5t65.5 88.5h223q-42 -180 -207 -269.5t-438 -89.5q-398 0 -555 209q-84 -111 -220 -162t-341 -51
q-334 0 -504 144.5t-170 445.5zM328 551q0 -204 104 -301.5t342 -97.5t342.5 97.5t104.5 301.5q0 205 -104 302t-343 97q-238 0 -342 -97t-104 -302zM1452 643h870q-23 169 -129.5 246.5t-302.5 77.5q-204 0 -312.5 -77t-125.5 -247z" />
    <glyph glyph-name="Racute" unicode="&#x154;" horiz-adv-x="1589" 
d="M178 0v1430h795q508 0 508 -455q0 -189 -90.5 -292.5t-260.5 -137.5l371 -545h-274l-355 528h-456v-528h-238zM416 719h532q163 0 228 63.5t65 192.5q0 128 -63.5 193t-219.5 65h-542v-514zM569 1507l305 299h246l-383 -299h-168z" />
    <glyph glyph-name="racute" unicode="&#x155;" horiz-adv-x="985" 
d="M178 0v1085h207l2 -159q72 121 187 160.5t352 39.5h37v-213h-109q-86 0 -148.5 -6.5t-122.5 -26.5t-97.5 -54t-60 -92t-22.5 -138v-596h-225zM328 1214l336 328h268l-420 -328h-184z" />
    <glyph glyph-name="uni0156" unicode="&#x156;" horiz-adv-x="1589" 
d="M178 0v1430h795q508 0 508 -455q0 -189 -90.5 -292.5t-260.5 -137.5l371 -545h-274l-355 528h-456v-528h-238zM416 719h532q163 0 228 63.5t65 192.5q0 128 -63.5 193t-219.5 65h-542v-514zM592 -637q147 136 186 205q8 24 -4 24q-141 0 -141 119q0 58 39.5 91.5
t113.5 33.5q166 0 166 -160q0 -165 -202 -313h-158z" />
    <glyph glyph-name="uni0157" unicode="&#x157;" horiz-adv-x="985" 
d="M102 -637q149 138 187 205q8 24 -4 24q-142 0 -142 119q0 58 40 91.5t114 33.5q166 0 166 -160q0 -164 -203 -313h-158zM178 0v1085h207l2 -159q72 121 187 160.5t352 39.5h37v-213h-109q-86 0 -148.5 -6.5t-122.5 -26.5t-97.5 -54t-60 -92t-22.5 -138v-596h-225z" />
    <glyph glyph-name="Rcaron" unicode="&#x158;" horiz-adv-x="1589" 
d="M178 0v1430h795q508 0 508 -455q0 -189 -90.5 -292.5t-260.5 -137.5l371 -545h-274l-355 528h-456v-528h-238zM356 1831h176l226 -217l225 217h176l-301 -320h-201zM416 719h532q163 0 228 63.5t65 192.5q0 128 -63.5 193t-219.5 65h-542v-514z" />
    <glyph glyph-name="rcaron" unicode="&#x159;" horiz-adv-x="985" 
d="M150 1550h176l225 -225l225 225h176l-301 -336h-200zM178 0v1085h207l2 -159q72 121 187 160.5t352 39.5h37v-213h-109q-86 0 -148.5 -6.5t-122.5 -26.5t-97.5 -54t-60 -92t-22.5 -138v-596h-225z" />
    <glyph glyph-name="Sacute" unicode="&#x15a;" horiz-adv-x="1480" 
d="M66 416h266q50 -232 448 -232q86 0 156.5 13t127 40t87.5 74.5t31 112.5q0 46 -11 80t-35.5 57t-53.5 37.5t-74 22.5t-88.5 10.5t-104.5 3.5h-141q-99 0 -175 8t-151 32t-124 65t-79 109.5t-30 162.5q0 110 55 195t147 135t201.5 75t229.5 25q587 0 679 -424h-249
q-50 127 -157 179t-273 52q-113 0 -200 -22t-143.5 -74.5t-56.5 -130.5q0 -41 12.5 -71.5t40 -50t58.5 -31.5t82 -18t96 -7.5t113 -1.5h100q106 0 188.5 -11t157.5 -39t123.5 -74t77 -119t28.5 -171q0 -94 -35 -170.5t-95.5 -128.5t-143.5 -87t-176.5 -51t-196.5 -16
q-114 0 -209 13.5t-181.5 45.5t-150 81.5t-108 125.5t-63.5 175zM547 1516l305 299h246l-383 -299h-168z" />
    <glyph glyph-name="sacute" unicode="&#x15b;" horiz-adv-x="1421" 
d="M76 344h235q36 -106 138 -154.5t278 -48.5q172 0 270.5 47.5t98.5 133.5q0 90 -69.5 119.5t-270.5 29.5h-88q-264 0 -392.5 72t-128.5 245q0 156 152 254.5t408 98.5q265 0 419 -84.5t209 -278.5h-227q-39 103 -136 147t-265 44q-156 0 -250.5 -44t-94.5 -128
q0 -86 80.5 -116t290.5 -30h94q258 0 374 -75.5t116 -251.5q0 -178 -158 -270.5t-432 -92.5q-290 0 -443.5 89t-207.5 294zM479 1231l336 328h268l-419 -328h-185z" />
    <glyph glyph-name="Scedilla" unicode="&#x15e;" horiz-adv-x="1480" 
d="M66 416h266q50 -232 448 -232q86 0 156.5 13t127 40t87.5 74.5t31 112.5q0 46 -11 80t-35.5 57t-53.5 37.5t-74 22.5t-88.5 10.5t-104.5 3.5h-141q-99 0 -175 8t-151 32t-124 65t-79 109.5t-30 162.5q0 110 55 195t147 135t201.5 75t229.5 25q587 0 679 -424h-249
q-50 127 -157 179t-273 52q-113 0 -200 -22t-143.5 -74.5t-56.5 -130.5q0 -41 12.5 -71.5t40 -50t58.5 -31.5t82 -18t96 -7.5t113 -1.5h100q106 0 188.5 -11t157.5 -39t123.5 -74t77 -119t28.5 -171q0 -112 -49.5 -199t-135.5 -140t-193 -81.5t-232 -32.5l-49 -86q12 2 37 2
q104 0 151 -42.5t47 -141.5q0 -223 -290 -223q-127 0 -205 31v120q89 -24 201 -24q74 0 104.5 21t30.5 75q0 43 -25 63.5t-90 20.5q-76 0 -133 -2l92 188q-544 27 -620 439z" />
    <glyph glyph-name="scedilla" unicode="&#x15f;" horiz-adv-x="1421" 
d="M76 344h235q36 -106 138 -154.5t278 -48.5q172 0 270.5 47.5t98.5 133.5q0 90 -69.5 119.5t-270.5 29.5h-88q-264 0 -392.5 72t-128.5 245q0 156 152 254.5t408 98.5q265 0 419 -84.5t209 -278.5h-227q-39 103 -136 147t-265 44q-156 0 -250.5 -44t-94.5 -128
q0 -86 80.5 -116t290.5 -30h94q258 0 374 -75.5t116 -251.5q0 -168 -141.5 -260t-389.5 -101l-34 -63q12 2 36 2q104 0 151.5 -43t47.5 -142q0 -223 -291 -223q-126 0 -204 31v121q92 -25 200 -25q74 0 104.5 21t30.5 75q0 44 -24.5 64t-89.5 20q-76 0 -133 -2l79 164
q-256 9 -394 98.5t-189 282.5z" />
    <glyph glyph-name="Scaron" unicode="&#x160;" horiz-adv-x="1480" 
d="M66 416h266q50 -232 448 -232q86 0 156.5 13t127 40t87.5 74.5t31 112.5q0 46 -11 80t-35.5 57t-53.5 37.5t-74 22.5t-88.5 10.5t-104.5 3.5h-141q-99 0 -175 8t-151 32t-124 65t-79 109.5t-30 162.5q0 110 55 195t147 135t201.5 75t229.5 25q587 0 679 -424h-249
q-50 127 -157 179t-273 52q-113 0 -200 -22t-143.5 -74.5t-56.5 -130.5q0 -41 12.5 -71.5t40 -50t58.5 -31.5t82 -18t96 -7.5t113 -1.5h100q106 0 188.5 -11t157.5 -39t123.5 -74t77 -119t28.5 -171q0 -94 -35 -170.5t-95.5 -128.5t-143.5 -87t-176.5 -51t-196.5 -16
q-114 0 -209 13.5t-181.5 45.5t-150 81.5t-108 125.5t-63.5 175zM332 1837h176l225 -217l225 217h177l-301 -319h-201z" />
    <glyph glyph-name="scaron" unicode="&#x161;" horiz-adv-x="1421" 
d="M76 344h235q36 -106 138 -154.5t278 -48.5q172 0 270.5 47.5t98.5 133.5q0 90 -69.5 119.5t-270.5 29.5h-88q-264 0 -392.5 72t-128.5 245q0 156 152 254.5t408 98.5q265 0 419 -84.5t209 -278.5h-227q-39 103 -136 147t-265 44q-156 0 -250.5 -44t-94.5 -128
q0 -86 80.5 -116t290.5 -30h94q258 0 374 -75.5t116 -251.5q0 -178 -158 -270.5t-432 -92.5q-290 0 -443.5 89t-207.5 294zM301 1567h176l225 -226l226 226h176l-301 -336h-201z" />
    <glyph glyph-name="uni0162" unicode="&#x162;" horiz-adv-x="1318" 
d="M41 1219v211h1237v-211h-500v-1219h-43l-53 -98h18q104 0 150.5 -43t46.5 -142q0 -223 -274 -223q-59 0 -123 9t-97 22v121q90 -25 215 -25q67 0 94 20.5t27 75.5q0 44 -25 64t-91 20q-46 0 -103 -2l82 201h-61v1219h-500z" />
    <glyph glyph-name="uni0163" unicode="&#x163;" horiz-adv-x="1179" 
d="M49 895v190h119q38 0 68.5 4t54 10t42 20t31 26t22 35.5t15 41.5t10 51.5t6.5 58t5 67.5h170v-314h522v-190h-530v-393q0 -69 5 -113.5t21.5 -80.5t41 -55t70 -31.5t100.5 -16.5t141 -4h151v-201h-203q-63 0 -153 4l-60 -104q12 2 37 2q104 0 151.5 -43t47.5 -142
q0 -223 -291 -223q-127 0 -205 31v121q92 -25 201 -25q74 0 104.5 21t30.5 75q0 43 -25 63.5t-90 20.5q-76 0 -133 -2l109 221q-157 33 -217 139.5t-60 342.5v393h-309z" />
    <glyph glyph-name="Tcaron" unicode="&#x164;" horiz-adv-x="1318" 
d="M41 1219v211h1237v-211h-500v-1219h-237v1219h-500zM264 1831h176l226 -217l225 217h176l-301 -320h-201z" />
    <glyph glyph-name="tcaron" unicode="&#x165;" horiz-adv-x="1345" 
d="M49 895v190h119q38 0 68.5 4t54 10t42 20t31 26t22 35.5t15 41.5t10 51.5t6.5 58t5 67.5h170v-314h522v-190h-530v-393q0 -69 5 -113.5t21.5 -80.5t41 -55t70 -31.5t100.5 -16.5t141 -4h151v-201h-203q-113 0 -191.5 8t-143.5 29.5t-104 56t-66 92t-37.5 133.5t-10.5 183
v393h-309zM922 1151q143 146 192 242q8 24 -4 24q-143 3 -143 123q0 62 40.5 94.5t114.5 32.5q168 0 168 -166q0 -171 -207 -350h-161z" />
    <glyph glyph-name="Tbar" unicode="&#x166;" horiz-adv-x="1318" 
d="M41 1219v211h1237v-211h-500v-428h398v-166h-398v-625h-237v625h-400v166h400v428h-500z" />
    <glyph glyph-name="tbar" unicode="&#x167;" horiz-adv-x="1179" 
d="M49 895v190h119q38 0 68.5 4t54 10t42 20t31 26t22 35.5t15 41.5t10 51.5t6.5 58t5 67.5h170v-314h522v-190h-530v-195h528v-157h-528v-41q0 -69 5 -113.5t21.5 -80.5t41 -55t70 -31.5t100.5 -16.5t141 -4h151v-201h-203q-113 0 -191.5 8t-143.5 29.5t-104 56t-66 92
t-37.5 133.5t-10.5 183v41h-305v157h305v195h-309z" />
    <glyph glyph-name="Umacron" unicode="&#x16a;" horiz-adv-x="1597" 
d="M158 553v877h237v-857q0 -101 18 -172.5t62.5 -127.5t126 -83.5t201.5 -27.5q97 0 168 19t115.5 52.5t71 87t36.5 114.5t10 143v852h236v-877q0 -310 -157 -448t-484 -138q-330 0 -485.5 138.5t-155.5 447.5zM457 1563v155h688v-155h-688z" />
    <glyph glyph-name="umacron" unicode="&#x16b;" horiz-adv-x="1542" 
d="M178 465v618h223v-591q0 -180 89 -260t272 -80q374 0 377 329v602h225v-1083h-203l-6 164q-137 -211 -463 -211q-119 0 -209 25t-160.5 82t-107.5 159t-37 246zM430 1251v148h690v-148h-690z" />
    <glyph glyph-name="Uring" unicode="&#x16e;" horiz-adv-x="1597" 
d="M158 553v877h237v-857q0 -101 18 -172.5t62.5 -127.5t126 -83.5t201.5 -27.5q97 0 168 19t115.5 52.5t71 87t36.5 114.5t10 143v852h236v-877q0 -310 -157 -448t-484 -138q-330 0 -485.5 138.5t-155.5 447.5zM535 1712q0 108 66.5 159.5t201.5 51.5q270 0 270 -211
t-270 -211q-135 0 -201.5 51t-66.5 160zM662 1712q0 -60 31 -89.5t110 -29.5q78 0 109.5 30t31.5 89t-31.5 88t-109.5 29q-79 0 -110 -29t-31 -88z" />
    <glyph glyph-name="uring" unicode="&#x16f;" horiz-adv-x="1542" 
d="M178 465v618h223v-591q0 -180 89 -260t272 -80q374 0 377 329v602h225v-1083h-203l-6 164q-137 -211 -463 -211q-119 0 -209 25t-160.5 82t-107.5 159t-37 246zM498 1452q0 240 276 240q137 0 205 -58.5t68 -181.5t-68 -181.5t-205 -58.5q-276 0 -276 240zM631 1452
q0 -67 31 -100t112 -33q80 0 112 33t32 100q0 68 -32 100.5t-112 32.5q-81 0 -112 -32.5t-31 -100.5z" />
    <glyph glyph-name="Uhungarumlaut" unicode="&#x170;" horiz-adv-x="1597" 
d="M158 553v877h237v-857q0 -101 18 -172.5t62.5 -127.5t126 -83.5t201.5 -27.5q97 0 168 19t115.5 52.5t71 87t36.5 114.5t10 143v852h236v-877q0 -310 -157 -448t-484 -138q-330 0 -485.5 138.5t-155.5 447.5zM580 1509l233 306h227l-311 -306h-149zM870 1509l295 306h256
l-393 -306h-158z" />
    <glyph glyph-name="uhungarumlaut" unicode="&#x171;" horiz-adv-x="1542" 
d="M178 465v618h223v-591q0 -180 89 -260t272 -80q374 0 377 329v602h225v-1083h-203l-6 164q-137 -211 -463 -211q-119 0 -209 25t-160.5 82t-107.5 159t-37 246zM539 1235l231 319h242l-316 -319h-157zM844 1235l303 319h270l-405 -319h-168z" />
    <glyph glyph-name="Uogonek" unicode="&#x172;" horiz-adv-x="1626" 
d="M158 553v877h237v-857q0 -101 18 -172.5t62.5 -127.5t126 -83.5t201.5 -27.5q97 0 168 19t115.5 52.5t71 87t36.5 114.5t10 143v852h236v-877q0 -224 -82.5 -357.5t-249.5 -187.5q-168 -77 -168 -186q0 -66 29 -92.5t104 -26.5q79 0 191 23v-138q-101 -26 -234 -26
q-148 0 -208 48t-60 163q0 117 115 196q-25 -2 -78 -2q-330 0 -485.5 138.5t-155.5 447.5z" />
    <glyph glyph-name="uogonek" unicode="&#x173;" horiz-adv-x="1542" 
d="M178 465v618h223v-591q0 -180 89 -260t272 -80q374 0 377 329v602h225v-1083h-2q-113 -41 -173.5 -92t-60.5 -121q0 -66 29.5 -92.5t104.5 -26.5q78 0 190 23v-137q-105 -27 -233 -27q-148 0 -208.5 48t-60.5 163q0 172 246 262h-35l-6 164q-137 -211 -463 -211
q-119 0 -209 25t-160.5 82t-107.5 159t-37 246z" />
    <glyph glyph-name="Wcircumflex" unicode="&#x174;" horiz-adv-x="1867" 
d="M70 1430h237q110 -801 164 -1291h43q28 150 119.5 653.5t116.5 637.5h370q99 -503 236 -1291h43q76 635 166 1291h235l-207 -1430h-399l-233 1290h-50l-233 -1290h-402zM530 1501l301 334h201l301 -334h-176l-225 223l-225 -223h-177z" />
    <glyph glyph-name="wcircumflex" unicode="&#x175;" horiz-adv-x="1691" 
d="M68 1085h229q107 -640 154 -954h51q13 76 46.5 279t62 367.5t55.5 307.5h358q28 -143 56 -302.5t64.5 -377.5t45.5 -274h49q30 199 156 954h229l-199 -1085h-387l-166 954h-55l-162 -954h-391zM442 1217l301 333h201l301 -333h-176l-225 223l-226 -223h-176z" />
    <glyph glyph-name="Ycircumflex" unicode="&#x176;" horiz-adv-x="1347" 
d="M-8 1430h256q214 -331 411 -654h29q53 87 412 654h256l-565 -875v-555h-234v555zM268 1501l301 334h201l301 -334h-176l-225 223l-226 -223h-176z" />
    <glyph glyph-name="ycircumflex" unicode="&#x177;" horiz-adv-x="1357" 
d="M35 1085h260q61 -144 124 -298.5t140.5 -347.5t112.5 -279h84l360 925h252l-414 -1005q-46 -114 -77 -181.5t-69.5 -127t-70.5 -87.5t-83.5 -49t-106.5 -26.5t-141 -5.5h-187v190h180q100 0 154 19.5t82.5 59.5t60.5 128h-188zM283 1214l301 334h200l301 -334h-176
l-225 224l-225 -224h-176z" />
    <glyph glyph-name="Ydieresis" unicode="&#x178;" horiz-adv-x="1347" 
d="M-8 1430h256q214 -331 411 -654h29q53 87 412 654h256l-565 -875v-555h-234v555zM242 1642q0 64 38.5 98t112.5 34q73 0 112.5 -34t39.5 -98q0 -63 -39.5 -96t-112.5 -33q-74 0 -112.5 33t-38.5 96zM805 1642q0 64 38.5 98t112.5 34q73 0 112.5 -34t39.5 -98
q0 -63 -39.5 -96t-112.5 -33q-74 0 -112.5 33t-38.5 96z" />
    <glyph glyph-name="Zacute" unicode="&#x179;" horiz-adv-x="1456" 
d="M117 1223v207h1226v-175l-684 -774q-113 -131 -251 -266l6 -18q152 10 483 10h471v-207h-1247v178l663 746q139 159 281 290l-10 21q-204 -12 -500 -12h-438zM541 1507l305 299h246l-383 -299h-168z" />
    <glyph glyph-name="zacute" unicode="&#x17a;" horiz-adv-x="1382" 
d="M96 889v196h1149v-170l-414 -399q-133 -128 -348 -307l4 -23q155 11 328 11h471v-197h-1171v123l432 401q90 84 210 189t187 159l-4 25q-136 -8 -309 -8h-535zM457 1214l336 328h268l-420 -328h-184z" />
    <glyph glyph-name="Zdotaccent" unicode="&#x17b;" horiz-adv-x="1456" 
d="M117 1223v207h1226v-175l-684 -774q-113 -131 -251 -266l6 -18q152 10 483 10h471v-207h-1247v178l663 746q139 159 281 290l-10 21q-204 -12 -500 -12h-438zM573 1632q0 61 39 94t111 33t110.5 -33t38.5 -94q0 -63 -38.5 -96t-110.5 -33t-111 33t-39 96z" />
    <glyph glyph-name="zdotaccent" unicode="&#x17c;" horiz-adv-x="1382" 
d="M96 889v196h1149v-170l-414 -399q-133 -128 -348 -307l4 -23q155 11 328 11h471v-197h-1171v123l432 401q90 84 210 189t187 159l-4 25q-136 -8 -309 -8h-535zM530 1354q0 66 39 101.5t111 35.5t110.5 -35.5t38.5 -101.5q0 -68 -38.5 -104t-110.5 -36t-111 36.5
t-39 103.5z" />
    <glyph glyph-name="Zcaron" unicode="&#x17d;" horiz-adv-x="1456" 
d="M117 1223v207h1226v-175l-684 -774q-113 -131 -251 -266l6 -18q152 10 483 10h471v-207h-1247v178l663 746q139 159 281 290l-10 21q-204 -12 -500 -12h-438zM328 1831h176l225 -217l225 217h176l-301 -320h-200z" />
    <glyph glyph-name="zcaron" unicode="&#x17e;" horiz-adv-x="1382" 
d="M96 889v196h1149v-170l-414 -399q-133 -128 -348 -307l4 -23q155 11 328 11h471v-197h-1171v123l432 401q90 84 210 189t187 159l-4 25q-136 -8 -309 -8h-535zM279 1550h176l225 -225l225 225h176l-301 -336h-200z" />
    <glyph glyph-name="uni0218" unicode="&#x218;" horiz-adv-x="1480" 
d="M66 416h266q50 -232 448 -232q86 0 156.5 13t127 40t87.5 74.5t31 112.5q0 46 -11 80t-35.5 57t-53.5 37.5t-74 22.5t-88.5 10.5t-104.5 3.5h-141q-99 0 -175 8t-151 32t-124 65t-79 109.5t-30 162.5q0 110 55 195t147 135t201.5 75t229.5 25q587 0 679 -424h-249
q-50 127 -157 179t-273 52q-113 0 -200 -22t-143.5 -74.5t-56.5 -130.5q0 -41 12.5 -71.5t40 -50t58.5 -31.5t82 -18t96 -7.5t113 -1.5h100q106 0 188.5 -11t157.5 -39t123.5 -74t77 -119t28.5 -171q0 -94 -35 -170.5t-95.5 -128.5t-143.5 -87t-176.5 -51t-196.5 -16
q-114 0 -209 13.5t-181.5 45.5t-150 81.5t-108 125.5t-63.5 175zM543 -647q147 136 186 205q8 24 -4 24q-141 0 -141 119q0 58 39.5 91.5t113.5 33.5q166 0 166 -160q0 -164 -203 -313h-157z" />
    <glyph glyph-name="uni0219" unicode="&#x219;" horiz-adv-x="1429" 
d="M76 344h235q36 -106 138 -154.5t278 -48.5q172 0 270.5 47.5t98.5 133.5q0 90 -69.5 119.5t-270.5 29.5h-88q-264 0 -392.5 72t-128.5 245q0 156 152 254.5t408 98.5q265 0 419 -84.5t209 -278.5h-227q-39 103 -136 147t-265 44q-156 0 -250.5 -44t-94.5 -128
q0 -86 80.5 -116t290.5 -30h94q258 0 374 -75.5t116 -251.5q0 -178 -158 -270.5t-432 -92.5q-290 0 -443.5 89t-207.5 294zM518 -627q149 138 187 205q8 25 -5 25q-141 0 -141 118q0 58 40 91.5t114 33.5q166 0 166 -159q0 -165 -203 -314h-158z" />
    <glyph glyph-name="uni021A" unicode="&#x21a;" horiz-adv-x="1318" 
d="M41 1219v211h1237v-211h-500v-1219h-237v1219h-500zM463 -637q147 136 186 205q8 24 -4 24q-141 0 -141 119q0 58 39.5 91.5t113.5 33.5q166 0 166 -160q0 -165 -202 -313h-158z" />
    <glyph glyph-name="uni021B" unicode="&#x21b;" horiz-adv-x="1179" 
d="M49 895v190h119q38 0 68.5 4t54 10t42 20t31 26t22 35.5t15 41.5t10 51.5t6.5 58t5 67.5h170v-314h522v-190h-530v-393q0 -69 5 -113.5t21.5 -80.5t41 -55t70 -31.5t100.5 -16.5t141 -4h151v-201h-203q-113 0 -191.5 8t-143.5 29.5t-104 56t-66 92t-37.5 133.5t-10.5 183
v393h-309zM475 -637q149 138 187 205q8 24 -5 24q-141 0 -141 119q0 58 40 91.5t114 33.5q166 0 166 -160q0 -164 -203 -313h-158z" />
    <glyph glyph-name="uni02BC" unicode="&#x2bc;" horiz-adv-x="557" 
d="M143 1061l150 389h264l-278 -389h-136z" />
    <glyph glyph-name="circumflex" unicode="&#x2c6;" 
d="M233 1501l302 334h200l301 -334h-176l-225 223l-225 -223h-177z" />
    <glyph glyph-name="caron" unicode="&#x2c7;" 
d="M193 1833h176l225 -217l225 217h176l-301 -320h-200z" />
    <glyph glyph-name="breve" unicode="&#x2d8;" horiz-adv-x="1204" 
d="M168 1640h156q0 -80 42.5 -115.5t131.5 -35.5t131.5 35.5t42.5 115.5h157q-2 -65 -18 -114t-52 -89.5t-101.5 -61.5t-159.5 -21t-159.5 21.5t-102 61.5t-52 89t-16.5 114z" />
    <glyph glyph-name="dotaccent" unicode="&#x2d9;" 
d="M403 1573q0 61 39 94t111 33t110.5 -33t38.5 -94q0 -63 -38.5 -96t-110.5 -33t-111 33t-39 96z" />
    <glyph glyph-name="ring" unicode="&#x2da;" horiz-adv-x="1210" 
d="M350 1720q0 108 66.5 159.5t201.5 51.5q271 0 271 -211t-271 -211q-135 0 -201.5 51t-66.5 160zM477 1720q0 -59 31 -88.5t110 -29.5q78 0 110 29.5t32 88.5t-32 88t-110 29q-79 0 -110 -29t-31 -88z" />
    <glyph glyph-name="ogonek" unicode="&#x2db;" 
d="M406 -262q0 105 90.5 178.5t257.5 114.5l-23 53l47 10l39 -94q-112 -41 -172.5 -92t-60.5 -121q0 -66 29 -92.5t104 -26.5q78 0 190 23v-137q-105 -27 -233 -27q-148 0 -208 48t-60 163z" />
    <glyph glyph-name="tilde" unicode="&#x2dc;" 
d="M102 1501q-3 121 60.5 189.5t189.5 68.5q68 0 115 -15.5t83 -30.5t77 -15q46 0 69.5 26t26.5 86h147q3 -124 -60 -193t-194 -69q-63 0 -110 15t-83 30t-71 15q-53 0 -75 -27t-25 -80h-150z" />
    <glyph glyph-name="hungarumlaut" unicode="&#x2dd;" 
d="M485 1509l234 306h227l-311 -306h-150zM776 1509l295 306h256l-393 -306h-158z" />
    <glyph glyph-name="gravecomb" unicode="&#x300;" horiz-adv-x="0" 
d="M-1061 1542h268l334 -328h-182z" />
    <glyph glyph-name="acutecomb" unicode="&#x301;" horiz-adv-x="0" 
d="M-780 1214l336 328h268l-420 -328h-184z" />
    <glyph glyph-name="uni0302" unicode="&#x302;" horiz-adv-x="0" 
d="M-995 1214l301 334h200l301 -334h-176l-225 224l-225 -224h-176z" />
    <glyph glyph-name="tildecomb" unicode="&#x303;" horiz-adv-x="0" 
d="M-1053 1262q-3 121 60 188.5t190 67.5q68 0 115 -15.5t83 -31t77 -15.5q90 0 96 113h147q3 -123 -60 -191.5t-194 -68.5q-63 0 -110 14.5t-83 29.5t-71 15q-53 0 -75 -26.5t-27 -79.5h-148z" />
    <glyph glyph-name="uni0304" unicode="&#x304;" horiz-adv-x="0" 
d="M-967 1251v148h691v-148h-691z" />
    <glyph glyph-name="uni0306" unicode="&#x306;" horiz-adv-x="0" 
d="M-1079 1505h166q0 -79 42 -116t132 -37q89 0 130.5 37t41.5 116h166q-1 -66 -17.5 -115.5t-54 -89t-104.5 -59.5t-162 -20q-184 0 -260.5 73.5t-79.5 210.5z" />
    <glyph glyph-name="uni0307" unicode="&#x307;" horiz-adv-x="0" 
d="M-827 1354q0 66 38.5 101.5t110.5 35.5t111 -35.5t39 -101.5q0 -67 -39 -103.5t-111 -36.5t-110.5 36t-38.5 104z" />
    <glyph glyph-name="uni0308" unicode="&#x308;" horiz-adv-x="0" 
d="M-993 1368q0 68 39 103.5t112 35.5q72 0 112 -36t40 -103q0 -66 -40 -101.5t-112 -35.5q-73 0 -112 35.5t-39 101.5zM-430 1368q0 68 39 103.5t112 35.5q72 0 112 -36t40 -103q0 -66 -40 -101.5t-112 -35.5q-73 0 -112 35.5t-39 101.5z" />
    <glyph glyph-name="uni030A" unicode="&#x30a;" horiz-adv-x="0" 
d="M-893 1452q0 240 277 240q137 0 204.5 -58.5t67.5 -181.5t-67.5 -181.5t-204.5 -58.5q-277 0 -277 240zM-760 1452q0 -67 31.5 -100t112.5 -33q79 0 111 33t32 100q0 68 -31.5 100.5t-111.5 32.5q-81 0 -112.5 -32.5t-31.5 -100.5z" />
    <glyph glyph-name="uni030B" unicode="&#x30b;" horiz-adv-x="0" 
d="M-727 1235l231 319h242l-315 -319h-158zM-422 1235l303 319h271l-406 -319h-168z" />
    <glyph glyph-name="uni030C" unicode="&#x30c;" horiz-adv-x="0" 
d="M-1036 1550h176l225 -225l225 225h177l-302 -336h-200z" />
    <glyph glyph-name="uni0326" unicode="&#x326;" horiz-adv-x="0" 
d="M-817 -604q147 136 186 205q8 24 -4 24q-141 0 -141 119q0 58 39.5 91.5t113.5 33.5q166 0 166 -160q0 -165 -202 -313h-158z" />
    <glyph glyph-name="uni0327" unicode="&#x327;" horiz-adv-x="0" 
d="M-713 -354q93 -25 201 -25q74 0 104.5 21t30.5 75q0 43 -25 63.5t-90 20.5q-76 0 -133 -2l123 250h133l-84 -149q12 2 37 2q104 0 151.5 -43t47.5 -142q0 -223 -291 -223q-127 0 -205 31v121z" />
    <glyph glyph-name="uni0328" unicode="&#x328;" horiz-adv-x="0" 
d="M-838 -260q0 55 20.5 99t55.5 76t90.5 58t117 44t142.5 34v-45q-134 -44 -194 -92.5t-60 -128.5q0 -66 42.5 -90.5t134.5 -24.5q115 0 198 19v-133q-97 -27 -256 -27q-156 1 -223.5 52.5t-67.5 158.5z" />
    <glyph glyph-name="uni0401" unicode="&#x401;" horiz-adv-x="1359" 
d="M178 0v1430h1061v-211h-823v-392h807v-200h-807v-416h823v-211h-1061zM293 1642q0 64 38.5 98t112.5 34q73 0 112.5 -34t39.5 -98q0 -63 -39.5 -96t-112.5 -33q-74 0 -112.5 33t-38.5 96zM856 1642q0 64 39 98t113 34q72 0 111.5 -34t39.5 -98q0 -63 -39.5 -96
t-111.5 -33q-74 0 -113 33t-39 96z" />
    <glyph glyph-name="uni0402" unicode="&#x402;" horiz-adv-x="1716" 
d="M47 1221v209h1237v-209h-498v-445q62 74 172.5 112t251.5 38q283 0 411 -127t128 -400v-194q0 -239 -98 -332.5t-340 -93.5h-101v194h35q85 0 135 10t80.5 38t40.5 69t10 111v194q0 177 -87 252.5t-263 75.5q-192 0 -283.5 -74t-91.5 -256v-393h-237v1221h-502z" />
    <glyph glyph-name="uni0403" unicode="&#x403;" 
d="M178 0v1430h1030v-211h-792v-1219h-238zM584 1509l305 299h246l-383 -299h-168z" />
    <glyph glyph-name="uni0404" unicode="&#x404;" horiz-adv-x="1789" 
d="M86 711q0 741 813 741q168 0 303.5 -31.5t241 -96t171.5 -168.5t87 -243h-254q-39 174 -172 251t-377 77q-274 0 -402 -105t-151 -313h916v-202h-918q9 -109 42 -188.5t97.5 -138t168 -87.5t247.5 -29q243 0 378 79.5t171 252.5h254q-20 -140 -86 -244.5t-171 -169
t-241 -96t-305 -31.5q-813 0 -813 742z" />
    <glyph glyph-name="uni0405" unicode="&#x405;" horiz-adv-x="1480" 
d="M66 416h266q50 -232 448 -232q86 0 156.5 13t127 40t87.5 74.5t31 112.5q0 46 -11 80t-35.5 57t-53.5 37.5t-74 22.5t-88.5 10.5t-104.5 3.5h-141q-99 0 -175 8t-151 32t-124 65t-79 109.5t-30 162.5q0 110 55 195t147 135t201.5 75t229.5 25q587 0 679 -424h-249
q-50 127 -157 179t-273 52q-113 0 -200 -22t-143.5 -74.5t-56.5 -130.5q0 -41 12.5 -71.5t40 -50t58.5 -31.5t82 -18t96 -7.5t113 -1.5h100q106 0 188.5 -11t157.5 -39t123.5 -74t77 -119t28.5 -171q0 -94 -35 -170.5t-95.5 -128.5t-143.5 -87t-176.5 -51t-196.5 -16
q-114 0 -209 13.5t-181.5 45.5t-150 81.5t-108 125.5t-63.5 175z" />
    <glyph glyph-name="uni0406" unicode="&#x406;" horiz-adv-x="593" 
d="M178 0v1430h238v-1430h-238z" />
    <glyph glyph-name="uni0407" unicode="&#x407;" horiz-adv-x="593" 
d="M-137 1642q0 64 38.5 98t112.5 34q73 0 112.5 -34t39.5 -98q0 -63 -39.5 -96t-112.5 -33q-74 0 -112.5 33t-38.5 96zM178 0v1430h238v-1430h-238zM426 1642q0 64 39 98t113 34q72 0 111.5 -34t39.5 -98q0 -63 -39.5 -96t-111.5 -33q-74 0 -113 33t-39 96z" />
    <glyph glyph-name="uni0408" unicode="&#x408;" horiz-adv-x="1280" 
d="M14 401h244q28 -233 311 -233q174 0 243 77.5t69 258.5v926h231v-900q0 -156 -32.5 -262.5t-102 -170.5t-168 -92t-240.5 -28q-241 0 -383 100t-172 324z" />
    <glyph glyph-name="uni0409" unicode="&#x409;" horiz-adv-x="2508" 
d="M23 -8v205h43q49 0 85.5 18.5t62 53t43 92.5t28.5 128t20 170q21 225 41 771h1057v-521h545q508 0 508 -454q0 -245 -136.5 -350t-408.5 -105h-746v1233h-600q-12 -327 -33 -569q-10 -122 -23 -209.5t-34.5 -168t-51.5 -132.5t-73.5 -91.5t-103 -57t-137.5 -17.5
q-21 0 -50 2t-36 2zM1403 197h528q156 0 219.5 65t63.5 193t-63 192t-220 64h-528v-514z" />
    <glyph glyph-name="uni040A" unicode="&#x40a;" horiz-adv-x="2562" 
d="M178 0v1430h238v-599h813v599h235v-521h537q508 0 508 -454q0 -245 -136.5 -350t-408.5 -105h-735v627h-813v-627h-238zM1464 197h521q156 0 219 65t63 193t-63 192t-219 64h-521v-514z" />
    <glyph glyph-name="uni040B" unicode="&#x40b;" horiz-adv-x="1882" 
d="M41 1219v211h1237v-211h-500v-439q132 146 412 146q285 0 415 -131t130 -422v-373h-238v377q0 184 -86.5 265t-271.5 81q-181 0 -271 -74.5t-90 -257.5v-391h-237v1219h-500z" />
    <glyph glyph-name="uni040C" unicode="&#x40c;" horiz-adv-x="1376" 
d="M178 0v1430h238v-594h98l582 594h268l-666 -687l680 -743h-282l-594 643h-86v-643h-238zM612 1507l306 299h245l-383 -299h-168z" />
    <glyph glyph-name="uni040E" unicode="&#x40e;" horiz-adv-x="1474" 
d="M-33 1430h258l322 -701q30 -67 83 -184t75 -168h26q0 1 1 2t1 2q16 35 33 74t44.5 106.5t53.5 128.5l316 740h252l-410 -920q-40 -89 -66.5 -145.5t-59.5 -114.5t-58.5 -90.5t-62.5 -64.5t-72.5 -47t-86.5 -28t-107 -16.5t-132 -3.5h-129v205h170q72 0 127 10zM297 1810
h195q6 -89 59.5 -128.5t177.5 -39.5t178 39.5t62 128.5h196q-3 -157 -111 -228t-325 -71q-214 0 -321.5 71t-110.5 228z" />
    <glyph glyph-name="uni040F" unicode="&#x40f;" horiz-adv-x="1624" 
d="M178 0v1430h238v-1227h792v1227h238v-1430h-524v-330h-217v330h-527z" />
    <glyph glyph-name="uni0410" unicode="&#x410;" horiz-adv-x="1513" 
d="M12 0l533 1430h424l532 -1430h-256l-112 315h-752l-113 -315h-256zM451 508h614l-129 362q-104 289 -145 420h-68q-8 -27 -143 -420z" />
    <glyph glyph-name="uni0411" unicode="&#x411;" horiz-adv-x="1503" 
d="M178 0v1430h1147v-209h-909v-330h526q252 0 380 -108t128 -339q0 -236 -133.5 -340t-403.5 -104h-735zM416 193h514q155 0 217.5 62.5t62.5 188.5t-62.5 190t-217.5 64h-514v-505z" />
    <glyph glyph-name="uni0412" unicode="&#x412;" horiz-adv-x="1540" 
d="M178 0v1430h762q249 0 362 -83.5t113 -269.5q0 -107 -52.5 -189.5t-150.5 -115.5v-12q113 -33 173.5 -122.5t60.5 -215.5q0 -79 -14.5 -140.5t-50.5 -115.5t-95.5 -89.5t-152.5 -56t-218 -20.5h-737zM416 197h549q135 0 187 61.5t52 171.5q0 112 -55 170.5t-188 58.5
h-545v-462zM416 842h551q114 0 162.5 48t48.5 148q0 101 -48.5 150t-162.5 49h-551v-395z" />
    <glyph glyph-name="uni0413" unicode="&#x413;" 
d="M178 0v1430h1030v-211h-792v-1219h-238z" />
    <glyph glyph-name="uni0414" unicode="&#x414;" horiz-adv-x="1613" 
d="M12 199h43q40 0 73 17t56 42.5t41 70t29 83.5t20 99.5t13.5 102.5t9.5 107q18 210 37 709h1044v-1231h189q-9 -141 -11 -219l-8 -310h-213v330h-1102l-6 -330h-213zM391 201l750 -2v1034h-588q-10 -244 -31 -514q-6 -81 -12.5 -137t-20.5 -136.5t-38.5 -142.5t-59.5 -102
z" />
    <glyph glyph-name="uni0415" unicode="&#x415;" horiz-adv-x="1359" 
d="M178 0v1430h1061v-211h-823v-392h807v-200h-807v-416h823v-211h-1061z" />
    <glyph glyph-name="uni0416" unicode="&#x416;" horiz-adv-x="2072" 
d="M10 0l641 754l-635 676h263l563 -594h80v594h229v-594h80l563 594h262l-633 -676l639 -754h-274l-555 643h-82v-643h-229v643h-82l-555 -643h-275z" />
    <glyph glyph-name="uni0417" unicode="&#x417;" horiz-adv-x="1474" 
d="M57 422h256q29 -128 145 -189t285 -61q201 0 295.5 60t94.5 190q0 114 -66.5 168.5t-200.5 54.5h-295l21 180h274q112 0 173 51t61 148q0 121 -89 181.5t-253 60.5q-356 0 -422 -215h-240q86 395 662 395q581 0 581 -399q0 -100 -48 -171t-130 -110v-18q221 -84 221 -336
q0 -219 -164 -330t-475 -111q-296 0 -469 118t-217 333z" />
    <glyph glyph-name="uni0418" unicode="&#x418;" horiz-adv-x="1693" 
d="M178 0v1430h236v-1291h53q23 52 90.5 185t83.5 168l440 938h435v-1430h-236v1290h-53q-55 -127 -156 -338l-459 -952h-434z" />
    <glyph glyph-name="uni0419" unicode="&#x419;" horiz-adv-x="1693" 
d="M178 0v1430h236v-1291h53q23 52 90.5 185t83.5 168l440 938h435v-1430h-236v1290h-53q-55 -127 -156 -338l-459 -952h-434zM432 1817h195q6 -89 59.5 -128.5t177.5 -39.5t178 39.5t62 128.5h196q-3 -157 -111 -228t-325 -71q-214 0 -321.5 71t-110.5 228z" />
    <glyph glyph-name="uni041A" unicode="&#x41a;" horiz-adv-x="1376" 
d="M178 0v1430h238v-594h98l582 594h268l-666 -687l680 -743h-282l-594 643h-86v-643h-238z" />
    <glyph glyph-name="uni041B" unicode="&#x41b;" horiz-adv-x="1581" 
d="M23 -8v205h43q49 0 85.5 18.5t62 53t43 92.5t28.5 128t20 170q21 225 41 771h1057v-1430h-238v1233h-600q-12 -327 -33 -569q-10 -122 -23 -209.5t-34.5 -168t-51.5 -132.5t-73.5 -91.5t-103 -57t-137.5 -17.5q-21 0 -50 2t-36 2z" />
    <glyph glyph-name="uni041C" unicode="&#x41c;" horiz-adv-x="1837" 
d="M178 0v1430h461q203 -1020 256 -1289h51q120 613 258 1289h455v-1430h-227v1290h-52q-162 -778 -272 -1290h-379q-110 512 -272 1290h-51v-1290h-228z" />
    <glyph glyph-name="uni041D" unicode="&#x41d;" horiz-adv-x="1642" 
d="M178 0v1430h238v-599h813v599h235v-1430h-235v627h-813v-627h-238z" />
    <glyph glyph-name="uni041E" unicode="&#x41e;" horiz-adv-x="1804" 
d="M86 711q0 382 207.5 561.5t607.5 179.5q403 0 610 -179t207 -562t-207 -561.5t-610 -178.5q-401 0 -608 179t-207 561zM340 711q0 -130 27.5 -224.5t90.5 -165.5t173.5 -106t269.5 -35q162 0 273 35t174 106t89.5 165t26.5 225q0 132 -26.5 226t-89.5 165t-174 106
t-273 35q-159 0 -269.5 -35t-173.5 -106t-90.5 -165.5t-27.5 -225.5z" />
    <glyph glyph-name="uni041F" unicode="&#x41f;" horiz-adv-x="1636" 
d="M178 0v1430h1278v-1430h-237v1225h-803v-1225h-238z" />
    <glyph glyph-name="uni0420" unicode="&#x420;" horiz-adv-x="1536" 
d="M178 0v1430h797q508 0 508 -455q0 -245 -136.5 -350t-408.5 -105h-522v-520h-238zM416 719h542q157 0 220 64t63 192t-63.5 193t-219.5 65h-542v-514z" />
    <glyph glyph-name="uni0421" unicode="&#x421;" horiz-adv-x="1789" 
d="M86 711q0 741 813 741q168 0 303.5 -31.5t241 -96t171.5 -168.5t87 -243h-254q-39 174 -172 251t-377 77q-159 0 -268.5 -35t-172.5 -105.5t-90.5 -165t-27.5 -224.5q0 -131 27.5 -226t90.5 -166t172.5 -106t268.5 -35q243 0 378 79.5t171 252.5h254q-20 -140 -86 -244.5
t-171 -169t-241 -96t-305 -31.5q-813 0 -813 742z" />
    <glyph glyph-name="uni0422" unicode="&#x422;" horiz-adv-x="1318" 
d="M41 1219v211h1237v-211h-500v-1219h-237v1219h-500z" />
    <glyph glyph-name="uni0423" unicode="&#x423;" horiz-adv-x="1474" 
d="M-33 1430h258l322 -701q30 -67 83 -184t75 -168h26q0 1 1 2t1 2q16 35 33 74t44.5 106.5t53.5 128.5l316 740h252l-410 -920q-40 -89 -66.5 -145.5t-59.5 -114.5t-58.5 -90.5t-62.5 -64.5t-72.5 -47t-86.5 -28t-107 -16.5t-132 -3.5h-129v205h170q72 0 127 10z" />
    <glyph glyph-name="uni0424" unicode="&#x424;" horiz-adv-x="1804" 
d="M86 762q0 124 22 219t72 172.5t131 128t200 78.5t277 31v168h228v-168q196 -4 332.5 -45.5t217 -124t115.5 -193.5t35 -266q0 -156 -35 -268.5t-115.5 -194.5t-217 -123.5t-332.5 -44.5v-131h-228v131q-197 3 -333.5 44t-217.5 123t-116 194.5t-35 269.5zM311 762
q0 -94 12 -162t43 -125t85 -92.5t137 -57t200 -26.5v922q-139 0 -232 -28t-146.5 -87.5t-76 -141.5t-22.5 -202zM1016 299q114 1 197.5 21t137 56t85.5 95t44.5 128t12.5 163q0 119 -22.5 201t-76.5 142t-147 88t-231 28v-922z" />
    <glyph glyph-name="uni0425" unicode="&#x425;" horiz-adv-x="1404" 
d="M12 0l555 719l-540 711h278l406 -539l403 539h270l-550 -701l559 -729h-279l-418 551l-420 -551h-264z" />
    <glyph glyph-name="uni0426" unicode="&#x426;" horiz-adv-x="1675" 
d="M178 0v1430h238v-1227h790v1227h238v-1227h168q-7 -92 -10 -223l-9 -310h-213v330h-1202z" />
    <glyph glyph-name="uni0427" unicode="&#x427;" horiz-adv-x="1456" 
d="M86 1069v361h236v-371q0 -184 86.5 -265t271.5 -81q90 0 154 15.5t111 53t70 102.5t23 160l2 386h238v-1430h-238v649q-121 -133 -405 -133q-291 0 -420 132.5t-129 420.5z" />
    <glyph glyph-name="uni0428" unicode="&#x428;" horiz-adv-x="2080" 
d="M178 0v1430h232v-1227h516v1227h229v-1227h516v1227h230v-1430h-1723z" />
    <glyph glyph-name="uni0429" unicode="&#x429;" horiz-adv-x="2131" 
d="M178 0v1430h232v-1227h516v1227h229v-1227h516v1227h230v-1227h161q-7 -92 -10 -223l-8 -310h-213v330h-1653z" />
    <glyph glyph-name="uni042A" unicode="&#x42a;" horiz-adv-x="1775" 
d="M-80 1221v209h739v-521h553q508 0 508 -454q0 -245 -135.5 -350t-408.5 -105h-752v1221h-504zM659 197h537q157 0 221 65t64 193q0 127 -64 191.5t-221 64.5h-537v-514z" />
    <glyph glyph-name="uni042B" unicode="&#x42b;" horiz-adv-x="2060" 
d="M178 0v1430h238v-521h532q508 0 508 -454q0 -245 -136.5 -350t-410.5 -105h-731zM416 197h516q156 0 219 65t63 193t-63 192t-219 64h-516v-514zM1645 0v1430h237v-1430h-237z" />
    <glyph glyph-name="uni042C" unicode="&#x42c;" horiz-adv-x="1529" 
d="M178 0v1430h238v-521h553q508 0 508 -454q0 -245 -136.5 -350t-410.5 -105h-752zM416 197h536q156 0 219.5 65t63.5 193t-63 192t-220 64h-536v-514z" />
    <glyph glyph-name="uni042D" unicode="&#x42d;" horiz-adv-x="1773" 
d="M86 520h254q54 -172 179 -249.5t355 -77.5q144 0 248.5 30.5t168.5 89.5t97 136.5t42 181.5h-754v184h754q-11 100 -44.5 175.5t-98 132.5t-168 86.5t-245.5 29.5q-227 0 -351.5 -75t-180.5 -242h-256q112 526 791 526q402 0 606.5 -178.5t204.5 -554.5
q0 -377 -204.5 -555t-606.5 -178q-688 0 -791 538z" />
    <glyph glyph-name="uni042E" unicode="&#x42e;" horiz-adv-x="2250" 
d="M178 0v1430h238v-605h209q32 314 225 462.5t539 148.5q382 0 579 -178t197 -556q0 -380 -196.5 -557.5t-579.5 -177.5q-359 0 -552.5 158t-213.5 498h-207v-623h-238zM856 702q0 -102 16 -182t53.5 -146t98.5 -109.5t152.5 -67t212.5 -23.5q123 0 215 23.5t152.5 66.5
t98 110t53 146t15.5 182q0 131 -25.5 224.5t-85 163.5t-165 104.5t-258.5 34.5q-152 0 -256.5 -34.5t-164.5 -104.5t-86 -163.5t-26 -224.5z" />
    <glyph glyph-name="uni042F" unicode="&#x42f;" horiz-adv-x="1566" 
d="M104 975q0 455 508 455h777v-1430h-238v524h-385l-336 -524h-260l352 532q-208 24 -313 129t-105 314zM342 975q0 -127 64 -191.5t221 -64.5h524v514h-524q-157 0 -221 -65t-64 -193z" />
    <glyph glyph-name="uni0430" unicode="&#x430;" horiz-adv-x="1472" 
d="M113 336q0 85 30.5 149t79 101.5t120.5 60t143 30t159 7.5h432q-5 142 -86.5 205.5t-265.5 64.5q-153 3 -252.5 -43t-126.5 -129h-227q47 170 203.5 259t400.5 89q283 0 427 -110.5t144 -364.5v-655h-184l-23 184q-64 -106 -198.5 -164.5t-294.5 -58.5q-229 0 -355 94
t-126 281zM336 340q0 -207 293 -207q83 0 156 16t139.5 51t107 101t43.5 156v80h-366q-56 0 -94.5 -2t-85.5 -8t-78.5 -19.5t-59.5 -34.5t-41.5 -54.5t-13.5 -78.5z" />
    <glyph glyph-name="uni0431" unicode="&#x431;" horiz-adv-x="1544" 
d="M117 594v113q0 202 41 341.5t127.5 224t211 122t300.5 37.5h196q124 0 167.5 18.5t43.5 56.5h223q0 -152 -98.5 -208t-339.5 -56h-190q-134 0 -223.5 -23.5t-143 -75t-78.5 -120.5t-35 -174h9q69 118 189.5 173.5t322.5 55.5q305 0 454.5 -133t149.5 -424
q0 -557 -662 -557q-162 0 -281.5 33t-207 105.5t-132 195t-44.5 295.5zM350 530q0 -104 33 -179t93 -117.5t135.5 -62t170.5 -19.5q211 0 320.5 86t109.5 286q0 194 -109.5 282.5t-320.5 88.5q-432 0 -432 -365z" />
    <glyph glyph-name="uni0432" unicode="&#x432;" horiz-adv-x="1433" 
d="M178 0v1085h746q198 0 294.5 -64.5t96.5 -221.5q0 -88 -46 -142t-118 -75v-11q190 -47 190 -258q0 -160 -104 -236.5t-319 -76.5h-740zM403 172h537q82 0 124 41.5t42 105.5q0 70 -40 112t-124 42h-539v-301zM403 633h527q153 0 153 143q0 68 -35 105t-118 37h-527v-285z
" />
    <glyph glyph-name="uni0433" unicode="&#x433;" horiz-adv-x="1112" 
d="M178 0v1085h891v-200h-666v-885h-225z" />
    <glyph glyph-name="uni0434" unicode="&#x434;" horiz-adv-x="1529" 
d="M43 199h47q49 0 83.5 23.5t55.5 70.5t32.5 98.5t19.5 126.5q8 69 13.5 152.5t7.5 126.5t5 155.5t4 132.5h989v-886h170q-7 -86 -10 -207l-8 -287h-195v295h-1009l-6 -295h-197zM381 199h694v690h-559q-22 -296 -31 -377q-21 -220 -104 -313z" />
    <glyph glyph-name="uni0435" unicode="&#x435;" horiz-adv-x="1523" 
d="M100 551q0 293 174.5 439.5t495.5 146.5q336 0 500.5 -158t161.5 -487h-1104q6 -181 119.5 -261.5t326.5 -80.5q173 0 276 37.5t146 136.5h221q-38 -176 -203.5 -267.5t-443.5 -91.5q-161 0 -282 32t-209 101t-133.5 182.5t-45.5 270.5zM330 643h872q-21 170 -128.5 247
t-305.5 77q-205 0 -313 -77.5t-125 -246.5z" />
    <glyph glyph-name="uni0436" unicode="&#x436;" horiz-adv-x="1933" 
d="M20 0l584 573l-555 512h264l469 -434h74v434h221v-434h74l469 434h264l-555 -512l584 -573h-291l-475 465h-70v-465h-221v465h-70l-475 -465h-291z" />
    <glyph glyph-name="uni0437" unicode="&#x437;" horiz-adv-x="1329" 
d="M43 336h233q20 -59 56 -98.5t89.5 -60t113 -28.5t143.5 -8q323 0 323 181q0 81 -45 119t-141 38h-319v160h297q92 0 138 34t46 109q0 96 -78 139.5t-229 43.5q-309 0 -371 -158h-217q21 92 77 158t138 102.5t173.5 53t199.5 16.5q530 0 530 -328q0 -160 -147 -221v-13
q184 -73 184 -262q0 -166 -138.5 -258t-420.5 -92q-269 0 -427.5 86t-207.5 287z" />
    <glyph glyph-name="uni0438" unicode="&#x438;" horiz-adv-x="1562" 
d="M178 0v1085h223v-950h52q234 433 528 950h403v-1085h-223v952h-51q-192 -358 -530 -952h-402z" />
    <glyph glyph-name="uni0439" unicode="&#x439;" horiz-adv-x="1562" 
d="M178 0v1085h223v-950h52q234 433 528 950h403v-1085h-223v952h-51q-192 -358 -530 -952h-402zM315 1554h226q6 -90 60 -131t181 -41q126 0 180 41t60 131h227q-3 -163 -121.5 -236t-345.5 -73t-345 73t-122 236z" />
    <glyph glyph-name="uni043A" unicode="&#x43a;" horiz-adv-x="1339" 
d="M178 0v1085h225v-434h95l518 434h282l-616 -516l637 -569h-305l-522 465h-89v-465h-225z" />
    <glyph glyph-name="uni043B" unicode="&#x43b;" horiz-adv-x="1458" 
d="M25 -4v199h43q102 0 140.5 62.5t53.5 244.5q18 213 27 583h991v-1085h-225v891h-563q-7 -221 -25 -389q-9 -101 -20.5 -171t-31.5 -130t-46.5 -96.5t-67 -62t-93 -36t-124.5 -10.5h-59z" />
    <glyph glyph-name="uni043C" unicode="&#x43c;" horiz-adv-x="1742" 
d="M178 0v1085h426l141 -553q14 -52 101 -393h51q40 180 96 393l146 553h424v-1085h-213v952h-58q-123 -482 -260 -952h-321q-140 458 -262 952h-56v-952h-215z" />
    <glyph glyph-name="uni043D" unicode="&#x43d;" horiz-adv-x="1525" 
d="M178 0v1085h225v-432h719v432h226v-1085h-226v453h-719v-453h-225z" />
    <glyph glyph-name="uni043E" unicode="&#x43e;" horiz-adv-x="1548" 
d="M100 551q0 303 170 446.5t504 143.5q337 0 506.5 -143.5t169.5 -446.5q0 -301 -171 -445.5t-505 -144.5t-504 144.5t-170 445.5zM328 551q0 -204 104 -301.5t342 -97.5t342.5 97.5t104.5 301.5q0 205 -104 302t-343 97q-238 0 -342 -97t-104 -302z" />
    <glyph glyph-name="uni043F" unicode="&#x43f;" horiz-adv-x="1521" 
d="M178 0v1085h1165v-1085h-225v885h-715v-885h-225z" />
    <glyph glyph-name="uni0440" unicode="&#x440;" horiz-adv-x="1570" 
d="M178 -410v1502h209l2 -131q162 180 471 180q312 0 461 -149t149 -441t-149 -440t-461 -148q-296 0 -457 154v-527h-225zM383 551q0 -189 117 -294t311 -105q221 0 325.5 94.5t104.5 304.5q0 211 -104.5 305t-325.5 94q-194 0 -311 -105t-117 -294z" />
    <glyph glyph-name="uni0441" unicode="&#x441;" horiz-adv-x="1533" 
d="M100 551q0 303 170.5 447.5t503.5 144.5q296 0 463 -111t205 -342h-234q-29 134 -134 198t-300 64q-238 0 -342 -97.5t-104 -303.5q0 -204 104 -301.5t342 -97.5q195 0 300 64t134 198h234q-38 -232 -204.5 -342.5t-463.5 -110.5q-674 0 -674 590z" />
    <glyph glyph-name="uni0442" unicode="&#x442;" horiz-adv-x="1257" 
d="M43 885v200h1174v-200h-476v-885h-225v885h-473z" />
    <glyph glyph-name="uni0443" unicode="&#x443;" horiz-adv-x="1357" 
d="M35 1085h260q61 -144 124 -298.5t140.5 -347.5t112.5 -279h84l360 925h252l-414 -1005q-46 -114 -77 -181.5t-69.5 -127t-70.5 -87.5t-83.5 -49t-106.5 -26.5t-141 -5.5h-187v190h180q100 0 154 19.5t82.5 59.5t60.5 128h-188z" />
    <glyph glyph-name="uni0444" unicode="&#x444;" horiz-adv-x="1687" 
d="M86 549q0 306 158 443.5t491 142.5v405h217v-405q333 -5 491.5 -143t158.5 -443q0 -306 -158 -442.5t-492 -139.5v-370h-217v370q-333 3 -491 140t-158 442zM303 549q0 -230 94.5 -318.5t339.5 -91.5v824q-243 -3 -338.5 -93.5t-95.5 -320.5zM950 139q245 3 339.5 91.5
t94.5 318.5t-95.5 320.5t-338.5 93.5v-824z" />
    <glyph glyph-name="uni0445" unicode="&#x445;" horiz-adv-x="1327" 
d="M20 0l512 541l-507 544h276l369 -397l358 397h270l-499 -536l508 -549h-279l-369 401l-370 -401h-269z" />
    <glyph glyph-name="uni0446" unicode="&#x446;" horiz-adv-x="1533" 
d="M178 0v1085h225v-886h695v886h225v-886h164q-7 -86 -10 -207l-9 -287h-198v295h-1092z" />
    <glyph glyph-name="uni0447" unicode="&#x447;" horiz-adv-x="1394" 
d="M123 813v272h219v-286q0 -164 79 -237t241 -73q329 0 329 250v346h226v-1085h-226v422q-114 -117 -356 -117q-147 0 -247 32t-158 99t-82.5 157.5t-24.5 219.5z" />
    <glyph glyph-name="uni0448" unicode="&#x448;" horiz-adv-x="1957" 
d="M178 0v1085h225v-886h463v886h226v-886h462v886h226v-1085h-1602z" />
    <glyph glyph-name="uni0449" unicode="&#x449;" horiz-adv-x="1990" 
d="M178 0v1085h225v-886h463v886h226v-886h462v886h226v-886h164q-8 -104 -11 -207l-8 -287h-199v295h-1548z" />
    <glyph glyph-name="uni044A" unicode="&#x44a;" horiz-adv-x="1593" 
d="M-51 885v200h682v-319h463q219 0 337.5 -94.5t118.5 -288.5t-118.5 -288.5t-337.5 -94.5h-688v885h-457zM631 182h461q123 0 176 50.5t53 150.5t-53 150.5t-176 50.5h-461v-402z" />
    <glyph glyph-name="uni044B" unicode="&#x44b;" horiz-adv-x="1875" 
d="M178 0v1085h225v-319h459q219 0 338 -94.5t119 -288.5t-119 -288.5t-338 -94.5h-684zM403 182h455q123 0 176 50.5t53 150.5t-53 150.5t-176 50.5h-455v-402zM1473 0v1085h225v-1085h-225z" />
    <glyph glyph-name="uni044C" unicode="&#x44c;" horiz-adv-x="1370" 
d="M178 0v1085h225v-319h465q219 0 338 -94.5t119 -288.5t-119 -288.5t-338 -94.5h-690zM403 182h467q123 0 176.5 50.5t53.5 150.5t-53.5 150.5t-176.5 50.5h-467v-402z" />
    <glyph glyph-name="uni044D" unicode="&#x44d;" horiz-adv-x="1529" 
d="M92 401h232q34 -130 139 -192t293 -62q216 0 324 80t122 246h-590v168h590q-17 160 -125 238.5t-321 78.5q-188 0 -293 -62t-139 -194h-232q74 441 664 441q337 0 506.5 -145t169.5 -447q0 -301 -169.5 -445.5t-506.5 -144.5q-288 0 -458.5 109t-205.5 331z" />
    <glyph glyph-name="uni044E" unicode="&#x44e;" horiz-adv-x="2019" 
d="M178 0v1085h225v-432h201q53 486 656 486q329 0 494 -143t165 -445q0 -301 -166 -444.5t-493 -143.5q-296 0 -462.5 118.5t-195.5 373.5h-199v-455h-225zM821 551q2 -204 104 -301.5t335 -97.5t335.5 97.5t102.5 301.5t-102.5 301.5t-335.5 97.5t-335 -97.5t-104 -301.5z
" />
    <glyph glyph-name="uni044F" unicode="&#x44f;" horiz-adv-x="1482" 
d="M102 0l314 340q-301 58 -301 365q0 187 116 283.5t340 96.5h734v-1085h-226v326h-424l-293 -326h-260zM340 705q0 -104 56 -153.5t173 -49.5h510v403h-510q-118 0 -173.5 -48.5t-55.5 -151.5z" />
    <glyph glyph-name="uni0451" unicode="&#x451;" horiz-adv-x="1523" 
d="M100 551q0 293 174.5 439.5t495.5 146.5q336 0 500.5 -158t161.5 -487h-1104q6 -181 119.5 -261.5t326.5 -80.5q173 0 276 37.5t146 136.5h221q-38 -176 -203.5 -267.5t-443.5 -91.5q-161 0 -282 32t-209 101t-133.5 182.5t-45.5 270.5zM317 1368q0 67 39 103t113 36
q72 0 112 -36t40 -103q0 -66 -40 -101.5t-112 -35.5q-73 0 -112.5 35.5t-39.5 101.5zM330 643h872q-21 170 -128.5 247t-305.5 77q-205 0 -313 -77.5t-125 -246.5zM881 1368q0 68 39 103.5t112 35.5q72 0 112 -36t40 -103q0 -66 -40 -101.5t-112 -35.5q-73 0 -112 35.5
t-39 101.5z" />
    <glyph glyph-name="uni0452" unicode="&#x452;" horiz-adv-x="1550" 
d="M33 1266v155h145v95h225v-95h787v-155h-787v-324q143 193 453 193q120 0 211 -25.5t161.5 -84t107 -161.5t36.5 -250v-530q-1 -145 -25 -235t-85 -145t-152 -75t-238 -20h-59v182h14q70 0 116 4t84 16t59 30.5t35.5 51.5t19.5 74.5t6 104.5v526q0 180 -90.5 262
t-274.5 82q-379 0 -379 -340v-602h-225v1266h-145z" />
    <glyph glyph-name="uni0453" unicode="&#x453;" horiz-adv-x="1112" 
d="M178 0v1085h891v-200h-666v-885h-225zM408 1214l335 328h269l-420 -328h-184z" />
    <glyph glyph-name="uni0454" unicode="&#x454;" horiz-adv-x="1536" 
d="M100 551q0 303 170.5 447.5t503.5 144.5q296 0 463 -111t205 -342h-234q-29 134 -134 198t-300 64q-211 0 -315 -76t-125 -235h651v-170h-653q19 -163 124 -241t318 -78q195 0 300 64t134 198h234q-38 -232 -204.5 -342.5t-463.5 -110.5q-674 0 -674 590z" />
    <glyph glyph-name="uni0455" unicode="&#x455;" horiz-adv-x="1421" 
d="M76 344h235q36 -106 138 -154.5t278 -48.5q172 0 270.5 47.5t98.5 133.5q0 90 -69.5 119.5t-270.5 29.5h-88q-264 0 -392.5 72t-128.5 245q0 156 152 254.5t408 98.5q265 0 419 -84.5t209 -278.5h-227q-39 103 -136 147t-265 44q-156 0 -250.5 -44t-94.5 -128
q0 -86 80.5 -116t290.5 -30h94q258 0 374 -75.5t116 -251.5q0 -178 -158 -270.5t-432 -92.5q-290 0 -443.5 89t-207.5 294z" />
    <glyph glyph-name="uni0456" unicode="&#x456;" horiz-adv-x="598" 
d="M150 1354q0 66 38.5 101.5t110.5 35.5t111 -35.5t39 -101.5q0 -67 -39 -103.5t-111 -36.5t-110.5 36t-38.5 104zM193 0v1085h225v-1085h-225z" />
    <glyph glyph-name="uni0457" unicode="&#x457;" horiz-adv-x="581" 
d="M-98 1354q0 68 39 103.5t112 35.5q72 0 112 -36t40 -103q0 -66 -40 -101.5t-112 -35.5q-73 0 -112 35.5t-39 101.5zM178 0v1085h225v-1085h-225zM377 1354q0 67 39.5 103t113.5 36q72 0 111 -36t39 -103q0 -66 -39 -101.5t-111 -35.5q-74 0 -113.5 35.5t-39.5 101.5z" />
    <glyph glyph-name="uni0458" unicode="&#x458;" horiz-adv-x="567" 
d="M-160 -213h23q71 0 116.5 4t80 18t52.5 31.5t28.5 53.5t13 74t2.5 104v1013h225v-1022q0 -112 -14.5 -188t-45 -129t-86 -82.5t-129 -42t-182.5 -12.5h-84v178zM115 1352q0 67 39.5 104t111.5 37q73 0 112.5 -36.5t39.5 -104.5q0 -66 -39.5 -103t-112.5 -37
q-72 0 -111.5 37t-39.5 103z" />
    <glyph glyph-name="uni0459" unicode="&#x459;" horiz-adv-x="2291" 
d="M25 -4v199h43q102 0 140.5 62.5t53.5 244.5q18 213 27 583h991v-325h508q461 0 461 -379q0 -193 -118 -287t-335 -94h-741v891h-563q-7 -221 -25 -389q-9 -101 -20.5 -171t-31.5 -130t-46.5 -96.5t-67 -62t-93 -36t-124.5 -10.5h-59zM1280 174h510q125 0 179 52t54 155
q0 101 -54.5 153t-178.5 52h-510v-412z" />
    <glyph glyph-name="uni045A" unicode="&#x45a;" horiz-adv-x="2291" 
d="M178 0v1085h225v-432h719v432h226v-325h440q461 0 461 -379q0 -193 -118 -287t-335 -94h-674v453h-719v-453h-225zM1348 174h442q125 0 179 52t54 155q0 101 -54.5 153t-178.5 52h-442v-412z" />
    <glyph glyph-name="uni045B" unicode="&#x45b;" horiz-adv-x="1550" 
d="M33 1268v153h145v95h225v-95h787v-153h-787v-320q147 187 453 187q96 0 172 -15.5t142 -52t109.5 -95t68 -148t24.5 -206.5v-618h-225v594q0 179 -90.5 260.5t-274.5 81.5q-379 0 -379 -340v-596h-225v1268h-145z" />
    <glyph glyph-name="uni045C" unicode="&#x45c;" horiz-adv-x="1339" 
d="M178 0v1085h225v-434h95l518 434h282l-616 -516l637 -569h-305l-522 465h-89v-465h-225zM455 1214l336 328h268l-420 -328h-184z" />
    <glyph glyph-name="uni045E" unicode="&#x45e;" horiz-adv-x="1357" 
d="M35 1085h260q61 -144 124 -298.5t140.5 -347.5t112.5 -279h84l360 925h252l-414 -1005q-46 -114 -77 -181.5t-69.5 -127t-70.5 -87.5t-83.5 -49t-106.5 -26.5t-141 -5.5h-187v190h180q100 0 154 19.5t82.5 59.5t60.5 128h-188zM274 1552h228q5 -89 59 -129.5t180 -40.5
t181 40.5t61 129.5h227q-4 -163 -123 -235t-346 -72t-345 72t-122 235z" />
    <glyph glyph-name="uni045F" unicode="&#x45f;" horiz-adv-x="1511" 
d="M178 0v1085h225v-884h705v884h225v-1085h-459v-305h-215v305h-481z" />
    <glyph glyph-name="uni0462" unicode="&#x462;" horiz-adv-x="1536" 
d="M0 1112v174h178v144h238v-144h805v-174h-805v-199h559q508 0 508 -454q0 -244 -136.5 -351.5t-408.5 -107.5h-760v1112h-178zM416 197h528q91 0 151.5 17t92.5 53t44.5 81t12.5 111q0 128 -64 194t-216 66h-549v-522z" />
    <glyph glyph-name="uni0490" unicode="&#x490;" horiz-adv-x="1245" 
d="M178 0l2 1430h824v333h217v-542h-805v-1221h-238z" />
    <glyph glyph-name="uni0491" unicode="&#x491;" horiz-adv-x="1112" 
d="M178 0v1085h688v334h203v-534h-666v-885h-225z" />
    <glyph glyph-name="uni049A" unicode="&#x49a;" horiz-adv-x="1439" 
d="M178 0v1430h238v-594h98l582 594h268l-666 -687l498 -544h236q-12 -153 -13 -242l-6 -287h-213v330h-104l-594 643h-86v-643h-238z" />
    <glyph glyph-name="uni04BA" unicode="&#x4ba;" horiz-adv-x="1509" 
d="M178 0v1430h238v-652q131 148 411 148q285 0 415 -131t130 -422v-373h-237v377q0 183 -86.5 263.5t-272.5 80.5q-181 0 -270.5 -73.5t-89.5 -256.5v-391h-238z" />
    <glyph glyph-name="uni04E8" unicode="&#x4e8;" horiz-adv-x="1804" 
d="M86 711q0 382 207.5 561.5t607.5 179.5q403 0 610 -179t207 -562t-207 -561.5t-610 -178.5q-401 0 -608 179t-207 561zM342 795h1120q-9 111 -41.5 191t-97 139t-169.5 88.5t-253 29.5q-146 0 -250.5 -29.5t-169 -88.5t-97.5 -139t-42 -191zM344 618q9 -108 42 -186.5
t98 -136.5t168.5 -86.5t248.5 -28.5q147 0 251.5 28.5t169 86.5t97 136.5t41.5 186.5h-1116z" />
    <glyph glyph-name="Wgrave" unicode="&#x1e80;" horiz-adv-x="1867" 
d="M70 1430h237q110 -801 164 -1291h43q28 150 119.5 653.5t116.5 637.5h370q99 -503 236 -1291h43q76 635 166 1291h235l-207 -1430h-399l-233 1290h-50l-233 -1290h-402zM571 1808h246l307 -301h-168z" />
    <glyph glyph-name="wgrave" unicode="&#x1e81;" horiz-adv-x="1691" 
d="M68 1085h229q107 -640 154 -954h51q13 76 46.5 279t62 367.5t55.5 307.5h358q28 -143 56 -302.5t64.5 -377.5t45.5 -274h49q30 199 156 954h229l-199 -1085h-387l-166 954h-55l-162 -954h-391zM348 1544h268l334 -327h-182z" />
    <glyph glyph-name="Wacute" unicode="&#x1e82;" horiz-adv-x="1867" 
d="M70 1430h237q110 -801 164 -1291h43q28 150 119.5 653.5t116.5 637.5h370q99 -503 236 -1291h43q76 635 166 1291h235l-207 -1430h-399l-233 1290h-50l-233 -1290h-402zM756 1507l305 299h246l-383 -299h-168z" />
    <glyph glyph-name="wacute" unicode="&#x1e83;" horiz-adv-x="1691" 
d="M68 1085h229q107 -640 154 -954h51q13 76 46.5 279t62 367.5t55.5 307.5h358q28 -143 56 -302.5t64.5 -377.5t45.5 -274h49q30 199 156 954h229l-199 -1085h-387l-166 954h-55l-162 -954h-391zM621 1217l335 327h269l-420 -327h-184z" />
    <glyph glyph-name="Wdieresis" unicode="&#x1e84;" horiz-adv-x="1867" 
d="M70 1430h237q110 -801 164 -1291h43q28 150 119.5 653.5t116.5 637.5h370q99 -503 236 -1291h43q76 635 166 1291h235l-207 -1430h-399l-233 1290h-50l-233 -1290h-402zM504 1642q0 64 38.5 98t112.5 34q73 0 112.5 -34t39.5 -98q0 -63 -39.5 -96t-112.5 -33
q-74 0 -112.5 33t-38.5 96zM1067 1642q0 64 39 98t113 34q72 0 111.5 -34t39.5 -98q0 -63 -39.5 -96t-111.5 -33q-74 0 -113 33t-39 96z" />
    <glyph glyph-name="wdieresis" unicode="&#x1e85;" horiz-adv-x="1691" 
d="M68 1085h229q107 -640 154 -954h51q13 76 46.5 279t62 367.5t55.5 307.5h358q28 -143 56 -302.5t64.5 -377.5t45.5 -274h49q30 199 156 954h229l-199 -1085h-387l-166 954h-55l-162 -954h-391zM410 1370q0 68 39 103.5t112 35.5q72 0 112 -36t40 -103q0 -66 -40 -101.5
t-112 -35.5q-73 0 -112 35.5t-39 101.5zM973 1370q0 68 39 103.5t112 35.5q72 0 112 -36t40 -103q0 -66 -40 -101.5t-112 -35.5q-73 0 -112 35.5t-39 101.5z" />
    <glyph glyph-name="Ygrave" unicode="&#x1ef2;" horiz-adv-x="1347" 
d="M-8 1430h256q214 -331 411 -654h29q53 87 412 654h256l-565 -875v-555h-234v555zM309 1808h246l307 -301h-168z" />
    <glyph glyph-name="ygrave" unicode="&#x1ef3;" horiz-adv-x="1357" 
d="M35 1085h260q61 -144 124 -298.5t140.5 -347.5t112.5 -279h84l360 925h252l-414 -1005q-46 -114 -77 -181.5t-69.5 -127t-70.5 -87.5t-83.5 -49t-106.5 -26.5t-141 -5.5h-187v190h180q100 0 154 19.5t82.5 59.5t60.5 128h-188zM188 1542h269l334 -328h-183z" />
    <glyph glyph-name="uni2000" unicode="&#x2000;" horiz-adv-x="965" 
 />
    <glyph glyph-name="uni2001" unicode="&#x2001;" horiz-adv-x="1931" 
 />
    <glyph glyph-name="uni2002" unicode="&#x2002;" horiz-adv-x="965" 
 />
    <glyph glyph-name="uni2003" unicode="&#x2003;" horiz-adv-x="1931" 
 />
    <glyph glyph-name="uni2004" unicode="&#x2004;" horiz-adv-x="643" 
 />
    <glyph glyph-name="uni2005" unicode="&#x2005;" horiz-adv-x="482" 
 />
    <glyph glyph-name="uni2006" unicode="&#x2006;" horiz-adv-x="321" 
 />
    <glyph glyph-name="uni2007" unicode="&#x2007;" horiz-adv-x="321" 
 />
    <glyph glyph-name="uni2008" unicode="&#x2008;" horiz-adv-x="241" 
 />
    <glyph glyph-name="uni2009" unicode="&#x2009;" horiz-adv-x="386" 
 />
    <glyph glyph-name="uni200A" unicode="&#x200a;" horiz-adv-x="292" 
 />
    <glyph glyph-name="uni200B" unicode="&#x200b;" horiz-adv-x="0" 
 />
    <glyph glyph-name="uni2010" unicode="&#x2010;" horiz-adv-x="1206" 
d="M178 494v196h850v-196h-850z" />
    <glyph glyph-name="uni2011" unicode="&#x2011;" horiz-adv-x="1206" 
d="M178 494v196h850v-196h-850z" />
    <glyph glyph-name="figuredash" unicode="&#x2012;" horiz-adv-x="1206" 
d="M178 494v196h850v-196h-850z" />
    <glyph glyph-name="endash" unicode="&#x2013;" horiz-adv-x="1484" 
d="M145 500v196h1194v-196h-1194z" />
    <glyph glyph-name="emdash" unicode="&#x2014;" horiz-adv-x="2138" 
d="M88 487v201h1860v-201h-1860z" />
    <glyph glyph-name="quoteleft" unicode="&#x2018;" horiz-adv-x="534" 
d="M76 1004q0 109 65 210t172 203h166q-160 -182 -219 -297q-12 -24 4 -24q47 0 86 -17q64 -31 64 -116q0 -63 -44 -100.5t-120 -37.5q-174 0 -174 179z" />
    <glyph glyph-name="quoteright" unicode="&#x2019;" horiz-adv-x="534" 
d="M55 860q159 172 219 295q12 25 -4 25q-50 0 -84 18q-63 26 -63 115q0 63 43 100t119 37q174 0 174 -178q0 -188 -236 -412h-168z" />
    <glyph glyph-name="quotesinglbase" unicode="&#x201a;" horiz-adv-x="536" 
d="M49 -338q159 189 211 295q12 25 -2 25q-58 3 -86 18q-63 28 -63 115q0 64 42.5 100.5t118.5 36.5q172 0 172 -180q0 -56 -19.5 -113.5t-55 -112t-69.5 -96.5t-79 -90z" />
    <glyph glyph-name="quotedblleft" unicode="&#x201c;" horiz-adv-x="985" 
d="M76 1004q0 109 65 210t172 203h166q-160 -182 -219 -297q-12 -24 4 -24q47 0 86 -17q64 -31 64 -116q0 -63 -44 -100.5t-120 -37.5q-174 0 -174 179zM524 1004q0 109 65 210t173 203h166q-160 -182 -219 -297q-12 -24 4 -24q47 0 86 -17q63 -31 63 -116q0 -64 -43 -101
t-119 -37q-176 0 -176 179z" />
    <glyph glyph-name="quotedblright" unicode="&#x201d;" horiz-adv-x="991" 
d="M55 860q159 172 219 295q12 25 -4 25q-50 0 -84 18q-63 26 -63 115q0 63 43 100t119 37q174 0 174 -178q0 -188 -236 -412h-168zM512 860q159 172 219 295q13 25 -4 25q-49 0 -84 18q-63 26 -63 115q0 64 42.5 100.5t118.5 36.5q174 0 174 -178q0 -189 -235 -412h-168z
" />
    <glyph glyph-name="quotedblbase" unicode="&#x201e;" horiz-adv-x="536" 
d="M49 -338q159 189 211 295q12 25 -2 25q-58 3 -86 18q-63 28 -63 115q0 64 42.5 100.5t118.5 36.5q172 0 172 -180q0 -56 -19.5 -113.5t-55 -112t-69.5 -96.5t-79 -90z" />
    <glyph glyph-name="bullet" unicode="&#x2022;" horiz-adv-x="1087" 
d="M315 543q0 95 59.5 142.5t170.5 47.5q106 0 163.5 -47.5t57.5 -142.5q0 -193 -221 -193q-230 0 -230 193z" />
    <glyph glyph-name="ellipsis" unicode="&#x2026;" horiz-adv-x="1853" 
d="M92 117q0 135 160 135q156 0 156 -135t-156 -135q-160 0 -160 135zM788 117q0 135 160 135q156 0 156 -135t-156 -135q-160 0 -160 135zM1444 117q0 135 160 135q155 0 155 -135t-155 -135q-160 0 -160 135z" />
    <glyph glyph-name="uni202F" unicode="&#x202f;" horiz-adv-x="386" 
 />
    <glyph glyph-name="perthousand" unicode="&#x2030;" horiz-adv-x="3166" 
d="M45 993q0 233 104.5 341t331.5 108q229 0 334 -108t105 -341q0 -232 -105 -339t-334 -107q-227 0 -331.5 107t-104.5 339zM248 993q0 -168 53.5 -231.5t179.5 -63.5q128 0 182 64.5t54 230.5t-54 230.5t-182 64.5q-126 0 -179.5 -63.5t-53.5 -231.5zM616 0l658 1430h178
l-657 -1430h-179zM1221 426q0 233 105.5 340.5t332.5 107.5t332.5 -107.5t105.5 -340.5q0 -231 -105.5 -338.5t-332.5 -107.5q-228 0 -333 107.5t-105 338.5zM1425 426q0 -168 53 -230.5t181 -62.5q126 0 179.5 63.5t53.5 229.5q0 168 -53.5 231.5t-179.5 63.5
q-128 0 -181 -63.5t-53 -231.5zM2210 426q0 233 104.5 340.5t333.5 107.5q227 0 332.5 -107.5t105.5 -340.5q0 -231 -105.5 -338.5t-332.5 -107.5q-228 0 -333 107.5t-105 338.5zM2413 426q0 -167 53.5 -230t181.5 -63q127 0 180.5 63.5t53.5 229.5q0 167 -53.5 231
t-180.5 64q-128 0 -181.5 -63.5t-53.5 -231.5z" />
    <glyph glyph-name="guilsinglleft" unicode="&#x2039;" horiz-adv-x="671" 
d="M49 596l326 -453h215l-342 453l342 453h-215z" />
    <glyph glyph-name="guilsinglright" unicode="&#x203a;" horiz-adv-x="671" 
d="M82 143h215l326 453l-326 453h-215l342 -453z" />
    <glyph glyph-name="fraction" unicode="&#x2044;" horiz-adv-x="397" 
d="M-395 0l1013 1430h175l-1016 -1430h-172z" />
    <glyph glyph-name="uni205F" unicode="&#x205f;" horiz-adv-x="482" 
 />
    <glyph glyph-name="uni2070" unicode="&#x2070;" horiz-adv-x="1009" 
d="M68 995q0 233 104.5 341t331.5 108q228 0 333 -107.5t105 -341.5q0 -231 -105 -338.5t-333 -107.5q-227 0 -331.5 107.5t-104.5 338.5zM270 995q0 -167 53.5 -230t180.5 -63q128 0 181.5 63.5t53.5 229.5q0 168 -53.5 231.5t-181.5 63.5q-127 0 -180.5 -64t-53.5 -231z
" />
    <glyph glyph-name="uni2074" unicode="&#x2074;" horiz-adv-x="1009" 
d="M23 786v91l444 550h326v-512h180l-39 -129h-141v-217h-195v217h-575zM238 915h360v416h-23z" />
    <glyph glyph-name="uni2075" unicode="&#x2075;" horiz-adv-x="1009" 
d="M63 836h216q18 -129 245 -129q211 0 211 137q0 67 -49 100t-156 33q-161 0 -237 -70l-166 97l131 423h686l-45 -155h-504l-80 -217l19 -8q100 75 262 75q172 0 259 -67t87 -211q0 -295 -418 -295q-87 0 -160 14.5t-137 46.5t-107 89.5t-57 136.5z" />
    <glyph glyph-name="uni2076" unicode="&#x2076;" horiz-adv-x="1009" 
d="M76 958q0 104 28 190.5t83 153t144.5 103.5t205.5 37q171 0 266.5 -56t122.5 -180h-203q-18 49 -62.5 70.5t-119.5 21.5q-134 0 -199.5 -76.5t-75.5 -201.5l17 -4q100 106 305 106q344 0 344 -280q0 -148 -104 -220.5t-320 -72.5q-229 0 -330.5 98t-101.5 311zM287 842
q0 -135 221 -135q115 0 167 33.5t52 101.5q0 74 -50 105.5t-169 31.5q-108 0 -164.5 -35.5t-56.5 -101.5z" />
    <glyph glyph-name="uni2077" unicode="&#x2077;" horiz-adv-x="847" 
d="M55 1274h498l-412 -705h224l481 854l-791 2v-151z" />
    <glyph glyph-name="uni2078" unicode="&#x2078;" horiz-adv-x="1009" 
d="M68 793q0 162 180 225v8q-73 25 -114.5 74t-41.5 108q0 124 111 183t301 59q411 0 411 -242q0 -60 -41 -108.5t-114 -73.5v-8q182 -61 182 -225q0 -66 -36 -115t-99 -76.5t-139 -41t-164 -13.5t-163.5 13.5t-138 41.5t-98.5 77t-36 114zM276 823q0 -125 228 -125
q227 0 227 125q0 62 -52 95.5t-175 33.5q-228 0 -228 -129zM293 1188q0 -119 211 -119t211 119q0 115 -211 115t-211 -115z" />
    <glyph glyph-name="uni2079" unicode="&#x2079;" horiz-adv-x="1009" 
d="M78 1149q0 138 106.5 215.5t315.5 77.5q230 0 332 -98.5t102 -307.5q0 -230 -112 -358.5t-349 -128.5q-169 0 -265.5 56.5t-123.5 180.5h205q15 -50 59.5 -72t122.5 -22q70 0 122 22.5t82.5 62.5t46.5 88t19 106l-14 4q-99 -105 -295 -105q-354 0 -354 279zM283 1149
q0 -74 50 -105.5t169 -31.5q106 0 163.5 36t57.5 101q0 137 -221 137q-116 0 -167.5 -34.5t-51.5 -102.5z" />
    <glyph glyph-name="uni2080" unicode="&#x2080;" horiz-adv-x="1009" 
d="M68 426q0 233 104.5 340.5t331.5 107.5q229 0 333.5 -107.5t104.5 -340.5q0 -231 -105 -338.5t-333 -107.5q-227 0 -331.5 107.5t-104.5 338.5zM270 426q0 -167 53.5 -230t180.5 -63q128 0 181.5 63.5t53.5 229.5q0 168 -53.5 231.5t-181.5 63.5q-127 0 -180.5 -64
t-53.5 -231z" />
    <glyph glyph-name="uni2081" unicode="&#x2081;" horiz-adv-x="829" 
d="M80 606v137l405 117h160v-860h-194v715z" />
    <glyph glyph-name="uni2082" unicode="&#x2082;" horiz-adv-x="1009" 
d="M76 588q29 135 143.5 206.5t304.5 71.5q410 0 410 -291q0 -58 -20 -104t-44.5 -74.5t-79 -56t-91 -40.5t-112.5 -37q-18 -6 -28 -9q-201 -65 -262 -107l4 -14q150 23 322 23h282v-156h-823q-4 36 -4 80q0 45 26.5 85t56.5 65t94 55t95 41.5t103 35.5q4 1 5.5 2t4.5 2
t5.5 1.5t4.5 1.5q20 7 50.5 17t48.5 15.5t42 15.5t38.5 18.5t30.5 22.5t24.5 29t14 36.5t5.5 47.5q0 76 -51.5 109t-153.5 33q-103 0 -160 -29.5t-75 -95.5h-211z" />
    <glyph glyph-name="uni2083" unicode="&#x2083;" horiz-adv-x="1009" 
d="M70 266h213q24 -129 254 -129q98 0 151 32.5t53 94.5q0 66 -48.5 89.5t-139.5 23.5h-164l37 129h139q162 0 162 108q0 58 -49 87.5t-139 29.5q-203 0 -242 -119h-207q64 260 451 260q189 0 289 -63t100 -180q0 -112 -133 -166v-12q151 -49 151 -201q0 -126 -108 -198
t-303 -72q-198 0 -301 53q-138 71 -166 233z" />
    <glyph glyph-name="uni2084" unicode="&#x2084;" horiz-adv-x="1009" 
d="M23 217v90l444 551h326v-512h180l-39 -129h-141v-217h-195v217h-575zM238 346h360v416h-23z" />
    <glyph glyph-name="uni2085" unicode="&#x2085;" horiz-adv-x="1009" 
d="M63 266h216q18 -129 245 -129q211 0 211 137q0 67 -49 100.5t-156 33.5q-161 0 -237 -70l-166 96l131 424h686l-45 -156h-504l-80 -217l19 -8q101 76 262 76q172 0 259 -67.5t87 -211.5q0 -294 -418 -294q-87 0 -160 14.5t-137 46t-107 89t-57 136.5z" />
    <glyph glyph-name="uni2086" unicode="&#x2086;" horiz-adv-x="1009" 
d="M76 389q0 104 28 190.5t83 152.5t144.5 103t205.5 37q171 0 266.5 -55.5t122.5 -179.5h-203q-18 49 -62.5 70.5t-119.5 21.5q-134 0 -199.5 -76.5t-75.5 -201.5l17 -5q101 107 305 107q344 0 344 -281q0 -148 -104 -220t-320 -72q-229 0 -330.5 98t-101.5 311zM287 272
q0 -135 221 -135q115 0 167 33.5t52 101.5q0 74 -50 106t-169 32q-108 0 -164.5 -36t-56.5 -102z" />
    <glyph glyph-name="uni2087" unicode="&#x2087;" horiz-adv-x="847" 
d="M55 705h498l-412 -705h224l481 854l-791 2v-151z" />
    <glyph glyph-name="uni2088" unicode="&#x2088;" horiz-adv-x="1009" 
d="M68 223q0 163 180 226v8q-73 25 -114.5 74t-41.5 108q0 124 111 183t301 59q411 0 411 -242q0 -60 -41 -108.5t-114 -73.5v-8q182 -61 182 -226q0 -66 -36 -115t-99 -76.5t-139 -41t-164 -13.5t-163.5 13.5t-138 41.5t-98.5 77t-36 114zM276 254q0 -125 228 -125
q227 0 227 125q0 62 -52 95.5t-175 33.5q-228 0 -228 -129zM293 618q0 -118 211 -118t211 118q0 115 -211 115t-211 -115z" />
    <glyph glyph-name="uni2089" unicode="&#x2089;" horiz-adv-x="1009" 
d="M78 580q0 138 106.5 215t315.5 77q230 0 332 -98t102 -307q0 -230 -112 -358.5t-349 -128.5q-169 0 -265.5 56.5t-123.5 180.5h205q15 -50 59.5 -72t122.5 -22q70 0 122 22.5t82.5 62t46.5 87.5t19 106l-14 5q-99 -105 -295 -105q-354 0 -354 279zM283 580q0 -74 50 -106
t169 -32q106 0 163.5 36.5t57.5 101.5q0 137 -221 137q-116 0 -167.5 -34.5t-51.5 -102.5z" />
    <glyph glyph-name="Euro" unicode="&#x20ac;" horiz-adv-x="1454" 
d="M10 487v146h133q-2 23 -2 69v56h-131v145h146q44 274 211 411.5t444 137.5q514 0 610 -422h-237q-37 123 -126 179.5t-247 56.5q-194 0 -291.5 -89.5t-126.5 -273.5h590l-70 -145h-532v-56q0 -46 2 -69h491l-69 -146h-408q30 -169 127.5 -252t286.5 -83q159 0 244.5 56
t128.5 183h239q-60 -217 -210.5 -321.5t-401.5 -104.5q-561 0 -653 522h-148z" />
    <glyph glyph-name="uni20B4" unicode="&#x20b4;" horiz-adv-x="1519" 
d="M70 508v139h1337v-139h-965q-67 -51 -67 -141q0 -217 360 -217q380 0 422 231h242q-41 -205 -199 -311.5t-465 -106.5q-596 0 -596 369q0 99 70 176h-139zM70 772v139h983q63 39 63 140q0 217 -323 217q-103 0 -176 -14t-120.5 -43t-75.5 -66.5t-48 -93.5h-244
q59 214 219.5 309.5t442.5 95.5q253 0 401 -90.5t154 -271.5q6 -109 -68 -183h125v-139h-1333z" />
    <glyph glyph-name="uni20BD" unicode="&#x20bd;" horiz-adv-x="1576" 
d="M27 266v146h180v125h-180v145h180v748h735q500 0 500 -449q0 -124 -36 -211.5t-107 -138t-166.5 -72.5t-225.5 -22h-469v-125h785v-146h-785v-266h-231v266h-180zM438 725h490q155 0 217.5 64t62.5 192t-62.5 192t-217.5 64h-490v-512z" />
    <glyph glyph-name="uni20BF" unicode="&#x20bf;" horiz-adv-x="1462" 
d="M162 0v1401h287v178h145v-178h125v178h145v-178h19q244 0 355.5 -83.5t111.5 -264.5q0 -104 -51 -184t-148 -113v-11q112 -30 171.5 -118t59.5 -211q0 -98 -23.5 -169.5t-80 -129t-160 -87t-254.5 -30.5v-158h-145v158h-125v-156h-145v156h-287zM389 193h522
q70 0 118 17.5t73.5 50t36 71.5t10.5 90q0 109 -55 166t-187 57h-518v-452zM389 825h524q112 0 160.5 47.5t48.5 145.5t-48.5 146t-160.5 48h-524v-387z" />
    <glyph glyph-name="uni2116" unicode="&#x2116;" horiz-adv-x="2648" 
d="M178 0v1430h449q239 -599 381 -943q42 -101 141 -354h47l8 1297h226v-1430h-457q-58 142 -186 459t-197 485q-27 66 -77 194.5t-62 157.5h-48v-1296h-225zM1608 1010q0 232 104.5 339t331.5 107q228 0 333 -107t105 -339t-105 -340.5t-333 -108.5q-227 0 -331.5 108.5
t-104.5 340.5zM1810 1010q0 -167 53.5 -231t180.5 -64q128 0 181.5 64t53.5 231q0 166 -54.5 230.5t-180.5 64.5q-127 0 -180.5 -64t-53.5 -231z" />
    <glyph glyph-name="trademark" unicode="&#x2122;" horiz-adv-x="1626" 
d="M14 1303v127h572v-127h-209v-478h-152v478h-211zM680 825v605h301q4 -21 42.5 -221.5t55.5 -295.5h39l92 517h303v-605h-145v516h-43q-68 -358 -102 -516h-246q-27 125 -61.5 291.5t-47.5 224.5h-43v-516h-145z" />
    <glyph glyph-name="oneeighth" unicode="&#x215b;" horiz-adv-x="2236" 
d="M80 1176v137l405 117h160v-861h-194v715zM434 0l1014 1430h174l-1016 -1430h-172zM1294 223q0 163 181 226v8q-73 25 -114.5 74t-41.5 108q0 124 111 183t301 59q411 0 411 -242q0 -60 -41 -108.5t-114 -73.5v-8q182 -61 182 -226q0 -66 -36 -115t-99 -76.5t-139 -41
t-164 -13.5t-164 13.5t-138.5 41.5t-98.5 77t-36 114zM1503 254q0 -125 228 -125q227 0 227 125q0 62 -52 95.5t-175 33.5q-228 0 -228 -129zM1520 618q0 -118 211 -118t211 118q0 115 -211 115t-211 -115z" />
    <glyph glyph-name="threeeighths" unicode="&#x215c;" horiz-adv-x="2416" 
d="M70 836h213q24 -129 254 -129q98 0 151 32.5t53 94.5q0 66 -48 89t-140 23h-164l37 129h139q162 0 162 109q0 116 -188 116q-203 0 -242 -118h-207q64 260 451 260q188 0 288.5 -63.5t100.5 -180.5q0 -112 -133 -166v-12q151 -49 151 -201q0 -126 -108 -198t-303 -72
q-198 0 -301 53q-138 71 -166 234zM614 0l1014 1430h174l-1016 -1430h-172zM1475 223q0 163 180 226v8q-73 25 -114.5 74t-41.5 108q0 124 111 183t301 59q411 0 411 -242q0 -60 -41 -108.5t-114 -73.5v-8q182 -61 182 -226q0 -66 -36 -115t-99 -76.5t-139 -41t-164 -13.5
t-163.5 13.5t-138 41.5t-98.5 77t-36 114zM1683 254q0 -125 228 -125q227 0 227 125q0 62 -52 95.5t-175 33.5q-228 0 -228 -129zM1700 618q0 -118 211 -118t211 118q0 115 -211 115t-211 -115z" />
    <glyph glyph-name="fiveeighths" unicode="&#x215d;" horiz-adv-x="2416" 
d="M63 836h216q18 -129 245 -129q211 0 211 137q0 67 -49 100t-156 33q-161 0 -237 -70l-166 97l131 423h686l-45 -155h-504l-80 -217l19 -8q100 75 262 75q172 0 259 -67t87 -211q0 -295 -418 -295q-87 0 -160 14.5t-137 46.5t-107 89.5t-57 136.5zM614 0l1014 1430h174
l-1016 -1430h-172zM1475 223q0 163 180 226v8q-73 25 -114.5 74t-41.5 108q0 124 111 183t301 59q411 0 411 -242q0 -60 -41 -108.5t-114 -73.5v-8q182 -61 182 -226q0 -66 -36 -115t-99 -76.5t-139 -41t-164 -13.5t-163.5 13.5t-138 41.5t-98.5 77t-36 114zM1683 254
q0 -125 228 -125q227 0 227 125q0 62 -52 95.5t-175 33.5q-228 0 -228 -129zM1700 618q0 -118 211 -118t211 118q0 115 -211 115t-211 -115z" />
    <glyph glyph-name="seveneighths" unicode="&#x215e;" horiz-adv-x="2254" 
d="M55 1274h498l-412 -705h224l481 854l-791 2v-151zM453 0l1013 1430h174l-1015 -1430h-172zM1313 223q0 163 180 226v8q-73 25 -114.5 74t-41.5 108q0 124 111 183t301 59q412 0 412 -242q0 -60 -41.5 -108.5t-114.5 -73.5v-8q182 -61 182 -226q0 -66 -36 -115t-99 -76.5
t-139 -41t-164 -13.5t-163.5 13.5t-138 41.5t-98.5 77t-36 114zM1522 254q0 -125 227 -125t227 125q0 62 -52 95.5t-175 33.5q-227 0 -227 -129zM1538 618q0 -118 211 -118t211 118q0 115 -211 115t-211 -115z" />
    <glyph glyph-name="arrowleft" unicode="&#x2190;" horiz-adv-x="2048" 
d="M59 655v52l926 731v-299l-512 -326v-39q121 6 260 10.5t236.5 7t265.5 5.5t231 4t256 3.5t226 2.5v-252q-529 5 -1475 31v-41l512 -316v-305z" />
    <glyph glyph-name="arrowup" unicode="&#x2191;" horiz-adv-x="2048" 
d="M254 713l731 925h51l731 -925h-299l-325 512h-39q6 -121 10.5 -260t7 -236.5t5.5 -265.5t4 -231t3.5 -256t2.5 -226h-252q5 581 30 1475h-41l-315 -512h-305z" />
    <glyph glyph-name="arrowright" unicode="&#x2192;" horiz-adv-x="2048" 
d="M102 543v254q393 -5 1475 -31v39l-512 315v307l926 -731v-53l-926 -731v299l512 328v36q-144 -7 -291 -11.5t-325.5 -8t-274.5 -5t-314.5 -4t-269.5 -3.5z" />
    <glyph glyph-name="arrowdown" unicode="&#x2193;" horiz-adv-x="2048" 
d="M268 672h297l328 -512h37q-23 586 -31 1474h252q-5 -527 -31 -1474h39l316 512h307l-731 -926h-52z" />
    <glyph glyph-name="uni2196" unicode="&#x2196;" horiz-adv-x="2048" 
d="M268 1440l37 37l1174 -138l-217 -217l-586 140l-29 -29q650 -613 1065 -1020l-178 -178q-689 701 -1020 1065l-27 -27l131 -594l-210 -211z" />
    <glyph glyph-name="uni2197" unicode="&#x2197;" horiz-adv-x="2048" 
d="M328 250q368 362 1065 1022l-29 26l-586 -139l-217 217l1172 137l36 -36l-137 -1172l-211 211l131 594l-26 27q-358 -391 -1020 -1065l-90 88z" />
    <glyph glyph-name="uni2198" unicode="&#x2198;" horiz-adv-x="2048" 
d="M334 1206l88 90l90 88q362 -368 1022 -1065l27 29l-140 586l217 217l138 -1171l-37 -37l-1172 137l211 211l594 -131l27 26q-391 358 -1065 1020z" />
    <glyph glyph-name="uni2199" unicode="&#x2199;" horiz-adv-x="2048" 
d="M281 -31l137 1174l211 -211l-131 -594l26 -27q358 391 1020 1065l90 -90l90 -88q-379 -370 -1067 -1022l29 -26l586 139l217 -217l-1172 -140z" />
    <glyph glyph-name="product" unicode="&#x220f;" horiz-adv-x="1779" 
d="M29 1223v207h1722v-207h-227v-1624h-236v1624h-796v-1624h-236v1624h-227z" />
    <glyph glyph-name="summation" unicode="&#x2211;" horiz-adv-x="1499" 
d="M160 1231v199h1140v-207h-808l708 -621v-98l-715 -699h836v-204h-1139l-2 196l766 752z" />
    <glyph glyph-name="minus" unicode="&#x2212;" 
d="M170 569v179h889v-179h-889z" />
    <glyph glyph-name="radical" unicode="&#x221a;" horiz-adv-x="1230" 
d="M0 883v200h514l141 -880h19l272 1227h225l-323 -1430h-371l-153 883h-324z" />
    <glyph glyph-name="approxequal" unicode="&#x2248;" 
d="M217 358q0 119 60 182.5t176 63.5q65 0 120.5 -18.5t86 -40t67 -40t68.5 -18.5q96 0 96 109q0 29 -4 45h176q6 -46 6 -88q0 -246 -233 -246q-56 0 -101.5 12.5t-75 30t-54.5 35t-54.5 30t-61.5 11.5q-50 -2 -72 -27t-22 -80q0 -29 2 -47h-174q-6 47 -6 86zM219 776
q0 119 60 182.5t176 63.5q65 0 120.5 -18.5t86 -40t67 -40t68.5 -18.5q96 0 96 109q0 29 -4 45h176q6 -46 6 -88q0 -246 -233 -246q-68 0 -122.5 19t-82.5 41.5t-65 41t-76 17.5q-50 -2 -72.5 -27t-22.5 -80q0 -29 2 -47h-174q-6 46 -6 86z" />
    <glyph glyph-name="notequal" unicode="&#x2260;" 
d="M168 784v179h496l137 235h174l-137 -235h221v-179h-326l-147 -252h475v-178h-580l-137 -235h-170l137 235h-139v178h242l147 252h-393z" />
    <glyph glyph-name="lessequal" unicode="&#x2264;" 
d="M168 432v203l713 -432l-74 -164zM170 801v69l762 461l82 -178l-533 -315l533 -316l-82 -182z" />
    <glyph glyph-name="greaterequal" unicode="&#x2265;" 
d="M258 522l535 316l-535 315l82 178l762 -461v-69l-762 -461zM391 203l715 432v-203l-641 -393z" />
    <glyph glyph-name="lozenge" unicode="&#x25ca;" 
d="M113 569l522 836l522 -834l-522 -837zM295 571l340 -571l340 571l-340 568z" />
    <glyph glyph-name="uni25FC" unicode="&#x25fc;" horiz-adv-x="1085" 
d="M0 0v1085h1085v-1085h-1085z" />
    <glyph glyph-name="i.loclTRK" horiz-adv-x="581" 
d="M141 1354q0 66 39 101.5t111 35.5t110.5 -35.5t38.5 -101.5q0 -68 -38.5 -104t-110.5 -36t-111 36.5t-39 103.5zM178 0v1085h225v-1085h-225z" />
    <glyph glyph-name="zero.tf" horiz-adv-x="1433" 
d="M78 711q0 389 152 565t487 176q338 0 489.5 -175.5t151.5 -565.5q0 -391 -152 -568.5t-489 -177.5q-334 0 -486.5 178t-152.5 568zM315 711q0 -164 23.5 -271.5t76 -169t124 -86t178.5 -24.5t179 24.5t124.5 86.5t76 169.5t23.5 270.5t-23.5 270.5t-76 168.5t-124 85.5
t-179.5 24.5q-107 0 -178.5 -24t-124 -85t-76 -168.5t-23.5 -271.5z" />
    <glyph glyph-name="one.tf" horiz-adv-x="1433" 
d="M119 1202l612 221h168v-1235l408 -2v-186h-1112v190l473 -2v1020l-547 -200z" />
    <glyph glyph-name="two.tf" horiz-adv-x="1433" 
d="M94 993q43 221 207.5 336t441.5 115q303 0 449.5 -116t146.5 -349q0 -57 -9 -107t-22.5 -89.5t-39 -75t-49.5 -62t-62.5 -52.5t-70 -44t-80 -39t-84.5 -35t-92 -35q-42 -16 -64 -24q-337 -122 -410 -213l6 -21q234 25 433 25h510v-207h-1203q-4 40 -4 117q0 67 37.5 129
t80 102t134.5 89.5t136.5 69t150.5 62.5q28 12 41 17q28 12 69 28.5t66 26.5t59.5 25t55.5 27t47.5 30t42 35t32.5 40.5t26 49.5t14.5 58.5t5.5 70.5q0 142 -88.5 207t-266.5 65q-177 0 -272 -60.5t-129 -195.5h-246z" />
    <glyph glyph-name="three.tf" horiz-adv-x="1433" 
d="M80 436h250q23 -145 130 -208.5t300 -63.5q169 0 258.5 66.5t89.5 195.5q0 130 -72 178.5t-221 48.5h-266l45 172h223q275 0 275 213q0 230 -324 230q-179 0 -281.5 -56t-136.5 -182h-244q100 424 662 424q267 0 414 -103t147 -302q0 -95 -49.5 -166t-140.5 -113v-20
q110 -38 162.5 -125.5t52.5 -208.5q0 -209 -156 -329t-438 -120q-157 0 -263 24.5t-190 76.5q-189 113 -227 368z" />
    <glyph glyph-name="four.tf" horiz-adv-x="1433" 
d="M35 375v123l694 932h414v-881h272l-55 -174h-217v-375h-228v375h-880zM305 549h610v743l-53 2z" />
    <glyph glyph-name="five.tf" horiz-adv-x="1433" 
d="M63 436h250q12 -112 88 -180q106 -90 324 -90q189 3 277 72t88 211q0 144 -83 209t-266 65q-127 0 -227.5 -36.5t-155.5 -100.5l-208 123l200 721h1000l-56 -203h-780l-127 -436l19 -11q156 131 417 131q260 0 383 -114.5t123 -345.5q0 -82 -15 -148.5t-55.5 -131
t-106.5 -108t-174 -70t-251 -26.5q-258 0 -416 88q-217 123 -248 381z" />
    <glyph glyph-name="six.tf" horiz-adv-x="1433" 
d="M96 635q0 186 41 334.5t122.5 257t211 167t299.5 58.5q242 0 380.5 -90t178.5 -295h-239q-26 102 -103 149.5t-213 47.5q-117 0 -202 -39t-136.5 -113.5t-78.5 -169.5t-35 -219l20 -4q86 106 204.5 150t291.5 44q249 0 375 -114t126 -350q0 -239 -147.5 -360.5
t-460.5 -121.5q-338 0 -486.5 160t-148.5 508zM352 449q0 -141 97 -212t282 -71q193 0 281 71.5t88 211.5q0 153 -81.5 214.5t-287.5 61.5q-189 0 -284 -72.5t-95 -203.5z" />
    <glyph glyph-name="seven.tf" horiz-adv-x="1433" 
d="M152 1233h766l-650 -1233h254l744 1425l-1114 5v-197z" />
    <glyph glyph-name="eight.tf" horiz-adv-x="1433" 
d="M70 379q0 273 258 371v16q-106 40 -161.5 120.5t-55.5 182.5q0 404 594 404q595 0 595 -404q0 -103 -55.5 -183t-163.5 -120v-16q258 -97 258 -371q0 -111 -50.5 -193.5t-140 -130.5t-200.5 -71t-243 -23q-104 0 -195.5 14t-173 45.5t-140 79t-92.5 119t-34 160.5z
M313 399q0 -116 95.5 -180.5t296.5 -64.5q391 0 391 245q0 131 -89.5 199t-301.5 68q-210 0 -301 -68.5t-91 -198.5zM344 1053q0 -236 361 -236q358 0 358 236q0 52 -16 91.5t-54.5 72.5t-111 50t-176.5 17t-177 -17t-112 -50t-55.5 -72.5t-16.5 -91.5z" />
    <glyph glyph-name="nine.tf" horiz-adv-x="1433" 
d="M90 973q0 238 147.5 358.5t460.5 120.5q340 0 487.5 -153.5t147.5 -499.5q0 -201 -37.5 -352t-116.5 -260t-209.5 -164.5t-310.5 -55.5q-250 0 -386 96t-173 291h242q22 -106 101 -151t216 -45q97 0 172.5 27.5t125.5 75.5t83 118t48 148.5t18 174.5h-19
q-87 -108 -199 -151t-270 -43q-266 0 -397 114.5t-131 350.5zM330 973q0 -155 81 -217t287 -62q180 0 278.5 75t98.5 204q0 140 -96.5 211t-280.5 71q-199 0 -283.5 -70.5t-84.5 -211.5z" />
    <glyph glyph-name="zero.dnom" horiz-adv-x="1009" 
d="M68 426q0 233 104.5 340.5t331.5 107.5q229 0 333.5 -107.5t104.5 -340.5q0 -231 -105 -338.5t-333 -107.5q-227 0 -331.5 107.5t-104.5 338.5zM270 426q0 -167 53.5 -230t180.5 -63q128 0 181.5 63.5t53.5 229.5q0 168 -53.5 231.5t-181.5 63.5q-127 0 -180.5 -64
t-53.5 -231z" />
    <glyph glyph-name="one.dnom" horiz-adv-x="829" 
d="M80 606v137l405 117h160v-860h-194v715z" />
    <glyph glyph-name="two.dnom" horiz-adv-x="1009" 
d="M76 588q29 135 143.5 206.5t304.5 71.5q410 0 410 -291q0 -58 -20 -104t-44.5 -74.5t-79 -56t-91 -40.5t-112.5 -37q-18 -6 -28 -9q-201 -65 -262 -107l4 -14q150 23 322 23h282v-156h-823q-4 36 -4 80q0 45 26.5 85t56.5 65t94 55t95 41.5t103 35.5q4 1 5.5 2t4.5 2
t5.5 1.5t4.5 1.5q20 7 50.5 17t48.5 15.5t42 15.5t38.5 18.5t30.5 22.5t24.5 29t14 36.5t5.5 47.5q0 76 -51.5 109t-153.5 33q-103 0 -160 -29.5t-75 -95.5h-211z" />
    <glyph glyph-name="three.dnom" horiz-adv-x="1009" 
d="M70 266h213q24 -129 254 -129q98 0 151 32.5t53 94.5q0 66 -48.5 89.5t-139.5 23.5h-164l37 129h139q162 0 162 108q0 58 -49 87.5t-139 29.5q-203 0 -242 -119h-207q64 260 451 260q189 0 289 -63t100 -180q0 -112 -133 -166v-12q151 -49 151 -201q0 -126 -108 -198
t-303 -72q-198 0 -301 53q-138 71 -166 233z" />
    <glyph glyph-name="four.dnom" horiz-adv-x="1009" 
d="M23 217v90l444 551h326v-512h180l-39 -129h-141v-217h-195v217h-575zM238 346h360v416h-23z" />
    <glyph glyph-name="five.dnom" horiz-adv-x="1009" 
d="M63 266h216q18 -129 245 -129q211 0 211 137q0 67 -49 100.5t-156 33.5q-161 0 -237 -70l-166 96l131 424h686l-45 -156h-504l-80 -217l19 -8q101 76 262 76q172 0 259 -67.5t87 -211.5q0 -294 -418 -294q-87 0 -160 14.5t-137 46t-107 89t-57 136.5z" />
    <glyph glyph-name="six.dnom" horiz-adv-x="1009" 
d="M76 389q0 104 28 190.5t83 152.5t144.5 103t205.5 37q171 0 266.5 -55.5t122.5 -179.5h-203q-18 49 -62.5 70.5t-119.5 21.5q-134 0 -199.5 -76.5t-75.5 -201.5l17 -5q101 107 305 107q344 0 344 -281q0 -148 -104 -220t-320 -72q-229 0 -330.5 98t-101.5 311zM287 272
q0 -135 221 -135q115 0 167 33.5t52 101.5q0 74 -50 106t-169 32q-108 0 -164.5 -36t-56.5 -102z" />
    <glyph glyph-name="seven.dnom" horiz-adv-x="847" 
d="M55 705h498l-412 -705h224l481 854l-791 2v-151z" />
    <glyph glyph-name="eight.dnom" horiz-adv-x="1009" 
d="M68 223q0 163 180 226v8q-73 25 -114.5 74t-41.5 108q0 124 111 183t301 59q411 0 411 -242q0 -60 -41 -108.5t-114 -73.5v-8q182 -61 182 -226q0 -66 -36 -115t-99 -76.5t-139 -41t-164 -13.5t-163.5 13.5t-138 41.5t-98.5 77t-36 114zM276 254q0 -125 228 -125
q227 0 227 125q0 62 -52 95.5t-175 33.5q-228 0 -228 -129zM293 618q0 -118 211 -118t211 118q0 115 -211 115t-211 -115z" />
    <glyph glyph-name="nine.dnom" horiz-adv-x="1009" 
d="M78 580q0 138 106.5 215t315.5 77q230 0 332 -98t102 -307q0 -230 -112 -358.5t-349 -128.5q-169 0 -265.5 56.5t-123.5 180.5h205q15 -50 59.5 -72t122.5 -22q70 0 122 22.5t82.5 62t46.5 87.5t19 106l-14 5q-99 -105 -295 -105q-354 0 -354 279zM283 580q0 -74 50 -106
t169 -32q106 0 163.5 36.5t57.5 101.5q0 137 -221 137q-116 0 -167.5 -34.5t-51.5 -102.5z" />
    <glyph glyph-name="zero.numr" horiz-adv-x="1009" 
d="M68 995q0 233 104.5 341t331.5 108q228 0 333 -107.5t105 -341.5q0 -231 -105 -338.5t-333 -107.5q-227 0 -331.5 107.5t-104.5 338.5zM270 995q0 -167 53.5 -230t180.5 -63q128 0 181.5 63.5t53.5 229.5q0 168 -53.5 231.5t-181.5 63.5q-127 0 -180.5 -64t-53.5 -231z
" />
    <glyph glyph-name="one.numr" horiz-adv-x="829" 
d="M80 1176v137l405 117h160v-861h-194v715z" />
    <glyph glyph-name="two.numr" horiz-adv-x="1009" 
d="M76 1157q29 136 143.5 207.5t304.5 71.5q410 0 410 -291q0 -59 -19 -104.5t-47 -75t-78 -55.5t-93 -41.5t-112 -37.5l-9 -3t-8 -2.5t-9 -2.5q-204 -66 -262 -106l4 -15q149 23 322 23h282v-156h-823q-4 36 -4 80q0 45 26.5 85t56.5 65t94 55t95 41.5t103 35.5q4 1 5.5 2
t4.5 2t5.5 1.5t4.5 1.5q20 7 50.5 17t48 16t42.5 15.5t39 18.5t30 22.5t24.5 29t14 37t5.5 47.5q0 75 -51.5 108t-153.5 33q-103 0 -160 -29.5t-75 -95.5h-211z" />
    <glyph glyph-name="three.numr" horiz-adv-x="1009" 
d="M70 836h213q24 -129 254 -129q98 0 151 32.5t53 94.5q0 66 -48 89t-140 23h-164l37 129h139q162 0 162 109q0 116 -188 116q-203 0 -242 -118h-207q64 260 451 260q188 0 288.5 -63.5t100.5 -180.5q0 -112 -133 -166v-12q151 -49 151 -201q0 -126 -108 -198t-303 -72
q-198 0 -301 53q-138 71 -166 234z" />
    <glyph glyph-name="four.numr" horiz-adv-x="1009" 
d="M23 786v91l444 550h326v-512h180l-39 -129h-141v-217h-195v217h-575zM238 915h360v416h-23z" />
    <glyph glyph-name="five.numr" horiz-adv-x="1009" 
d="M63 836h216q18 -129 245 -129q211 0 211 137q0 67 -49 100t-156 33q-161 0 -237 -70l-166 97l131 423h686l-45 -155h-504l-80 -217l19 -8q100 75 262 75q172 0 259 -67t87 -211q0 -295 -418 -295q-87 0 -160 14.5t-137 46.5t-107 89.5t-57 136.5z" />
    <glyph glyph-name="six.numr" horiz-adv-x="1009" 
d="M76 958q0 104 28 190.5t83 153t144.5 103.5t205.5 37q171 0 266.5 -56t122.5 -180h-203q-18 49 -62.5 70.5t-119.5 21.5q-134 0 -199.5 -76.5t-75.5 -201.5l17 -4q100 106 305 106q344 0 344 -280q0 -148 -104 -220.5t-320 -72.5q-229 0 -330.5 98t-101.5 311zM287 842
q0 -135 221 -135q115 0 167 33.5t52 101.5q0 74 -50 105.5t-169 31.5q-108 0 -164.5 -35.5t-56.5 -101.5z" />
    <glyph glyph-name="seven.numr" horiz-adv-x="847" 
d="M55 1274h498l-412 -705h224l481 854l-791 2v-151z" />
    <glyph glyph-name="eight.numr" horiz-adv-x="1009" 
d="M68 793q0 162 180 225v8q-73 25 -114.5 74t-41.5 108q0 124 111 183t301 59q411 0 411 -242q0 -60 -41 -108.5t-114 -73.5v-8q182 -61 182 -225q0 -66 -36 -115t-99 -76.5t-139 -41t-164 -13.5t-163.5 13.5t-138 41.5t-98.5 77t-36 114zM276 823q0 -125 228 -125
q227 0 227 125q0 62 -52 95.5t-175 33.5q-228 0 -228 -129zM293 1188q0 -119 211 -119t211 119q0 115 -211 115t-211 -115z" />
    <glyph glyph-name="nine.numr" horiz-adv-x="1009" 
d="M78 1149q0 138 106.5 215.5t315.5 77.5q230 0 332 -98.5t102 -307.5q0 -230 -112 -358.5t-349 -128.5q-169 0 -265.5 56.5t-123.5 180.5h205q15 -50 59.5 -72t122.5 -22q70 0 122 22.5t82.5 62.5t46.5 88t19 106l-14 4q-99 -105 -295 -105q-354 0 -354 279zM283 1149
q0 -74 50 -105.5t169 -31.5q106 0 163.5 36t57.5 101q0 137 -221 137q-116 0 -167.5 -34.5t-51.5 -102.5z" />
    <glyph glyph-name="brevecombcy" horiz-adv-x="0" 
d="M-877 1573h226q6 -90 60 -131t181 -41q126 0 180 41t60 131h227q-3 -163 -121.5 -236t-345.5 -73t-345 73t-122 236z" />
    <glyph glyph-name="brevecy" horiz-adv-x="1710" 
d="M420 1817h194q6 -89 60 -128.5t178 -39.5t178 39.5t62 128.5h196q-3 -157 -111 -228t-325 -71q-214 0 -321.5 71t-110.5 228z" />
    <glyph glyph-name="Tenge.sign" 
 />
    </font>
</defs>
</svg>
